<svg width="15" height="15" viewBox="0 0 15 15" fill="none" xmlns="http://www.w3.org/2000/svg">
<path fill-rule="evenodd" clip-rule="evenodd" d="M2.29736 7.80917C2.29736 8.10257 2.53521 8.34042 2.82861 8.34042L11.127 8.34042C11.4204 8.34042 11.6583 8.10257 11.6583 7.80917C11.6583 7.51577 11.4204 7.27792 11.127 7.27792L2.82861 7.27792C2.53521 7.27792 2.29736 7.51577 2.29736 7.80917Z" fill="white"/>
<path fill-rule="evenodd" clip-rule="evenodd" d="M8.67904 11.2967C8.8865 11.5042 9.22287 11.5042 9.43034 11.2967L12.1146 8.61243C12.5662 8.16089 12.5662 7.42879 12.1146 6.97725L9.44264 4.30526C9.23517 4.0978 8.8988 4.0978 8.69134 4.30526C8.48387 4.51273 8.48387 4.8491 8.69134 5.05657L11.3633 7.72855C11.3999 7.76516 11.3999 7.82452 11.3633 7.86113L8.67904 10.5454C8.47157 10.7529 8.47157 11.0892 8.67904 11.2967Z" fill="white"/>
</svg>
