<svg width="292" height="198" viewBox="0 0 292 198" fill="none" xmlns="http://www.w3.org/2000/svg">
<path d="M12.0001 186H172L160 198H-6.00782e-07L12.0001 186Z" fill="#303030"/>
<path d="M280 12.0029L292 -0.000977163V185.999L280 197.998V12.0029Z" fill="#F0F0F0"/>
<path d="M0 12.0029L12 -0.000977163V185.999L0 197.998V12.0029Z" fill="#434343"/>
<path d="M12.0001 0H292L280 12H-6.00782e-07L12.0001 0Z" fill="#EDEDED"/>
<path opacity="0.4" d="M12 0L292 2.24868e-05L280 12.0001L0.000358562 12.0001L12 0Z" fill="url(#paint0_linear_188_5196)"/>
<rect y="12" width="280" height="186" fill="#FBFBFB"/>
<rect y="12" width="280" height="186" fill="url(#paint1_radial_188_5196)" fill-opacity="0.16"/>
<defs>
<linearGradient id="paint0_linear_188_5196" x1="152" y1="0" x2="152" y2="12.0001" gradientUnits="userSpaceOnUse">
<stop stop-color="white"/>
<stop offset="1" stop-color="white" stop-opacity="0"/>
</linearGradient>
<radialGradient id="paint1_radial_188_5196" cx="0" cy="0" r="1" gradientUnits="userSpaceOnUse" gradientTransform="translate(150.5 78.2625) rotate(118.551) scale(109.846 662.961)">
<stop stop-color="white"/>
<stop offset="1" stop-color="white" stop-opacity="0"/>
</radialGradient>
</defs>
</svg>
