<svg width="294" height="26" viewBox="0 0 294 26" fill="none" xmlns="http://www.w3.org/2000/svg">
<path d="M2.00013 22H282L281 23H0.999999L2.00013 22Z" fill="#917654"/>
<path d="M281 22.9991L282 21.999V23.999L281 24.999V22.9991Z" fill="#DEC19D"/>
<path d="M280 13.9993L281 12.999V24.999L280 25.999V13.9993Z" fill="#DEC19D"/>
<path d="M282 11.9993L294 -0.000977163V11.999L282 23.999V11.9993Z" fill="#DEC19D"/>
<mask id="mask0_205_5332" style="mask-type:alpha" maskUnits="userSpaceOnUse" x="280" y="-1" width="14" height="27">
<path fill-rule="evenodd" clip-rule="evenodd" d="M282 11.9993L294 -0.000976562V11.999L282 23.999L282 23.999L281 24.999L280 25.999V13.9993L281 12.999L281 22.9991L282 21.999L282 11.9993Z" fill="#DEC19D"/>
</mask>
<g mask="url(#mask0_205_5332)">
<g style="mix-blend-mode:multiply" opacity="0.4" filter="url(#filter0_f_205_5332)">
<path d="M277.872 14.8407C299.627 -9.87124 215.184 71.9154 174.773 111.369L158.675 140.608C186.323 112.002 256.117 39.5526 277.872 14.8407Z" stroke="#CE9F6D" stroke-width="0.407355"/>
<g opacity="0.4" filter="url(#filter1_f_205_5332)">
<path d="M162.371 135.562L176.574 110.804C198.763 89.0959 232.886 55.8734 258.532 31.3768C270.912 19.5516 281.298 9.77733 287.414 4.31046C262.531 31.9357 193.95 102.967 162.371 135.562Z" stroke="url(#paint0_linear_205_5332)" stroke-width="2.44413"/>
</g>
<g filter="url(#filter2_f_205_5332)">
<path d="M327.557 -35.2537C365.63 -78.5016 211.81 70.6708 141.086 139.718L112.914 190.888C161.301 140.824 289.483 7.99414 327.557 -35.2537Z" stroke="#CE9F6D" stroke-width="0.407355"/>
</g>
<path d="M299.424 -12.872C321.315 -34.7633 370.255 -83.5387 382.243 -94.8696C397.228 -109.033 402.706 -113.895 401.284 -110.214C399.862 -106.534 384.199 -86.5584 370.49 -76.135C359.523 -67.7964 330.683 -37.4233 317.634 -23.279L282.364 13.8393" stroke="#CE9F6D" stroke-width="0.407355"/>
<g opacity="0.4" filter="url(#filter3_f_205_5332)">
<path d="M299.424 -12.872C321.315 -34.7633 370.255 -83.5387 382.243 -94.8696C397.228 -109.033 402.706 -113.895 401.284 -110.214C399.862 -106.534 384.199 -86.5584 370.49 -76.135C359.523 -67.7964 330.683 -37.4233 317.634 -23.279L282.364 13.8393" stroke="url(#paint1_linear_205_5332)" stroke-width="2.03678"/>
</g>
<path d="M149.791 172.696C164.203 159.516 197.461 128.435 215.195 109.551C237.363 85.9458 297.119 24.5475 320.597 1.47925C344.076 -21.589 379.916 -60.0981 393.908 -71.4205" stroke="#CE9F6D" stroke-width="0.407355"/>
<path d="M149.71 162.921C164.122 149.741 197.38 118.659 215.114 99.7754C237.282 76.1703 297.037 14.7719 320.516 -8.29628C343.995 -31.3645 382.313 -68.6557 399.701 -90.7669" stroke="#CE9F6D" stroke-width="0.407355"/>
<path d="M149.694 160.884C164.823 146.576 184.422 128.415 215.098 97.7382C237.301 75.536 297.022 12.7348 320.501 -10.3334C343.979 -33.4016 382.298 -70.6928 399.686 -92.804" stroke="#CE9F6D" stroke-width="0.407355"/>
<g filter="url(#filter4_f_205_5332)">
<path d="M149.673 158.439C164.802 144.132 184.4 125.971 215.077 95.2939C237.279 73.0917 297 10.2905 320.479 -12.7777C343.958 -35.8459 382.276 -73.1372 399.664 -95.2483" stroke="#CE9F6D" stroke-width="0.407355"/>
</g>
<path d="M164.327 139.267C179.456 124.959 185.346 117.221 216.023 86.5446C238.225 64.3424 296.491 1.2006 319.97 -21.9184C346.761 -48.2991 407.671 -110.646 408.515 -113.954" stroke="#CE9F6D" stroke-width="0.407355"/>
<path d="M164.351 142.118C179.48 127.811 185.37 120.073 216.046 89.3962C238.249 67.194 296.514 4.05217 319.993 -19.0668C346.785 -45.4475 407.694 -107.794 408.538 -111.103" stroke="#CE9F6D" stroke-width="0.407355"/>
<path d="M163.207 144.291C178.336 129.983 171.989 135.098 202.666 104.422C224.868 82.2194 289.476 13.3502 312.955 -9.76878C339.746 -36.1495 407.708 -106.164 408.552 -109.473" stroke="#CE9F6D" stroke-width="0.407355"/>
<g filter="url(#filter5_f_205_5332)">
<path d="M149.805 174.326C164.217 161.146 197.475 130.065 215.209 111.181C237.377 87.5757 297.132 26.1773 320.611 3.10913C344.09 -19.9591 379.93 -58.4682 393.922 -69.7906" stroke="#CE9F6D" stroke-width="0.407355"/>
</g>
<path d="M147.692 182.393C162.104 169.213 197.524 136.175 215.258 117.291C237.426 93.6859 297.181 32.2875 320.66 9.21931C344.139 -13.8489 379.979 -52.358 393.971 -63.6804" stroke="#CE9F6D" stroke-width="0.407355"/>
<g opacity="0.24" filter="url(#filter6_f_205_5332)">
<path d="M147.653 177.505C162.065 164.324 197.485 131.286 215.219 112.402C237.387 88.7972 297.142 27.3988 320.621 4.33064C344.1 -18.7376 379.94 -57.2467 393.931 -68.5691" stroke="url(#paint2_linear_205_5332)" stroke-width="2.44413"/>
</g>
<path d="M182.415 96.1296C198.158 79.9759 235.896 41.6623 260.906 17.6378C292.169 -12.3929 329.044 -48.6514 339.7 -59.5127C350.356 -70.374 412.401 -135.91 418.192 -138.005" stroke="#CE9F6D" stroke-width="0.407355"/>
<path d="M181.854 98.7429C197.597 82.5892 235.336 44.2756 260.346 20.2511C291.609 -9.77962 328.483 -46.0382 339.139 -56.8994C349.795 -67.7607 411.84 -133.296 417.631 -135.391" stroke="#CE9F6D" stroke-width="0.407355"/>
</g>
</g>
<rect y="14" width="280" height="12" fill="#C4A175"/>
<mask id="mask1_205_5332" style="mask-type:alpha" maskUnits="userSpaceOnUse" x="0" y="14" width="280" height="12">
<rect y="14" width="280" height="12" fill="#D9D9D9"/>
</mask>
<g mask="url(#mask1_205_5332)">
<g style="mix-blend-mode:multiply" opacity="0.64" filter="url(#filter7_f_205_5332)">
<path d="M15.3361 13.9542C22.1797 12.4877 -1.50123 11.1706 -14.1971 10.6953L-19.2891 17.213C-10.5988 16.7377 8.49255 15.4206 15.3361 13.9542Z" stroke="#CE9F6D" stroke-width="0.407355"/>
<path opacity="0.4" d="M-17.0592 16.3059L-12.3852 11.5204C-4.47191 11.7606 6.67076 12.2034 14.8471 12.7658C17.8485 12.9723 20.4263 13.1934 22.2936 13.4233C13.2457 14.6838 -6.24547 15.8028 -17.0592 16.3059Z" stroke="url(#paint3_linear_205_5332)" stroke-width="1.62942"/>
<path d="M130.415 14.7687C161.215 11.8357 41.8258 9.20147 -15.3136 8.25098L-38.2305 21.2863C0.880981 20.3358 99.6142 17.7016 130.415 14.7687Z" stroke="#CE9F6D" stroke-width="0.407355"/>
<g opacity="0.4" filter="url(#filter8_f_205_5332)">
<path d="M-32.9883 19.9468L-12.7807 9.47757C18.593 9.95397 66.8409 10.8479 103.096 11.9879C120.598 12.5381 135.279 13.145 143.92 13.7882C108.699 16.5084 11.6824 18.9386 -32.9883 19.9468Z" stroke="url(#paint4_linear_205_5332)" stroke-width="2.44413"/>
</g>
<g filter="url(#filter9_f_205_5332)">
<path d="M200.683 14.3611C254.586 9.22842 37.1057 4.61852 -62.8934 2.95515L-103 25.767C-34.5514 24.1037 146.78 19.4938 200.683 14.3611Z" stroke="#CE9F6D" stroke-width="0.407355"/>
</g>
<path d="M160.966 8.65805C191.925 8.65805 261.135 8.8212 278.081 9.47297C299.263 10.2877 307.003 10.8987 304.966 13.1392C302.929 15.3796 280.729 19.6568 261.379 16.398C245.9 13.7909 205.096 15.3117 186.63 16.398L136.729 18.2311" stroke="#CE9F6D" stroke-width="0.407355"/>
<g opacity="0.4" filter="url(#filter10_f_205_5332)">
<path d="M160.966 8.65805C191.925 8.65805 261.135 8.8212 278.081 9.47297C299.263 10.2877 307.003 10.8987 304.966 13.1392C302.929 15.3796 280.729 19.6568 261.379 16.398C245.9 13.7909 205.096 15.3117 186.63 16.398L136.729 18.2311" stroke="url(#paint5_linear_205_5332)" stroke-width="2.03678"/>
</g>
<g filter="url(#filter11_f_205_5332)">
<path d="M-51.0625 30.0441C-29.6764 30.8589 -1.97622 32.2845 41.4071 32.2845C72.8058 32.2845 157.3 29.2294 190.499 29.6367C223.698 30.0441 277.877 31.0627 302.522 26.378" stroke="#CE9F6D" stroke-width="0.407355"/>
</g>
<path d="M-30.2871 25.5618C-8.90097 26.3766 -0.550194 24.5435 42.8331 24.5435C74.2318 24.5435 156.688 19.707 189.888 20.064C227.772 20.4713 313.928 19.0455 315.15 16.6014" stroke="#CE9F6D" stroke-width="0.407355"/>
<path d="M-30.2871 28.4135C-8.90097 29.2283 -0.550194 27.3951 42.8331 27.3951C74.2318 27.3951 156.688 22.5587 189.888 22.9157C227.772 23.323 313.928 21.8972 315.15 19.4531" stroke="#CE9F6D" stroke-width="0.407355"/>
<path d="M-31.916 29.4328C-10.5299 30.2476 -19.4917 29.0255 23.8916 29.0255C55.2904 29.0255 146.709 24.7986 179.909 25.1556C217.793 25.5629 313.928 23.5262 315.15 21.082" stroke="#CE9F6D" stroke-width="0.407355"/>
<g filter="url(#filter12_f_205_5332)">
<path d="M272.99 25.9709C270.749 28.2114 268.673 28.6187 265.861 28.6187C263.049 28.6187 260.973 28.0443 260.973 26.582C260.973 25.1196 266.511 23.7305 269.323 23.7305C272.136 23.7305 274.415 24.5452 272.99 25.9709Z" fill="url(#paint6_radial_205_5332)"/>
</g>
<g opacity="0.6" filter="url(#filter13_f_205_5332)">
<path d="M302.522 13.5461C293.967 15.1757 288.061 17.0086 261.383 15.583C219.218 13.5461 208.83 13.7865 208.83 12.3242C208.83 10.8619 264.634 9.88007 280.454 9.88007C296.275 9.88007 310.524 12.0216 302.522 13.5461Z" fill="url(#paint7_radial_205_5332)"/>
</g>
<g filter="url(#filter14_f_205_5332)">
<path d="M274.269 25.8269C273.169 26.9278 272.116 27.5711 270.999 27.9417C269.879 28.3134 268.683 28.4151 267.285 28.4151C265.887 28.4151 264.694 28.2717 263.858 27.958C263.02 27.644 262.6 27.1875 262.6 26.582C262.6 26.4663 262.655 26.3307 262.793 26.1743C262.93 26.0181 263.138 25.8565 263.41 25.6944C263.953 25.3705 264.716 25.0655 265.577 24.8026C267.299 24.2769 269.366 23.9341 270.747 23.9341C272.144 23.9341 273.377 24.1378 274.077 24.4972C274.429 24.6782 274.6 24.8745 274.638 25.0606C274.675 25.2388 274.606 25.4907 274.269 25.8269Z" stroke="url(#paint8_radial_205_5332)" stroke-width="0.407355"/>
</g>
</g>
</g>
<path d="M1.00013 13H281L280 14H-6.40121e-07L1.00013 13Z" fill="#E9D0B1"/>
<defs>
<filter id="filter0_f_205_5332" x="112.23" y="-138.86" width="306.63" height="330.56" filterUnits="userSpaceOnUse" color-interpolation-filters="sRGB">
<feFlood flood-opacity="0" result="BackgroundImageFix"/>
<feBlend mode="normal" in="SourceGraphic" in2="BackgroundImageFix" result="shape"/>
<feGaussianBlur stdDeviation="0.305516" result="effect1_foregroundBlur_205_5332"/>
</filter>
<filter id="filter1_f_205_5332" x="157.861" y="-2.55682" width="136.373" height="143.98" filterUnits="userSpaceOnUse" color-interpolation-filters="sRGB">
<feFlood flood-opacity="0" result="BackgroundImageFix"/>
<feBlend mode="normal" in="SourceGraphic" in2="BackgroundImageFix" result="shape"/>
<feGaussianBlur stdDeviation="0.407355" result="effect1_foregroundBlur_205_5332"/>
</filter>
<filter id="filter2_f_205_5332" x="112.026" y="-44.0501" width="222.457" height="235.953" filterUnits="userSpaceOnUse" color-interpolation-filters="sRGB">
<feFlood flood-opacity="0" result="BackgroundImageFix"/>
<feBlend mode="normal" in="SourceGraphic" in2="BackgroundImageFix" result="shape"/>
<feGaussianBlur stdDeviation="0.407355" result="effect1_foregroundBlur_205_5332"/>
</filter>
<filter id="filter3_f_205_5332" x="281.514" y="-113.458" width="121.522" height="129.103" filterUnits="userSpaceOnUse" color-interpolation-filters="sRGB">
<feFlood flood-opacity="0" result="BackgroundImageFix"/>
<feBlend mode="normal" in="SourceGraphic" in2="BackgroundImageFix" result="shape"/>
<feGaussianBlur stdDeviation="0.407355" result="effect1_foregroundBlur_205_5332"/>
</filter>
<filter id="filter4_f_205_5332" x="148.854" y="-96.2362" width="251.653" height="255.699" filterUnits="userSpaceOnUse" color-interpolation-filters="sRGB">
<feFlood flood-opacity="0" result="BackgroundImageFix"/>
<feBlend mode="normal" in="SourceGraphic" in2="BackgroundImageFix" result="shape"/>
<feGaussianBlur stdDeviation="0.407355" result="effect1_foregroundBlur_205_5332"/>
</filter>
<filter id="filter5_f_205_5332" x="148.983" y="-70.8263" width="245.771" height="246.179" filterUnits="userSpaceOnUse" color-interpolation-filters="sRGB">
<feFlood flood-opacity="0" result="BackgroundImageFix"/>
<feBlend mode="normal" in="SourceGraphic" in2="BackgroundImageFix" result="shape"/>
<feGaussianBlur stdDeviation="0.407355" result="effect1_foregroundBlur_205_5332"/>
</filter>
<filter id="filter6_f_205_5332" x="146.796" y="-70.7098" width="248.055" height="250.301" filterUnits="userSpaceOnUse" color-interpolation-filters="sRGB">
<feFlood flood-opacity="0" result="BackgroundImageFix"/>
<feBlend mode="normal" in="SourceGraphic" in2="BackgroundImageFix" result="shape"/>
<feGaussianBlur stdDeviation="0.407355" result="effect1_foregroundBlur_205_5332"/>
</filter>
<filter id="filter7_f_205_5332" x="-103.712" y="-0.639902" width="433.407" height="56.0389" filterUnits="userSpaceOnUse" color-interpolation-filters="sRGB">
<feFlood flood-opacity="0" result="BackgroundImageFix"/>
<feBlend mode="normal" in="SourceGraphic" in2="BackgroundImageFix" result="shape"/>
<feGaussianBlur stdDeviation="0.305516" result="effect1_foregroundBlur_205_5332"/>
</filter>
<filter id="filter8_f_205_5332" x="-39.0452" y="7.43627" width="192.272" height="14.6648" filterUnits="userSpaceOnUse" color-interpolation-filters="sRGB">
<feFlood flood-opacity="0" result="BackgroundImageFix"/>
<feBlend mode="normal" in="SourceGraphic" in2="BackgroundImageFix" result="shape"/>
<feGaussianBlur stdDeviation="0.407355" result="effect1_foregroundBlur_205_5332"/>
</filter>
<filter id="filter9_f_205_5332" x="-103.915" y="1.93587" width="314.075" height="24.8495" filterUnits="userSpaceOnUse" color-interpolation-filters="sRGB">
<feFlood flood-opacity="0" result="BackgroundImageFix"/>
<feBlend mode="normal" in="SourceGraphic" in2="BackgroundImageFix" result="shape"/>
<feGaussianBlur stdDeviation="0.407355" result="effect1_foregroundBlur_205_5332"/>
</filter>
<filter id="filter10_f_205_5332" x="135.876" y="6.82495" width="171.238" height="13.2386" filterUnits="userSpaceOnUse" color-interpolation-filters="sRGB">
<feFlood flood-opacity="0" result="BackgroundImageFix"/>
<feBlend mode="normal" in="SourceGraphic" in2="BackgroundImageFix" result="shape"/>
<feGaussianBlur stdDeviation="0.407355" result="effect1_foregroundBlur_205_5332"/>
</filter>
<filter id="filter11_f_205_5332" x="-51.885" y="25.3632" width="355.259" height="7.93974" filterUnits="userSpaceOnUse" color-interpolation-filters="sRGB">
<feFlood flood-opacity="0" result="BackgroundImageFix"/>
<feBlend mode="normal" in="SourceGraphic" in2="BackgroundImageFix" result="shape"/>
<feGaussianBlur stdDeviation="0.407355" result="effect1_foregroundBlur_205_5332"/>
</filter>
<filter id="filter12_f_205_5332" x="260.158" y="22.9158" width="14.084" height="6.51768" filterUnits="userSpaceOnUse" color-interpolation-filters="sRGB">
<feFlood flood-opacity="0" result="BackgroundImageFix"/>
<feBlend mode="normal" in="SourceGraphic" in2="BackgroundImageFix" result="shape"/>
<feGaussianBlur stdDeviation="0.407355" result="effect1_foregroundBlur_205_5332"/>
</filter>
<filter id="filter13_f_205_5332" x="208.015" y="9.06536" width="97.6182" height="7.84474" filterUnits="userSpaceOnUse" color-interpolation-filters="sRGB">
<feFlood flood-opacity="0" result="BackgroundImageFix"/>
<feBlend mode="normal" in="SourceGraphic" in2="BackgroundImageFix" result="shape"/>
<feGaussianBlur stdDeviation="0.407355" result="effect1_foregroundBlur_205_5332"/>
</filter>
<filter id="filter14_f_205_5332" x="261.582" y="22.9158" width="14.084" height="6.51768" filterUnits="userSpaceOnUse" color-interpolation-filters="sRGB">
<feFlood flood-opacity="0" result="BackgroundImageFix"/>
<feBlend mode="normal" in="SourceGraphic" in2="BackgroundImageFix" result="shape"/>
<feGaussianBlur stdDeviation="0.407355" result="effect1_foregroundBlur_205_5332"/>
</filter>
<linearGradient id="paint0_linear_205_5332" x1="246.837" y1="43.4111" x2="303.353" y2="41.9789" gradientUnits="userSpaceOnUse">
<stop stop-color="#CE9F6D"/>
<stop offset="1" stop-color="#CE9F6D" stop-opacity="0"/>
</linearGradient>
<linearGradient id="paint1_linear_205_5332" x1="430.852" y1="-152.103" x2="283.879" y2="-140.867" gradientUnits="userSpaceOnUse">
<stop stop-color="#CE9F6D"/>
<stop offset="1" stop-color="#CE9F6D" stop-opacity="0"/>
</linearGradient>
<linearGradient id="paint2_linear_205_5332" x1="308.854" y1="16.4834" x2="420.712" y2="2.11677" gradientUnits="userSpaceOnUse">
<stop stop-color="#CE9F6D"/>
<stop offset="1" stop-color="#CE9F6D" stop-opacity="0"/>
</linearGradient>
<linearGradient id="paint3_linear_205_5332" x1="10.2456" y1="12.7321" x2="28.5766" y2="12.5284" gradientUnits="userSpaceOnUse">
<stop stop-color="#CE9F6D"/>
<stop offset="1" stop-color="#CE9F6D" stop-opacity="0"/>
</linearGradient>
<linearGradient id="paint4_linear_205_5332" x1="86.5535" y1="12.3245" x2="164.51" y2="10.482" gradientUnits="userSpaceOnUse">
<stop stop-color="#CE9F6D"/>
<stop offset="1" stop-color="#CE9F6D" stop-opacity="0"/>
</linearGradient>
<linearGradient id="paint5_linear_205_5332" x1="346.924" y1="0.9183" x2="154.254" y2="18.1923" gradientUnits="userSpaceOnUse">
<stop stop-color="#CE9F6D"/>
<stop offset="1" stop-color="#CE9F6D" stop-opacity="0"/>
</linearGradient>
<radialGradient id="paint6_radial_205_5332" cx="0" cy="0" r="1" gradientUnits="userSpaceOnUse" gradientTransform="translate(270.342 26.582) rotate(90) scale(2.03678 5.61157)">
<stop stop-color="#CE9F6D" stop-opacity="0"/>
<stop offset="0.734375" stop-color="#CE9F6D"/>
<stop offset="1" stop-color="#CE9F6D" stop-opacity="0.4"/>
</radialGradient>
<radialGradient id="paint7_radial_205_5332" cx="0" cy="0" r="1" gradientUnits="userSpaceOnUse" gradientTransform="translate(286.591 13.5463) rotate(90) scale(2.03678 31.5693)">
<stop stop-color="#CE9F6D" stop-opacity="0"/>
<stop offset="0.734375" stop-color="#CE9F6D"/>
<stop offset="1" stop-color="#CE9F6D" stop-opacity="0.4"/>
</radialGradient>
<radialGradient id="paint8_radial_205_5332" cx="0" cy="0" r="1" gradientUnits="userSpaceOnUse" gradientTransform="translate(271.766 26.582) rotate(90) scale(2.03678 5.61157)">
<stop stop-color="#CE9F6D" stop-opacity="0"/>
<stop offset="0.734375" stop-color="#CE9F6D"/>
<stop offset="1" stop-color="#CE9F6D" stop-opacity="0.4"/>
</radialGradient>
</defs>
</svg>
