<svg width="24" height="24" viewBox="0 0 24 24" fill="none" xmlns="http://www.w3.org/2000/svg">
<path fill-rule="evenodd" clip-rule="evenodd" d="M6 7C6 5.34315 7.34315 4 9 4H13C13.6491 4 14.2807 4.21053 14.8 4.6L16.8 6.1C17.5554 6.66656 18 7.55573 18 8.5V17C18 18.6569 16.6569 20 15 20H9C7.34315 20 6 18.6569 6 17V7ZM8.35 13C8.35 12.641 8.64102 12.35 9 12.35H12.5556C12.9145 12.35 13.2056 12.641 13.2056 13C13.2056 13.359 12.9145 13.65 12.5556 13.65H9C8.64102 13.65 8.35 13.359 8.35 13ZM9 15.35C8.64102 15.35 8.35 15.641 8.35 16C8.35 16.359 8.64102 16.65 9 16.65H15C15.359 16.65 15.65 16.359 15.65 16C15.65 15.641 15.359 15.35 15 15.35H9Z" fill="white"/>
</svg>
