<svg width="24" height="24" viewBox="0 0 24 24" fill="none" xmlns="http://www.w3.org/2000/svg">
<path opacity="0.4" d="M3.71101 11.3408H12.189C12.5812 11.3408 12.8995 11.6591 12.8995 12.0513C12.8995 12.4435 12.5812 12.7618 12.189 12.7618H3.71101C3.3188 12.7618 3.00049 12.4435 3.00049 12.0513C3.00049 11.6591 3.3188 11.3408 3.71101 11.3408Z" fill="#6BF8C5"/>
<mask id="mask0_188_4313" style="mask-type:luminance" maskUnits="userSpaceOnUse" x="11" y="6" width="10" height="12">
<path fill-rule="evenodd" clip-rule="evenodd" d="M11.4785 17.4998V6.60337H20.418V17.4998H11.4785Z" fill="white"/>
</mask>
<g mask="url(#mask0_188_4313)">
<path d="M12.189 6.60309C12.3217 6.60309 12.4524 6.64003 12.568 6.71203L20.0863 11.4498C20.2928 11.5806 20.4188 11.807 20.4188 12.0514C20.4188 12.2958 20.2928 12.5222 20.0863 12.653L12.568 17.3908C12.3491 17.5281 12.0725 17.5367 11.8461 17.4107C11.6187 17.2856 11.4785 17.0478 11.4785 16.7892V7.31361C11.4785 7.05498 11.6187 6.81719 11.8461 6.69214C11.9531 6.63245 12.0716 6.60309 12.189 6.60309Z" fill="#6BF8C5"/>
</g>
</svg>
