<svg width="280" height="415" viewBox="0 0 280 415" fill="none" xmlns="http://www.w3.org/2000/svg">
<g filter="url(#filter0_d_6_64747)">
<path d="M134.721 221.663C134.721 218.919 136.946 216.695 139.689 216.695C142.433 216.695 144.658 218.919 144.658 221.663V280.026C144.658 282.77 142.433 284.994 139.689 284.994C136.946 284.994 134.721 282.77 134.721 280.026V221.663Z" fill="url(#paint0_linear_6_64747)" shape-rendering="crispEdges"/>
</g>
<g filter="url(#filter1_f_6_64747)">
<path d="M137.701 219.178C137.412 220.611 137.007 224.724 137.701 227.132C138.569 230.142 137.701 231.001 137.701 233.581C137.701 236.161 138.197 237.021 138.197 239.6C138.197 242.18 137.205 245.189 137.205 247.124C137.205 249.059 137.206 256.153 137.701 258.302C138.197 260.452 137.701 260.882 137.701 263.247C137.701 265.611 137.205 268.406 137.205 270.34C137.205 272.275 137.206 275.285 137.701 276.36C138.197 277.434 140.676 279.154 140.676 277.434C140.676 275.715 140.676 274.21 140.676 270.985C140.676 267.761 139.932 268.836 140.056 265.611C140.18 262.387 141.544 261.742 141.296 258.302C141.048 254.863 139.684 252.713 140.056 250.134C140.428 247.554 140.056 248.629 140.676 243.255C141.296 237.88 141.916 237.236 141.296 234.871C140.676 232.506 139.437 232.076 140.056 228.422C140.676 224.767 140.676 221.543 140.676 220.683C140.676 219.995 140.511 219.393 140.428 219.178" stroke="url(#paint1_angular_6_64747)" stroke-width="1.14801"/>
</g>
<path fill-rule="evenodd" clip-rule="evenodd" d="M134.73 202.547C134.883 202.126 137.045 201.793 139.689 201.793C142.385 201.793 144.579 202.139 144.655 202.571L144.658 202.571V225.204V225.204C144.657 225.561 142.433 225.851 139.689 225.851C136.946 225.851 134.722 225.561 134.721 225.204V225.204V202.595V202.547L134.73 202.547Z" fill="#321E04"/>
<path fill-rule="evenodd" clip-rule="evenodd" d="M134.73 202.547C134.883 202.126 137.045 201.793 139.689 201.793C142.385 201.793 144.579 202.139 144.655 202.571L144.658 202.571V225.204V225.204C144.657 225.561 142.433 225.851 139.689 225.851C136.946 225.851 134.722 225.561 134.721 225.204V225.204V202.595V202.547L134.73 202.547Z" fill="url(#paint2_linear_6_64747)" fill-opacity="0.9"/>
<path d="M144.526 202.595L144.526 202.595L144.526 202.597C144.525 202.598 144.524 202.602 144.521 202.607C144.514 202.617 144.501 202.633 144.475 202.653C144.424 202.694 144.341 202.738 144.22 202.784C143.981 202.875 143.628 202.96 143.181 203.032C142.291 203.176 141.057 203.265 139.689 203.265C138.322 203.265 137.088 203.176 136.197 203.032C135.751 202.96 135.398 202.875 135.159 202.784C135.038 202.738 134.955 202.694 134.904 202.653C134.878 202.633 134.865 202.617 134.858 202.607C134.855 202.602 134.854 202.598 134.853 202.597L134.853 202.595L134.853 202.595L134.853 202.594L134.853 202.593C134.854 202.591 134.855 202.588 134.858 202.583C134.865 202.572 134.878 202.556 134.904 202.536C134.955 202.496 135.038 202.451 135.159 202.405C135.398 202.314 135.751 202.229 136.197 202.157C137.088 202.014 138.322 201.924 139.689 201.924C141.057 201.924 142.291 202.014 143.181 202.157C143.628 202.229 143.981 202.314 144.22 202.405C144.341 202.451 144.424 202.496 144.475 202.536C144.501 202.556 144.514 202.572 144.521 202.583C144.524 202.588 144.525 202.591 144.526 202.593L144.526 202.594L144.526 202.595Z" fill="#E9E9E9" stroke="#DCDCDC" stroke-width="0.262367"/>
<g style="mix-blend-mode:multiply">
<mask id="mask0_6_64747" style="mask-type:alpha" maskUnits="userSpaceOnUse" x="134" y="202" width="11" height="24">
<path fill-rule="evenodd" clip-rule="evenodd" d="M144.658 202.438L134.721 202.414V225.071C134.721 225.071 134.721 225.071 134.721 225.071C134.722 225.429 136.946 225.718 139.689 225.718C142.433 225.718 144.657 225.429 144.658 225.071C144.658 225.071 144.658 225.071 144.658 225.071V202.438Z" fill="#C2A074"/>
<path fill-rule="evenodd" clip-rule="evenodd" d="M144.658 202.438L134.721 202.414V225.071C134.721 225.071 134.721 225.071 134.721 225.071C134.722 225.429 136.946 225.718 139.689 225.718C142.433 225.718 144.657 225.429 144.658 225.071C144.658 225.071 144.658 225.071 144.658 225.071V202.438Z" fill="url(#paint3_linear_6_64747)" fill-opacity="0.6"/>
</mask>
<g mask="url(#mask0_6_64747)">
<g filter="url(#filter2_f_6_64747)">
<g filter="url(#filter3_f_6_64747)">
<path d="M139.482 204.504C141.24 222.964 142.819 148.484 143.389 114.238L135.575 100.502C136.145 123.944 137.724 186.044 139.482 204.504Z" stroke="#CE9F6D" stroke-width="0.149736"/>
</g>
<path d="M141.436 190.903C141.436 201.505 141.38 225.207 141.157 231.011C140.878 238.265 140.669 240.916 139.901 240.218C139.134 239.521 137.669 231.918 138.785 225.291C139.678 219.99 139.157 206.016 138.785 199.692L138.157 182.602" stroke="#CE9F6D" stroke-width="0.149736"/>
<g opacity="0.4" filter="url(#filter4_f_6_64747)">
<path d="M141.436 190.903C141.436 201.505 141.38 225.207 141.157 231.011C140.878 238.265 140.669 240.916 139.901 240.218C139.134 239.521 137.669 231.918 138.785 225.291C139.678 219.99 139.157 206.016 138.785 199.692L138.157 182.602" stroke="url(#paint4_linear_6_64747)" stroke-width="0.748682"/>
</g>
<g filter="url(#filter5_f_6_64747)">
<path d="M134.111 118.29C133.832 125.614 133.344 135.1 133.344 149.958C133.344 160.711 134.39 189.647 134.25 201.017C134.111 212.387 133.762 230.941 135.367 239.381" stroke="#CE9F6D" stroke-width="0.149736"/>
</g>
<path d="M135.646 125.405C135.367 132.729 135.995 135.588 135.995 150.446C135.995 161.199 137.652 189.438 137.53 200.808C137.39 213.782 137.878 243.287 138.716 243.706" stroke="#CE9F6D" stroke-width="0.149736"/>
<path d="M134.67 125.405C134.391 132.729 135.019 135.588 135.019 150.446C135.019 161.199 136.675 189.438 136.553 200.808C136.414 213.782 136.902 243.287 137.739 243.706" stroke="#CE9F6D" stroke-width="0.149736"/>
<path d="M134.321 124.846C134.042 132.17 134.46 129.101 134.46 143.958C134.46 154.712 135.908 186.019 135.786 197.389C135.646 210.363 136.344 243.287 137.181 243.705" stroke="#CE9F6D" stroke-width="0.149736"/>
<path d="M144.157 134.263C144.297 141.889 144.492 160.169 144.157 172.278C143.739 187.415 143.529 205.271 143.599 210.433C143.669 215.595 144.855 245.658 143.599 248.449" stroke="#CE9F6D" stroke-width="0.149736"/>
<path d="M143.46 133.984C143.599 141.61 143.795 159.89 143.46 171.999C143.041 187.136 142.832 204.992 142.902 210.154C142.972 215.316 144.158 245.379 142.902 248.17" stroke="#CE9F6D" stroke-width="0.149736"/>
<g filter="url(#filter6_f_6_64747)">
<path d="M135.507 229.266C134.739 228.499 134.6 227.788 134.6 226.825C134.6 225.862 134.796 225.151 135.297 225.151C135.798 225.151 136.274 227.048 136.274 228.011C136.274 228.974 135.995 229.755 135.507 229.266Z" fill="url(#paint5_radial_6_64747)"/>
</g>
<g opacity="0.6" filter="url(#filter7_f_6_64747)">
<path d="M139.762 239.381C139.204 236.451 138.576 234.428 139.064 225.292C139.762 210.852 139.68 207.294 140.18 207.294C140.681 207.294 141.018 226.405 141.018 231.824C141.018 237.242 140.284 242.122 139.762 239.381Z" fill="url(#paint6_radial_6_64747)"/>
</g>
<g filter="url(#filter8_f_6_64747)">
<path d="M135.559 229.702C135.183 229.325 134.963 228.966 134.836 228.584C134.709 228.201 134.674 227.792 134.674 227.314C134.674 226.835 134.724 226.427 134.831 226.142C134.938 225.856 135.093 225.714 135.297 225.714C135.335 225.714 135.38 225.732 135.433 225.779C135.486 225.826 135.541 225.896 135.597 225.989C135.707 226.175 135.812 226.436 135.902 226.73C136.082 227.319 136.199 228.027 136.199 228.499C136.199 228.977 136.129 229.399 136.007 229.637C135.945 229.757 135.879 229.814 135.817 229.827C135.759 229.839 135.674 229.817 135.559 229.702Z" stroke="url(#paint7_radial_6_64747)" stroke-width="0.149736"/>
</g>
</g>
</g>
</g>
<ellipse cx="139.689" cy="202.595" rx="4.96803" ry="0.801636" fill="#6A5C4B"/>
<ellipse cx="139.689" cy="202.595" rx="4.96803" ry="0.801636" fill="url(#paint8_linear_6_64747)" fill-opacity="0.16"/>
<path fill-rule="evenodd" clip-rule="evenodd" d="M140.932 0H138.448V202.414C138.448 202.585 139.004 202.724 139.69 202.724C140.375 202.724 140.932 202.585 140.932 202.414V0Z" fill="#484139"/>
<path fill-rule="evenodd" clip-rule="evenodd" d="M140.932 0H138.448V202.414C138.448 202.585 139.004 202.724 139.69 202.724C140.375 202.724 140.932 202.585 140.932 202.414V0Z" fill="url(#paint9_linear_6_64747)" fill-opacity="0.24"/>
<g opacity="0.24" filter="url(#filter9_f_6_64747)">
<ellipse cx="139.689" cy="220.731" rx="4.96803" ry="0.931351" fill="url(#paint10_linear_6_64747)"/>
</g>
<g filter="url(#filter10_b_6_64747)">
<path d="M132.271 220.908C132.502 219.984 134.032 219.025 134.983 219.083C135.912 219.14 137.224 219.178 139.068 219.178C141.586 219.178 143.288 219.107 144.439 219.014C145.173 218.954 147.044 220.264 147.136 220.995V220.995C147.14 221.026 147.142 221.056 147.131 221.085C147.046 221.306 146.298 222.283 139.689 222.283C133.69 222.283 132.521 221.478 132.293 221.164C132.239 221.09 132.249 220.996 132.271 220.908V220.908Z" fill="url(#paint11_linear_6_64747)" fill-opacity="0.8"/>
</g>
<g filter="url(#filter11_b_6_64747)">
<path fill-rule="evenodd" clip-rule="evenodd" d="M140 221.041C130.568 221.041 122.922 228.687 122.922 238.119V282.197C122.922 288.833 126.708 294.586 132.237 297.412V300.74V300.827H132.243C132.4 302.035 135.813 303 140 303C144.187 303 147.6 302.035 147.757 300.827H147.763V300.74V297.412C153.292 294.586 157.078 288.833 157.078 282.197V238.119C157.078 228.687 149.432 221.041 140 221.041Z" fill="url(#paint12_linear_6_64747)"/>
</g>
<mask id="mask1_6_64747" style="mask-type:alpha" maskUnits="userSpaceOnUse" x="122" y="221" width="36" height="79">
<path d="M122.922 237.041C122.922 228.204 130.086 221.041 138.922 221.041H140H141.078C149.914 221.041 157.078 228.204 157.078 237.041V283.275C157.078 292.111 149.914 299.275 141.078 299.275H138.922C130.086 299.275 122.922 292.111 122.922 283.275V237.041Z" fill="url(#paint13_linear_6_64747)" fill-opacity="0.7"/>
</mask>
<g mask="url(#mask1_6_64747)">
<g filter="url(#filter12_f_6_64747)">
<path d="M141.992 292.525C144.149 292.481 145.933 294.193 145.978 296.35L146.094 301.97C146.127 303.569 144.171 304.367 143.076 303.201L142.924 303.04C141.026 301.02 137.783 301.129 136.025 303.273V303.273C135.039 304.476 133.087 303.801 133.055 302.246L132.937 296.507C132.894 294.412 134.557 292.679 136.653 292.635L141.992 292.525Z" fill="white" fill-opacity="0.7"/>
</g>
<g filter="url(#filter13_f_6_64747)">
<path d="M129.312 236.432C129.312 235.478 130.085 234.704 131.04 234.704V234.704C132.035 234.704 132.825 235.544 132.764 236.538L130.996 265.436L132.758 292.744C132.822 293.738 132.033 294.58 131.037 294.58V294.58C130.084 294.58 129.312 293.807 129.312 292.855V236.432Z" fill="white"/>
</g>
<g filter="url(#filter14_f_6_64747)">
<path d="M150.247 229.607C150.247 228.648 151.024 227.871 151.983 227.871V227.871C153.035 227.871 153.845 228.8 153.702 229.843L152.474 238.801C152.164 241.063 152.173 243.359 152.499 245.619L153.687 253.835C153.838 254.878 153.029 255.811 151.976 255.811V255.811C151.021 255.811 150.247 255.037 150.247 254.082V229.607Z" fill="white"/>
</g>
</g>
<g opacity="0.24" filter="url(#filter15_f_6_64747)">
<ellipse cx="140" cy="253.017" rx="68" ry="89.7203" fill="url(#paint14_linear_6_64747)"/>
</g>
<ellipse opacity="0.48" cx="140.31" cy="230.665" rx="17.3881" ry="2.79406" fill="url(#paint15_linear_6_64747)"/>
<ellipse opacity="0.8" cx="140.31" cy="289.651" rx="17.3881" ry="2.79405" fill="url(#paint16_linear_6_64747)"/>
<defs>
<filter id="filter0_d_6_64747" x="113.721" y="203.695" width="45.936" height="104.299" filterUnits="userSpaceOnUse" color-interpolation-filters="sRGB">
<feFlood flood-opacity="0" result="BackgroundImageFix"/>
<feColorMatrix in="SourceAlpha" type="matrix" values="0 0 0 0 0 0 0 0 0 0 0 0 0 0 0 0 0 0 127 0" result="hardAlpha"/>
<feOffset dx="-3" dy="5"/>
<feGaussianBlur stdDeviation="9"/>
<feComposite in2="hardAlpha" operator="out"/>
<feColorMatrix type="matrix" values="0 0 0 0 1 0 0 0 0 1 0 0 0 0 1 0 0 0 0.45 0"/>
<feBlend mode="normal" in2="BackgroundImageFix" result="effect1_dropShadow_6_64747"/>
<feBlend mode="normal" in="SourceGraphic" in2="effect1_dropShadow_6_64747" result="shape"/>
</filter>
<filter id="filter1_f_6_64747" x="133.131" y="215.472" width="12.495" height="66.7656" filterUnits="userSpaceOnUse" color-interpolation-filters="sRGB">
<feFlood flood-opacity="0" result="BackgroundImageFix"/>
<feBlend mode="normal" in="SourceGraphic" in2="BackgroundImageFix" result="shape"/>
<feGaussianBlur stdDeviation="1.75" result="effect1_foregroundBlur_6_64747"/>
</filter>
<filter id="filter2_f_6_64747" x="125.406" y="100.241" width="19.2351" height="148.463" filterUnits="userSpaceOnUse" color-interpolation-filters="sRGB">
<feFlood flood-opacity="0" result="BackgroundImageFix"/>
<feBlend mode="normal" in="SourceGraphic" in2="BackgroundImageFix" result="shape"/>
<feGaussianBlur stdDeviation="0.112302" result="effect1_foregroundBlur_6_64747"/>
</filter>
<filter id="filter3_f_6_64747" x="135.201" y="100.166" width="8.56257" height="107.609" filterUnits="userSpaceOnUse" color-interpolation-filters="sRGB">
<feFlood flood-opacity="0" result="BackgroundImageFix"/>
<feBlend mode="normal" in="SourceGraphic" in2="BackgroundImageFix" result="shape"/>
<feGaussianBlur stdDeviation="0.149736" result="effect1_foregroundBlur_6_64747"/>
</filter>
<filter id="filter4_f_6_64747" x="137.483" y="182.289" width="4.62641" height="58.7111" filterUnits="userSpaceOnUse" color-interpolation-filters="sRGB">
<feFlood flood-opacity="0" result="BackgroundImageFix"/>
<feBlend mode="normal" in="SourceGraphic" in2="BackgroundImageFix" result="shape"/>
<feGaussianBlur stdDeviation="0.149736" result="effect1_foregroundBlur_6_64747"/>
</filter>
<filter id="filter5_f_6_64747" x="132.969" y="117.987" width="2.77058" height="121.707" filterUnits="userSpaceOnUse" color-interpolation-filters="sRGB">
<feFlood flood-opacity="0" result="BackgroundImageFix"/>
<feBlend mode="normal" in="SourceGraphic" in2="BackgroundImageFix" result="shape"/>
<feGaussianBlur stdDeviation="0.149736" result="effect1_foregroundBlur_6_64747"/>
</filter>
<filter id="filter6_f_6_64747" x="134.3" y="224.851" width="2.27326" height="4.86417" filterUnits="userSpaceOnUse" color-interpolation-filters="sRGB">
<feFlood flood-opacity="0" result="BackgroundImageFix"/>
<feBlend mode="normal" in="SourceGraphic" in2="BackgroundImageFix" result="shape"/>
<feGaussianBlur stdDeviation="0.149736" result="effect1_foregroundBlur_6_64747"/>
</filter>
<filter id="filter7_f_6_64747" x="138.589" y="206.995" width="2.72785" height="33.4721" filterUnits="userSpaceOnUse" color-interpolation-filters="sRGB">
<feFlood flood-opacity="0" result="BackgroundImageFix"/>
<feBlend mode="normal" in="SourceGraphic" in2="BackgroundImageFix" result="shape"/>
<feGaussianBlur stdDeviation="0.149736" result="effect1_foregroundBlur_6_64747"/>
</filter>
<filter id="filter8_f_6_64747" x="134.3" y="225.34" width="2.27326" height="4.86414" filterUnits="userSpaceOnUse" color-interpolation-filters="sRGB">
<feFlood flood-opacity="0" result="BackgroundImageFix"/>
<feBlend mode="normal" in="SourceGraphic" in2="BackgroundImageFix" result="shape"/>
<feGaussianBlur stdDeviation="0.149736" result="effect1_foregroundBlur_6_64747"/>
</filter>
<filter id="filter9_f_6_64747" x="130.721" y="215.799" width="17.936" height="9.8627" filterUnits="userSpaceOnUse" color-interpolation-filters="sRGB">
<feFlood flood-opacity="0" result="BackgroundImageFix"/>
<feBlend mode="normal" in="SourceGraphic" in2="BackgroundImageFix" result="shape"/>
<feGaussianBlur stdDeviation="2" result="effect1_foregroundBlur_6_64747"/>
</filter>
<filter id="filter10_b_6_64747" x="131.253" y="218.012" width="16.8859" height="5.27121" filterUnits="userSpaceOnUse" color-interpolation-filters="sRGB">
<feFlood flood-opacity="0" result="BackgroundImageFix"/>
<feGaussianBlur in="BackgroundImageFix" stdDeviation="0.5"/>
<feComposite in2="SourceAlpha" operator="in" result="effect1_backgroundBlur_6_64747"/>
<feBlend mode="normal" in="SourceGraphic" in2="effect1_backgroundBlur_6_64747" result="shape"/>
</filter>
<filter id="filter11_b_6_64747" x="122.422" y="220.541" width="35.1553" height="82.959" filterUnits="userSpaceOnUse" color-interpolation-filters="sRGB">
<feFlood flood-opacity="0" result="BackgroundImageFix"/>
<feGaussianBlur in="BackgroundImageFix" stdDeviation="0.25"/>
<feComposite in2="SourceAlpha" operator="in" result="effect1_backgroundBlur_6_64747"/>
<feBlend mode="normal" in="SourceGraphic" in2="effect1_backgroundBlur_6_64747" result="shape"/>
</filter>
<filter id="filter12_f_6_64747" x="126.886" y="286.474" width="25.2578" height="23.4648" filterUnits="userSpaceOnUse" color-interpolation-filters="sRGB">
<feFlood flood-opacity="0" result="BackgroundImageFix"/>
<feBlend mode="normal" in="SourceGraphic" in2="BackgroundImageFix" result="shape"/>
<feGaussianBlur stdDeviation="3.025" result="effect1_foregroundBlur_6_64747"/>
</filter>
<filter id="filter13_f_6_64747" x="123.262" y="228.654" width="15.5557" height="71.9751" filterUnits="userSpaceOnUse" color-interpolation-filters="sRGB">
<feFlood flood-opacity="0" result="BackgroundImageFix"/>
<feBlend mode="normal" in="SourceGraphic" in2="BackgroundImageFix" result="shape"/>
<feGaussianBlur stdDeviation="3.025" result="effect1_foregroundBlur_6_64747"/>
</filter>
<filter id="filter14_f_6_64747" x="146.247" y="223.871" width="11.4722" height="35.9406" filterUnits="userSpaceOnUse" color-interpolation-filters="sRGB">
<feFlood flood-opacity="0" result="BackgroundImageFix"/>
<feBlend mode="normal" in="SourceGraphic" in2="BackgroundImageFix" result="shape"/>
<feGaussianBlur stdDeviation="2" result="effect1_foregroundBlur_6_64747"/>
</filter>
<filter id="filter15_f_6_64747" x="0" y="91.2971" width="280" height="323.441" filterUnits="userSpaceOnUse" color-interpolation-filters="sRGB">
<feFlood flood-opacity="0" result="BackgroundImageFix"/>
<feBlend mode="normal" in="SourceGraphic" in2="BackgroundImageFix" result="shape"/>
<feGaussianBlur stdDeviation="36" result="effect1_foregroundBlur_6_64747"/>
</filter>
<linearGradient id="paint0_linear_6_64747" x1="139.62" y1="216.695" x2="139.757" y2="294.239" gradientUnits="userSpaceOnUse">
<stop stop-color="white"/>
<stop offset="1" stop-color="white" stop-opacity="0.62"/>
</linearGradient>
<radialGradient id="paint1_angular_6_64747" cx="0" cy="0" r="1" gradientUnits="userSpaceOnUse" gradientTransform="translate(139.314 248.671) rotate(90) scale(29.4928 1.22768)">
<stop offset="0.0729167" stop-color="#E3A455"/>
<stop offset="0.244792" stop-color="#F6DBA6"/>
<stop offset="0.434957" stop-color="#FFEBC4"/>
<stop offset="0.532623" stop-color="#F0BE79"/>
<stop offset="0.593311" stop-color="#DAAC7E"/>
<stop offset="0.627652" stop-color="#D98C5C"/>
<stop offset="0.708863" stop-color="#FAAC51"/>
<stop offset="0.773898" stop-color="#EEBC70"/>
<stop offset="0.921875" stop-color="#DE8B62"/>
</radialGradient>
<linearGradient id="paint2_linear_6_64747" x1="139.689" y1="226.008" x2="143.456" y2="192.279" gradientUnits="userSpaceOnUse">
<stop stop-color="#E1B594" stop-opacity="0.8"/>
<stop offset="0.451063" stop-color="#382513" stop-opacity="0.4"/>
<stop offset="0.8125" stop-color="#3C2513" stop-opacity="0.8"/>
</linearGradient>
<linearGradient id="paint3_linear_6_64747" x1="147.674" y1="205.88" x2="135.052" y2="203.155" gradientUnits="userSpaceOnUse">
<stop stop-color="#FCFCFC"/>
<stop offset="1" stop-color="#FFD1A7"/>
</linearGradient>
<linearGradient id="paint4_linear_6_64747" x1="144.087" y1="254.587" x2="138.172" y2="188.604" gradientUnits="userSpaceOnUse">
<stop stop-color="#CE9F6D"/>
<stop offset="1" stop-color="#CE9F6D" stop-opacity="0"/>
</linearGradient>
<radialGradient id="paint5_radial_6_64747" cx="0" cy="0" r="1" gradientUnits="userSpaceOnUse" gradientTransform="translate(135.297 228.359) rotate(180) scale(0.697646 1.92179)">
<stop stop-color="#CE9F6D" stop-opacity="0"/>
<stop offset="0.734375" stop-color="#CE9F6D"/>
<stop offset="1" stop-color="#CE9F6D" stop-opacity="0.4"/>
</radialGradient>
<radialGradient id="paint6_radial_6_64747" cx="0" cy="0" r="1" gradientUnits="userSpaceOnUse" gradientTransform="translate(139.762 233.925) rotate(180) scale(0.697646 10.8115)">
<stop stop-color="#CE9F6D" stop-opacity="0"/>
<stop offset="0.734375" stop-color="#CE9F6D"/>
<stop offset="1" stop-color="#CE9F6D" stop-opacity="0.4"/>
</radialGradient>
<radialGradient id="paint7_radial_6_64747" cx="0" cy="0" r="1" gradientUnits="userSpaceOnUse" gradientTransform="translate(135.297 228.848) rotate(180) scale(0.697646 1.92178)">
<stop stop-color="#CE9F6D" stop-opacity="0"/>
<stop offset="0.734375" stop-color="#CE9F6D"/>
<stop offset="1" stop-color="#CE9F6D" stop-opacity="0.4"/>
</radialGradient>
<linearGradient id="paint8_linear_6_64747" x1="142.484" y1="201.793" x2="139.69" y2="203.397" gradientUnits="userSpaceOnUse">
<stop stop-color="white"/>
<stop offset="1" stop-color="white" stop-opacity="0"/>
</linearGradient>
<linearGradient id="paint9_linear_6_64747" x1="139.69" y1="0" x2="139.69" y2="202.724" gradientUnits="userSpaceOnUse">
<stop/>
<stop offset="1" stop-opacity="0"/>
</linearGradient>
<linearGradient id="paint10_linear_6_64747" x1="139.689" y1="220.498" x2="139.689" y2="222.36" gradientUnits="userSpaceOnUse">
<stop/>
<stop offset="1" stop-opacity="0"/>
</linearGradient>
<linearGradient id="paint11_linear_6_64747" x1="139.689" y1="218.557" x2="138.384" y2="224.907" gradientUnits="userSpaceOnUse">
<stop stop-color="white"/>
<stop offset="1" stop-color="white" stop-opacity="0"/>
</linearGradient>
<linearGradient id="paint12_linear_6_64747" x1="163.288" y1="226.319" x2="129.763" y2="304.246" gradientUnits="userSpaceOnUse">
<stop stop-color="#FAFAFA" stop-opacity="0.1"/>
<stop offset="1" stop-color="#DFDFDF" stop-opacity="0.89"/>
</linearGradient>
<linearGradient id="paint13_linear_6_64747" x1="155.598" y1="224.557" x2="131.408" y2="306.315" gradientUnits="userSpaceOnUse">
<stop stop-color="#FAFAFA" stop-opacity="0.1"/>
<stop offset="1" stop-color="#D0D0D0" stop-opacity="0.89"/>
</linearGradient>
<linearGradient id="paint14_linear_6_64747" x1="140" y1="214.462" x2="140" y2="515.146" gradientUnits="userSpaceOnUse">
<stop stop-color="#FFE0BC"/>
<stop offset="1" stop-color="#F9BE7A" stop-opacity="0"/>
</linearGradient>
<linearGradient id="paint15_linear_6_64747" x1="133.479" y1="247.429" x2="139.204" y2="234.352" gradientUnits="userSpaceOnUse">
<stop stop-color="#F9F9F9"/>
<stop offset="1" stop-color="white" stop-opacity="0"/>
</linearGradient>
<linearGradient id="paint16_linear_6_64747" x1="139.068" y1="295.704" x2="139.419" y2="291.259" gradientUnits="userSpaceOnUse">
<stop stop-color="#F9F9F9"/>
<stop offset="1" stop-color="white" stop-opacity="0"/>
</linearGradient>
</defs>
</svg>
