<svg width="452" height="452" viewBox="0 0 452 452" fill="none" xmlns="http://www.w3.org/2000/svg">
<rect width="452" height="452" fill="black"/>
<path d="M389.087 382.473C389.928 384.896 390.687 386.983 391.365 389.094C391.661 390.02 392.329 389.959 393.039 389.97C397.393 390.034 401.747 390.15 406.101 390.143C407.414 390.143 408.099 390.404 407.895 391.873C407.799 392.566 407.884 393.282 407.919 393.989C408.061 396.888 408.064 396.881 405.253 396.93C344.819 398.043 284.375 397.651 223.934 398.085C161.671 398.53 99.4081 399.07 37.1415 399.557C32.844 399.593 28.55 399.508 24.2525 399.561C23.1719 399.575 22.8188 399.275 22.8329 398.187C22.8541 396.249 22.7799 394.303 22.6351 392.368C22.5433 391.167 22.9918 390.849 24.1324 390.892C26.011 390.962 27.9002 390.849 29.7824 390.885C30.8453 390.906 31.2867 390.747 30.8347 389.508C26.5372 377.685 26.689 365.513 28.0803 353.252C29.5176 340.582 32.9111 328.495 38.6141 317.053C41.0718 312.124 42.5691 306.774 45.1363 301.805C42.7527 301.131 40.4291 300.573 38.1726 299.81C32.7769 297.985 30.6122 295.068 30.3792 289.368C30.1285 283.185 31.5374 277.221 33.0029 271.285C36.0362 259 41.3931 247.618 46.7995 236.265C50.4367 228.62 54.3034 221.095 58.9752 214.011C62.9867 207.927 68.3931 203.577 75.1166 200.826C75.7593 200.564 76.3949 200.398 76.5573 199.498C77.4649 194.452 80.3428 190.447 84.0683 187.245C86.466 185.186 87.0134 182.873 87.2464 180.048C87.7479 173.939 87.4371 167.816 87.8573 161.703C89.1957 142.267 100.457 129.54 119.674 126.055C123.668 125.331 127.683 124.759 131.768 125.229C132.097 125.268 132.475 125.165 132.785 125.031C140.713 121.602 148.139 123.195 155.124 127.542C163.211 132.574 167.395 140.042 167.755 149.541C167.925 154.023 169.186 158.345 169.207 162.854C169.242 170.513 167.618 177.911 166.163 185.348C166.106 185.638 166.064 185.927 165.976 186.21C164.786 190.108 165.778 192.933 169.334 195.359C175.634 199.657 176.774 206.119 175.715 213.217C175.333 215.774 174.984 218.337 174.578 220.89C174.352 222.324 174.723 223.401 176.047 224.146C182.979 228.048 183.84 235.965 182.279 241.354C181.245 244.931 179.917 248.392 176.958 250.913C176.403 251.386 176.386 251.824 177.007 252.149C178.406 252.876 178.512 254.105 178.444 255.525C186.044 244.634 193.011 233.359 201.292 222.458C199.837 222.458 198.7 222.49 197.566 222.451C194.24 222.342 192.908 221.003 192.795 217.652C192.69 214.478 192.785 211.303 192.566 208.125C192.446 206.363 191.87 205.529 190.083 205.18C185.38 204.258 182.053 201.606 180.803 196.839C179.401 191.489 181.619 187.008 186.658 184.67C190.281 182.989 190.246 182.993 189.819 178.988C189.515 176.125 189.349 173.243 189.077 170.376C188.922 168.741 189.649 167.791 191.199 167.441C193.269 166.975 195.359 166.647 197.489 166.647C201.489 166.647 205.494 166.64 209.495 166.71C210.561 166.728 211.642 166.001 212.712 166.802C213.143 167.123 213.566 167.36 213.693 167.957C214.562 172.145 217.126 175.252 220.463 177.625C223.856 180.037 228.684 178.748 230.912 175.122C232.165 173.084 232.808 170.842 232.971 168.451C233.098 166.548 233.747 166.004 235.683 166.159C239.002 166.424 242.342 166.071 245.665 166.77C245.369 163.751 244.126 161.71 241.41 160.63C240.22 160.156 239.129 159.415 238.041 158.719C235.916 157.36 234.274 157.776 233.101 160.012C232.501 161.156 231.943 162.339 231.208 163.391C227.716 168.388 221.388 168.702 217.327 164.129C215.282 161.827 214.11 159.048 213.383 156.134C212.913 154.256 212.027 153.818 210.194 153.874C205.61 154.012 201.027 154.475 196.436 154.03C192.796 153.673 191.439 152.338 191.507 148.754C191.609 143.107 191.853 137.465 192.004 131.818C192.043 130.356 192.312 129.731 194.053 130.346C198.068 131.765 203.696 129.752 205.628 126.433C209.096 120.479 204.788 112.393 197.923 111.962C196.44 111.87 194.985 112.047 193.565 112.47C191.69 113.025 191.132 112.686 190.617 110.779C190.218 109.303 190.557 107.851 190.677 106.393C190.987 102.643 191.355 98.8962 192.086 95.199C192.764 91.7737 193.195 91.3711 196.525 90.7213C207.397 88.6026 218.404 87.6209 229.432 86.8405C235.008 86.445 240.584 86.0742 246.153 85.6434C248.589 85.4562 249.698 86.2437 249.892 88.705C250.327 94.2137 250.669 99.7331 251.082 105.245C251.559 111.637 252.075 118.029 252.562 124.42C252.654 125.624 253.092 126.542 253.996 127.457C257.294 130.787 258.24 135.06 258.403 139.569C258.424 140.208 258.297 140.826 258.586 141.462C262.562 150.156 264.332 159.443 265.938 168.776C266.037 169.352 266.178 169.92 266.387 170.898C268.004 168.54 269.473 166.46 270.878 164.33C274.378 159.033 277.743 153.641 281.356 148.422C288.824 137.634 299.167 132.189 312.325 132.118C314.843 132.104 317.382 132.337 319.846 131.5C321.125 131.066 321.856 130.519 321.898 128.937C321.944 127.199 321.856 125.239 323.805 124.106C324.571 123.661 323.805 122.923 323.685 122.361C323.526 121.616 322.904 122.097 322.527 122.206C318.052 123.505 313.589 123.354 309.115 122.213C305.065 121.182 302.07 118.834 300.093 115.158C298.804 112.763 297.78 110.267 297.232 107.601C297.01 106.524 296.561 105.948 295.449 105.563C291.992 104.366 290.569 101.523 291.656 98.3665C292.211 96.7598 293.263 95.5803 294.898 95.1425C295.788 94.9023 295.943 94.5104 295.95 93.6982C295.986 89.7679 296.007 89.7679 292.168 90.3188C289.672 90.6754 286.367 90.4706 284.781 89.7397C287.8 89.2347 290.636 89.3901 293.337 88.6556C293.45 88.6238 293.584 88.6556 293.683 88.6061C294.329 88.2989 295.633 88.6026 295.544 87.7374C295.438 86.7063 294.277 87.3631 293.616 87.3631C290.586 87.3737 287.613 87.183 284.88 85.6893C281.748 83.9731 280.84 81.5719 282.284 78.3514C282.74 77.3379 282.267 77.0413 281.649 76.5222C277.952 73.4076 274.71 69.9399 273.594 65.0386C272.482 60.1442 273.781 55.9385 277.598 52.6333C281.847 48.9572 287.02 47.686 292.447 47.3541C299.492 46.9232 306.569 47.2163 313.614 46.5842C318.589 46.1358 323.554 45.4507 328.576 45.8391C339.028 46.6478 347.274 51.4044 352.765 60.2608C360.41 72.5848 361.459 85.8517 357.203 99.606C356.663 101.347 355.826 102.982 354.615 104.384C352.613 106.707 350.169 107.823 347.09 106.99C346.32 106.781 345.797 106.739 345.384 107.583C344.463 109.476 343.135 110.74 340.783 110.231C339.992 110.058 340.123 110.691 340.169 111.139C340.585 115.292 341.041 119.441 341.426 123.597C341.5 124.402 341.744 124.625 342.506 124.399C342.895 124.286 343.322 124.296 343.732 124.268C346.511 124.06 347.192 124.621 347.521 127.372C347.775 129.516 347.768 129.466 349.947 129.081C357.525 127.747 365.022 125.977 372.709 125.246C380.969 124.459 387.929 127.114 394.07 132.524C401.581 139.142 407.464 147.052 412.4 155.661C419.156 167.438 425.681 179.345 432.285 191.21C434.065 194.409 435.269 197.831 436.077 201.412C437.215 206.426 435.749 210.904 433.485 215.254C429.089 223.715 423.372 231.247 417.115 238.381C411.56 244.712 405.536 250.585 399.335 256.284C397.424 258.039 396.686 260.691 395.08 262.725C394.642 263.279 395.196 263.844 395.475 264.328C397.449 267.715 400.218 270.331 403.59 272.256C409.801 275.801 413.848 280.925 415.48 287.928C416.79 293.542 416.101 299.023 414.42 304.44C413.601 307.074 412.817 309.719 411.924 312.328C411.669 313.074 411.74 313.667 412.023 314.348C419.074 331.327 424.576 348.912 432.214 365.661C433.602 368.705 434.676 371.887 435.241 375.213C436.01 379.758 434.276 383.013 429.915 384.493C422.987 386.841 415.815 387.608 408.523 387.24C404.406 387.032 400.32 386.509 396.301 385.588C394.211 385.108 391.962 384.924 390.507 382.957C390.316 382.699 389.776 382.699 389.069 382.477L389.087 382.473ZM133.347 164.373C132.464 164.839 131.578 165.298 130.698 165.767C126.782 167.847 122.626 168.85 118.283 167.727C116.143 167.173 114.755 167.434 113.826 169.468C113.808 169.504 113.618 169.461 113.508 169.451C113.074 167.579 112.622 165.711 112.209 163.836C111.418 160.23 109.165 157.967 105.747 156.802C102.78 155.788 100.845 156.819 99.9413 159.828C98.384 165.015 101.537 170.358 107.371 171.901C109.031 172.339 109.698 173.18 110.147 174.567C110.274 174.959 110.433 175.337 110.577 175.722C112.926 181.884 116.778 186.747 122.728 189.801C125.313 191.129 128.018 191.609 130.921 191.171C136.366 190.356 140.865 187.725 144.82 184.056C146.155 182.82 147.712 181.616 148.496 180.058C149.213 178.639 149.926 178.325 151.363 178.169C153.719 177.911 155.212 175.726 155.032 173.335C154.859 171.04 153.69 169.984 150.88 169.853C149.894 169.807 150.025 169.288 150.071 168.713C150.226 166.777 150.283 164.828 150.611 162.921C150.858 161.473 150.611 160.361 149.686 159.199C148.273 157.423 147.585 155.283 147.221 153.044C147.108 152.342 146.963 151.646 146.769 150.597C142.994 156.247 138.552 160.721 133.308 164.39L133.343 164.369L133.347 164.373ZM175.33 390.503C174.991 389.854 174.613 389.211 174.306 388.54C172.985 385.662 172.671 382.72 174.391 379.945C175.069 378.85 175.118 377.981 174.747 376.855C172.551 370.16 170.358 363.461 168.232 356.745C164.334 344.424 160.29 332.153 156.667 319.748C155.76 316.633 156.24 315.916 159.418 315.669C162.582 315.422 165.753 315.129 168.921 315.083C197.047 314.673 225.174 314.31 253.3 313.942C255.38 313.914 259.533 316.88 260.225 318.819C262.742 325.899 265.112 333.029 267.337 340.208C270.97 351.931 274.604 363.655 278.227 375.379C278.495 376.251 278.69 376.943 279.926 376.929C287.927 376.848 295.933 376.834 303.935 376.873C305.227 376.88 305.467 376.399 305.509 375.241C305.633 371.95 305.845 368.663 306.113 365.382C306.392 361.971 306.781 358.567 307.13 355.046C306.293 355.427 305.976 356.088 305.524 356.603C303.133 359.315 300.424 361.586 297.236 363.373C291.851 366.388 285.247 364.662 281.232 361.046C278.446 358.538 276.853 355.247 275.423 351.882C271.864 343.509 270.186 334.593 268.011 325.821C266.553 319.949 265.002 314.101 262.495 308.564C261.055 305.383 258.77 303.197 255.186 302.565C253.861 302.332 252.576 301.869 251.266 301.54C245.577 300.107 240.213 297.889 236.357 293.344C234.118 290.707 231.89 290.371 228.761 291.084C224.534 292.052 220.205 292.61 215.897 293.189C213.658 293.489 212.722 292.596 212.634 290.332C212.567 288.63 212.62 286.918 212.736 285.219C213.633 272.005 215.883 258.964 217.818 245.881C218.047 244.331 218.764 243.653 220.322 243.519C224.891 243.119 229.457 242.678 234.009 242.127C235.298 241.972 235.188 242.473 235.054 243.367C234.531 246.859 234.923 250.299 235.93 253.65C236.71 256.245 238.423 258.011 241.114 258.703C246.117 259.995 250.909 257.993 253.494 253.505C255.366 250.256 256.093 246.707 255.984 242.999C255.948 241.827 256.291 241.506 257.446 241.506C261.563 241.506 265.684 241.432 269.801 241.304C270.914 241.269 271.542 241.665 272.008 242.632C273.213 245.143 273.979 247.774 274.445 250.51C274.728 252.163 274.756 253.784 274.343 255.408C274.071 256.482 273.696 257.057 272.287 256.782C269.268 256.192 266.45 256.966 263.957 258.798C259.903 261.779 259.3 266.892 262.584 270.702C264.649 273.096 267.372 274.378 270.451 274.579C272.146 274.689 272.316 275.374 272.206 276.744C271.938 280.145 271.804 283.556 271.521 286.956C271.415 288.245 271.719 289.065 273.018 289.502C275.882 290.47 277.528 292.557 278.725 295.308C281.635 301.989 284.297 308.765 287.059 315.503C288.203 318.296 289.312 321.104 290.533 324.144C291.646 322.47 292.525 321.026 293.521 319.666C299.489 311.502 304.658 302.766 311.149 294.976C311.636 294.393 311.502 293.772 311.537 293.143C312.053 284.223 312.462 275.293 313.808 266.443C313.96 265.448 313.822 264.844 312.791 264.614C310.873 264.187 310.358 262.87 310.383 261.065C310.446 256.475 310.432 251.884 310.45 247.293C310.489 236.075 309.09 225.015 306.865 214.036C305.259 206.108 302.024 198.7 299.626 191.027C298.673 187.968 297.72 184.907 296.699 181.637C296.318 182.039 296.106 182.223 295.947 182.442C286.96 195.155 275.826 205.731 263.583 215.237C261.04 217.211 258.477 218.048 255.412 217.168C254.38 216.872 253.738 217.122 252.982 217.892C247.802 223.15 241.83 227.275 234.937 229.966C231.823 231.18 228.638 232.236 225.449 233.246C223.669 233.811 222.331 234.803 221.328 236.35C218.831 240.199 216.208 243.967 213.817 247.88C205.695 261.171 195.592 273.128 187.919 286.738C184.815 292.243 178.568 293.701 173.201 290.724C167.921 287.797 163.165 284.156 159.312 279.449C151.046 269.353 143.881 258.548 138.39 246.679C138.22 246.312 138.181 245.775 137.457 245.627C137.249 249.462 137.521 253.222 137.012 256.951C135.791 265.91 132.637 274.074 127.185 281.331C126.422 282.345 125.949 283.574 125.183 284.993C126.475 284.227 127.421 283.641 128.396 283.1C129.141 282.687 129.95 282.415 130.702 283.04C131.542 283.739 131.288 284.654 130.953 285.48C130.645 286.236 130.278 287.002 129.784 287.645C125.133 293.683 120.14 299.379 113.388 303.2C112.686 303.599 112.495 303.977 112.686 304.726C115.051 314.006 117.481 323.265 121.288 332.096C126.016 343.068 131.991 353.422 137.118 364.195C140.981 372.321 144.7 380.506 146.999 389.239C147.362 390.616 147.952 390.828 149.149 390.821C157.331 390.775 165.51 390.786 173.691 390.765C174.2 390.765 174.747 390.923 175.319 390.5L175.33 390.503ZM396.792 255.86C399.292 252.424 402.177 249.49 405.045 246.538C410.663 240.754 416.274 234.962 421.094 228.475C425.092 223.097 429.163 217.755 432.077 211.67C432.98 209.781 433.997 207.842 433.75 205.642C433.263 201.285 432.175 197.072 430.025 193.23C425.088 184.409 420.063 175.641 415.091 166.837C411.68 160.799 408.371 154.701 404.409 148.991C400.122 142.814 395.235 137.217 389.038 132.839C387.763 131.938 386.915 132.097 385.828 133.047C383.956 134.678 382.752 136.73 381.749 138.944C380.34 142.062 379.553 145.385 378.546 148.634C377.815 150.996 377.13 153.387 375.898 155.58C376.053 151.046 376.788 146.618 377.95 142.274C379.125 137.881 380.725 133.668 384.546 130.554C381.703 129.35 378.928 128.99 376.117 128.944C370.626 128.852 365.223 129.766 359.799 130.462C355.484 131.016 351.176 131.656 346.8 131.433C345.879 131.387 345.345 131.285 345.088 130.042C344.773 128.506 344.208 126.903 341.818 126.899C340.366 126.899 340.303 127.203 340.349 128.336C340.405 129.784 340.303 131.235 339.494 132.602C338.809 131.977 338.792 131.186 338.657 130.466C338.467 129.441 339.113 127.951 338.311 127.475C337.513 126.998 336.154 127.524 335.045 127.492C333.982 127.46 333.572 127.835 333.65 128.922C333.731 130.059 333.763 131.232 332.954 132.281C332.326 131.61 332.305 130.858 332.241 130.112C332.128 128.802 332.598 127.295 330.182 127.457C327.845 127.616 329.07 129.148 328.805 130.091C328.629 130.713 328.886 131.476 328.148 132.016C327.248 130.935 327.23 129.675 327.114 128.477C327.043 127.75 326.835 127.45 326.079 127.408C325.295 127.365 325.023 127.757 324.914 128.407C324.797 129.103 324.67 129.798 324.599 130.497C324.483 131.659 324.543 132.966 322.703 132.108C322.304 131.92 322.085 132.319 321.838 132.556C320.425 133.916 318.656 134.523 316.792 134.897C312.526 135.752 308.119 135.614 303.882 136.677C301.879 137.178 299.831 137.578 298.161 138.602C302.522 144.887 303.853 151.946 305.015 159.574C304.065 158.761 303.945 158.055 303.677 157.444C301.777 153.143 300.672 148.539 298.676 144.276C298.055 142.949 297.434 141.617 296.342 140.568C295.76 140.007 295.283 139.873 294.517 140.357C290.509 142.885 286.759 145.699 284.011 149.64C279.371 156.297 274.777 162.978 271.217 170.305C270.578 171.622 269.812 172.894 268.982 174.098C267.93 175.62 266.482 176.933 266.938 179.073C267.015 179.44 266.779 179.829 266.447 179.935C265.988 180.076 265.677 179.734 265.507 179.327C265.281 178.787 265.02 178.25 264.893 177.682C264.275 174.935 263.572 172.198 263.145 169.419C262.884 167.717 262.283 168.006 261.256 168.684C258.607 170.432 256.068 172.389 253.134 173.628C251.916 174.14 251.658 174.807 251.651 175.983C251.573 185.574 251.019 195.147 250.291 204.71C249.973 208.87 251.435 211.469 255.2 213.178C257.516 214.23 259.787 214.792 261.665 212.334C261.874 212.062 262.202 211.879 262.481 211.663C275.172 201.86 286.349 190.557 296 177.745C297.2 176.149 298.496 174.624 299.768 173.081C300.082 172.703 300.537 172.42 301.011 172.713C301.509 173.017 301.388 173.586 301.18 173.988C300.509 175.291 299.81 176.587 299.04 177.834C298.634 178.491 298.511 178.999 298.881 179.755C300.121 182.29 301.057 184.953 301.971 187.619C302.586 189.413 303.26 191.189 304.03 193.308C304.387 192.506 304.574 192.089 304.757 191.673C306.417 187.848 308.063 184.017 309.75 180.203C310.238 179.105 310.891 178.017 312.282 178.067C313.808 178.12 314.2 179.391 314.609 180.588C316.375 185.758 318.141 190.924 319.928 196.087C320.482 197.683 321.103 199.254 321.746 200.981C322.399 200.077 322.516 199.205 322.749 198.382C325.21 189.678 327.654 180.97 330.105 172.261C330.5 170.849 331.009 169.511 332.781 169.436C334.568 169.359 335.14 170.644 335.635 172.046C338.248 179.44 341.708 186.439 345.533 193.269C345.692 193.551 345.741 193.982 346.437 193.95C347.245 188.484 348.068 182.982 348.87 177.477C349.318 174.398 349.604 171.287 350.201 168.236C350.692 165.729 352.846 165.153 354.64 166.961C355.583 167.911 356.384 169.03 357.129 170.15C360.325 174.952 363.065 180.02 365.859 185.062C366.074 185.451 366.081 186.122 366.893 186.118C366.713 184.741 366.558 183.403 366.363 182.071C365.738 177.767 365 173.483 364.118 169.225C363.835 167.854 363.828 166.396 365.449 165.789C367.066 165.181 367.938 166.241 368.666 167.505C369.782 169.44 370.951 171.347 372.084 173.271C374.973 178.176 377.858 183.081 380.895 188.247C381.544 186.076 382.148 184.409 380.792 182.403C377.702 177.827 374.895 173.06 371.992 168.359C371.71 167.904 371.109 167.349 371.759 166.816C372.317 166.357 372.875 166.784 373.334 167.159C374.807 168.366 375.923 169.896 376.978 171.449C379.323 174.903 381.671 178.356 383.868 181.902C384.599 183.081 386.149 183.544 386.446 184.939C386.753 186.383 387.562 187.502 388.346 188.661C391.81 193.77 395.224 198.915 398.784 203.958C401.019 207.125 401.058 210.198 399.179 213.506C396.941 217.454 394.44 221.219 391.732 224.852C391.259 225.488 390.955 226.004 391.238 226.904C393.498 234.147 394.444 241.605 394.405 249.161C394.391 251.736 395.027 253.869 396.782 255.86H396.792ZM408.17 364.912C407.474 365.047 407.206 365.107 406.934 365.149C403.911 365.622 400.966 364.955 398 364.563C397.421 364.485 396.69 364.051 396.771 365.297C397.11 370.287 397.386 375.277 397.668 380.27C397.714 381.061 397.933 381.545 398.826 381.742C408.449 383.879 418.072 383.992 427.677 381.707C431.822 380.722 432.896 378.825 432.048 374.577C431.409 371.385 430.216 368.376 428.877 365.442C420.777 347.676 414.678 329.137 407.792 310.905C406.461 307.381 404.844 304.132 402.555 301.198C401.037 299.252 399.335 297.448 397.813 295.506C396.884 294.323 396.351 294.538 395.465 295.604C391.114 300.827 385.888 304.962 379.705 307.84C358.665 317.625 337.743 306.65 333.237 288.676C333.145 288.305 333.078 287.793 332.52 287.815C330.655 287.885 328.759 287.62 326.994 288.553C319.956 292.267 314.087 297.289 309.383 303.744C303.91 311.255 298.458 318.794 291.787 325.331C291.257 325.846 291.335 326.298 291.575 326.902C292.253 328.59 292.903 330.295 293.5 332.015C293.814 332.916 294.517 334.134 293.288 334.65C292.165 335.123 291.766 333.816 291.374 333.015C290.601 331.433 289.901 329.812 289.22 328.187C288.941 327.52 288.704 327.29 287.941 327.696C283.453 330.094 278.675 331.708 273.668 332.587C272.711 332.757 272.711 333.113 272.92 333.866C273.562 336.186 274.099 338.534 274.773 340.843C276.698 347.404 278.898 353.849 283.305 359.266C283.821 359.901 284.318 360.534 285.148 360.844C288.397 362.063 291.54 362.077 294.672 360.378C297.85 358.658 300.301 356.158 302.596 353.457C307.664 347.496 312.169 341.069 317.668 335.472C318.007 335.126 318.236 334.731 318.314 334.25C319.066 329.681 321.022 325.507 322.625 321.224C324.557 316.057 325.528 310.824 324.465 305.33C324.363 304.807 323.823 304.058 324.575 303.772C325.38 303.465 325.62 304.376 325.885 304.902C327.562 308.208 327.922 311.742 327.523 315.372C326.987 320.263 325.369 324.871 323.688 329.452C321.721 334.815 320.764 340.335 320.976 346.048C321.178 351.441 322.844 356.554 323.964 361.777C324.875 366.028 325.853 370.28 325.281 374.69C324.695 379.193 323.484 383.547 322.195 387.883C321.517 390.161 321.506 390.161 323.798 390.154C344.805 390.083 365.813 390.012 386.824 389.942C387.06 389.942 387.293 389.931 387.53 389.942C388.356 389.988 388.564 389.698 388.233 388.897C387.512 387.159 386.905 385.369 386.612 383.508C386.414 382.251 385.785 381.732 384.546 381.361C375.326 378.589 366.589 374.726 358.591 369.316C357.885 368.839 357.341 368.846 356.66 369.079C354.308 369.891 352.217 371.201 350.081 372.441C348.877 373.14 347.528 374.616 346.161 373.274C344.922 372.056 346.175 370.629 346.783 369.422C347.489 368.02 348.358 366.699 349.329 365.057C346.758 366.229 344.791 367.621 342.828 369.016C342.167 369.485 341.426 369.782 340.72 369.21C339.992 368.624 340.204 367.801 340.522 367.098C340.96 366.138 341.503 365.227 342.016 364.301C343.213 362.137 344.83 360.258 346.504 358.012C343.41 358.959 341.705 361.081 339.851 363.03C339.025 363.899 338.205 365.156 336.758 364.421C335.267 363.662 335.811 362.186 335.928 360.94C335.977 360.424 336.203 359.919 336.383 359.425C337.933 355.208 340.73 352.076 344.675 349.961C345.639 349.442 346.638 348.986 347.888 348.372C345.988 347.779 344.374 347.302 342.775 346.772C339.925 345.829 337.093 344.827 334.776 342.814C333.971 342.115 333.202 341.324 333.533 340.098C333.844 338.954 334.847 338.59 335.829 338.428C340.815 337.602 345.787 336.694 350.886 336.892C355.508 337.068 358.856 338.965 360.565 343.439C361.971 347.111 363.478 350.749 364.955 354.393C366.12 357.274 367.688 359.64 371.353 359.231C371.519 359.213 371.696 359.305 371.869 359.34C374.641 359.909 377.413 360.481 380.337 361.081C380.167 360.693 380.079 360.481 379.984 360.272C379.885 360.057 379.779 359.849 379.683 359.637C378.391 356.776 378.243 354.086 380.266 351.363C381.802 349.297 382.766 346.808 384.32 344.759C386.866 341.398 387.41 338.131 384.758 334.628C384.585 334.402 384.507 334.099 384.405 333.823C384.186 333.233 383.716 332.46 384.383 332.079C385.054 331.697 385.513 332.492 385.898 332.986C387.717 335.313 389.02 337.948 390.341 340.568C393.692 347.231 397.198 353.824 400.105 360.7C400.574 361.808 401.146 362.387 402.28 362.642C404.204 363.076 406.168 363.454 408.173 364.926L408.17 364.912ZM46.7006 302.776C46.1356 305.965 45.5353 309.006 44.6454 311.979C41.2307 323.402 37.5653 334.752 36.1634 346.677C35.0475 356.162 34.3871 365.643 35.0334 375.192C35.3618 380.026 35.9903 384.765 38.1197 389.214C38.6847 390.394 39.2885 390.842 40.6127 390.839C64.2651 390.8 87.9174 390.793 111.57 390.853C113.286 390.856 113.462 390.298 113.24 388.815C112.237 382.131 111.541 375.407 111.061 368.663C110.991 367.698 110.514 366.237 111.916 365.951C113.318 365.664 113.438 367.162 113.748 368.105C116.083 375.185 118.406 382.268 120.641 389.38C120.995 390.5 121.461 390.892 122.594 390.835C124.236 390.754 125.889 390.814 127.534 390.814C131.949 390.814 136.359 390.825 140.773 390.793C141.349 390.789 142.341 391.181 142.073 389.846C141.342 386.223 140.798 382.565 139.248 379.143C134.911 369.559 130.374 360.071 125.695 350.653C119.617 338.421 113.974 326.03 111.601 312.438C111.4 311.283 110.807 311.35 109.988 311.52C97.533 314.115 85.11 313.783 72.7118 311.135C63.7989 309.232 54.9849 307.021 46.6936 302.773L46.7006 302.776ZM158.274 317.558C158.136 317.926 158.309 318.24 158.422 318.575C161.65 328.329 164.909 338.071 168.087 347.839C171.195 357.384 174.221 366.953 177.276 376.516C177.59 377.501 177.837 378.26 179.253 378.165C183.533 377.872 187.827 377.699 192.117 377.618C217.175 377.138 242.237 377.116 267.301 377.074C268.184 377.074 269.067 377.028 269.95 377.06C270.864 377.092 271.087 376.7 270.826 375.877C270.381 374.479 269.957 373.073 269.526 371.671C264.257 354.499 258.922 337.344 254.405 319.952C253.688 317.195 253.706 317.173 250.881 317.198C238.292 317.308 225.703 317.413 213.114 317.541C195.938 317.714 178.762 318.109 161.586 317.565C160.485 317.53 159.379 317.562 158.278 317.562L158.274 317.558ZM118.053 279.474C117.198 279.94 116.312 280.36 115.493 280.883C113.311 282.274 111.149 283.694 108.995 285.127C104.86 287.882 100.273 288.048 95.5766 287.423C93.9417 287.204 93.5003 285.823 94.6585 284.622C95.4283 283.821 96.3323 283.143 97.201 282.44C99.122 280.883 101.064 279.343 102.696 277.475C103.462 276.596 104.942 275.452 104.14 274.498C103.42 273.637 101.94 274.795 101.092 275.529C96.5619 279.474 91.159 282.207 86.579 286.081C85.163 287.278 83.4574 287.949 81.6106 288.196C76.3666 288.895 71.3275 287.751 66.2814 286.543C63.2516 285.816 60.3948 284.555 57.3932 283.782C55.4722 283.284 54.4305 282.341 54.2999 280.311C54.1869 278.556 54.6918 276.921 55.4228 275.374C60.9457 263.678 66.6416 252.075 73.8842 241.311C74.1808 240.87 74.315 240.199 75.219 240.076C74.7493 241.237 74.322 242.3 73.7182 243.798C76.1371 241.598 77.8251 239.348 80.3746 237.314C80.1521 238.829 79.4812 239.493 78.9021 240.189C76.9846 242.502 74.8447 244.61 72.673 246.683C71.1722 248.113 70.6036 250.03 69.7385 251.806C70.1587 251.775 70.413 251.633 70.6743 251.503C79.5801 247.007 85.4737 239.532 90.6929 231.364C94.5137 225.389 95.4107 218.69 95.792 211.829C95.8591 210.621 95.4601 210.501 94.3795 210.738C92.7764 211.091 91.1237 211.246 89.4676 211.126C84.4673 210.759 79.9297 209.47 77.2212 204.742C76.7268 203.88 76.2113 204.209 75.611 204.438C69.4207 206.825 64.1167 210.42 60.5184 216.102C49.5574 233.394 41.5026 251.994 36.0786 271.712C34.4613 277.599 33.1901 283.612 33.575 289.799C33.7021 291.868 33.9599 294.121 35.8102 295.34C39.4086 297.706 43.3848 299.574 47.7106 299.74C60.1723 300.216 72.6412 300.449 85.0818 301.452C91.4133 301.964 97.7625 302.236 104.105 302.575C108.847 302.829 112.986 301.322 116.623 298.264C120.461 295.036 124.028 291.547 127.266 287.719C127.856 287.02 128.477 286.324 128.883 285C128.043 285.59 127.478 285.957 126.945 286.36C123.516 288.945 120.101 291.547 116.655 294.111C116.139 294.496 115.5 295.255 114.836 294.45C114.098 293.553 115.03 293.09 115.581 292.642C118.572 290.205 121.097 287.355 123.188 284.124C123.403 283.789 123.883 283.475 123.488 282.765C119.667 285.261 115.899 287.755 112.092 290.195C111.358 290.664 110.429 291.695 109.62 290.763C108.752 289.764 110.03 289.135 110.609 288.5C111.439 287.589 112.389 286.783 113.24 285.89C115.059 283.983 116.927 282.115 118.057 279.484L118.053 279.474ZM97.8684 284.845C101.788 285.434 105.125 284.88 108.204 282.948C110.044 281.79 111.891 280.635 113.766 279.537C115.232 278.679 116.676 277.743 118.396 277.447C119.194 277.309 119.918 277.387 120.451 278.1C120.966 278.792 120.701 279.491 120.352 280.088C119.699 281.215 118.939 282.278 117.993 283.722C120.172 282.408 121.856 281.091 123.827 280.332C124.89 279.922 125.546 279.262 126.14 278.337C131.412 270.112 134.191 261.168 134.223 251.365C134.237 246.778 134.392 242.184 135.303 237.667C135.819 235.114 136.525 232.6 137.182 229.927C129.424 231.459 121.814 231.706 114.204 230.566C107.904 229.62 101.7 228.299 96.4312 223.977C95.4036 227.469 93.9452 230.689 92.0383 233.74C87.3382 241.262 81.8683 248.017 74.0537 252.537C72.4328 253.473 70.8367 254.55 68.8204 254.331C68.1706 254.261 68.04 254.766 67.8387 255.158C64.2403 262.156 60.6137 269.145 57.3403 276.306C56.853 277.369 56.4645 278.489 56.4539 279.693C56.4398 281.472 57.1884 282.281 58.947 282.408C60.2359 282.5 61.5389 282.518 62.8102 282.73C67.4432 283.506 72.0515 284.456 76.6951 285.138C79.513 285.551 82.4545 286.229 85.1347 284.58C87.2217 283.295 89.2698 281.924 91.2332 280.459C93.5885 278.7 95.8132 276.769 98.1368 274.964C99.6164 273.813 101.1 272.648 102.964 272.118C104.193 271.769 105.337 271.836 106.202 272.835C107.085 273.852 106.887 275.031 106.379 276.154C105.634 277.796 104.387 279.064 103.088 280.258C101.453 281.755 99.7647 283.192 97.8684 284.855V284.845ZM171.852 267.641C173.561 263.731 175.81 260.296 177.996 256.446C175.404 258.307 173.713 258.311 171.506 256.485C167.745 253.381 165.248 249.504 164.591 244.585C164.521 244.055 164.503 243.557 164.062 243.148C161.258 240.545 160.103 237.109 159.206 233.536C158.253 229.747 157.999 225.887 157.797 222.003C157.607 218.327 153.217 215.879 150.078 217.599C149.255 218.051 148.401 218.712 147.532 218.768C142.959 219.051 141.709 222.211 141.017 225.947C140.943 226.35 140.798 226.738 140.692 227.137C139.664 230.965 138.577 234.782 138.1 238.977C141.967 236.537 145.664 234.291 150.247 233.38C149.76 234.574 148.976 235.029 148.326 235.587C145.802 237.734 142.941 239.366 140.024 240.895C139.138 241.361 139.039 241.771 139.52 242.65C146.024 254.529 153.111 266.02 161.494 276.688C164.319 280.282 167.695 283.287 171.311 286.024C173.116 287.387 175.284 287.928 177.551 288.224C181.785 288.779 184.589 287.129 186.559 283.355C189.169 278.354 192.213 273.594 195.264 268.845C202.478 257.612 209.89 246.52 217.641 235.647C220.067 232.243 222.984 229.778 227.144 228.896C228.461 228.617 229.729 228.115 231.021 227.727C238.458 225.481 245.016 221.674 250.807 216.526C251.195 216.18 252.188 215.961 251.538 215.067C251.072 214.425 250.542 213.828 249.815 212.934C249.755 213.951 249.719 214.626 249.677 215.3C249.613 216.335 249.151 217.232 248.162 217.472C244.645 218.327 241.35 220.018 237.6 220.022C234.312 220.025 230.997 220.113 227.741 220.527C220.452 221.459 213.21 222.797 205.815 222.472C204.858 222.43 204.357 222.797 203.862 223.588C201.313 227.677 198.792 231.791 196.087 235.778C188.996 246.241 182.022 256.8 173.656 266.327C173.225 266.818 172.936 267.535 171.862 267.641H171.852ZM248.201 182.071C248.201 178.837 248.208 175.606 248.194 172.371C248.194 171.753 248.356 170.976 247.378 170.905C243.861 170.648 240.418 169.874 236.936 169.38C236.018 169.249 235.69 169.617 235.513 170.461C235.089 172.473 234.468 174.43 233.458 176.245C230.47 181.609 223.644 183.247 218.531 179.832C216.324 178.36 214.83 176.266 213.393 174.098C212.429 172.643 212.242 170.358 210.731 169.722C209.18 169.069 207.146 169.56 205.324 169.549C201.331 169.521 197.333 169.327 193.346 169.853C192.287 169.994 191.807 170.245 191.994 171.492C192.46 174.567 192.827 177.664 193.11 180.761C193.459 184.607 192.923 185.299 189.331 186.538C186.626 187.474 184.299 188.872 183.575 191.938C182.481 196.56 185.323 200.61 190.62 201.991C194.762 203.072 195.387 203.863 195.628 208.178C195.79 211.109 196.023 214.04 196.193 216.971C196.249 217.973 196.68 218.433 197.715 218.429C202.944 218.408 208.174 218.701 213.411 218.394C222.977 217.836 232.416 216.074 241.968 215.374C244.472 215.191 246.054 213.937 246.223 211.988C247.081 202.033 247.989 192.079 248.201 182.071ZM365.099 262.905C365.075 264.042 364.39 264.314 363.941 264.724C361.589 266.881 358.937 268.633 356.151 270.172C355.247 270.674 354.756 271.253 354.71 272.341C354.604 274.982 354.463 277.63 354.191 280.261C353.856 283.506 352.45 285.046 349.276 285.569C345.102 286.257 340.914 286.865 336.719 287.387C335.539 287.532 335.327 287.786 335.825 288.863C337.573 292.631 339.748 296.113 342.75 299.005C350.12 306.113 358.973 308.476 368.917 306.724C378.603 305.019 386.297 299.891 392.53 292.391C393.363 291.385 393.222 290.919 392.191 290.251C390.57 289.202 388.886 288.478 386.933 288.447C384.168 288.404 381.396 288.214 378.642 288.344C373.779 288.57 370.449 286.091 368.387 282.14C365.964 277.5 365.251 272.309 365.198 267.1C365.152 262.57 369.015 259.144 373.521 259.882C377.233 260.49 380.577 257.622 380.227 254.43C379.938 251.782 378.61 249.783 376 248.851C373.716 248.035 370.739 248.904 369.068 250.758C368.754 251.111 368.719 251.796 368.009 251.782C367.43 251.044 367.306 250.178 367.225 249.296C367.176 248.755 367.14 248.155 366.335 248.353C363.365 249.087 360.65 248.176 357.832 246.962C357.913 248.282 357.189 248.822 356.123 248.791C353.7 248.717 351.32 248.363 349.127 247.24C348.428 246.884 347.722 246.404 348.075 245.478C348.439 244.528 349.23 244.754 350.024 244.935C351.737 245.327 353.453 245.8 355.657 245.651C349.594 241.379 345.381 236.322 344.562 228.97C343.393 229.803 342.263 230.527 341.232 231.368C339.688 232.625 337.04 232.286 336.178 234.09C335.356 235.813 335.391 237.978 335.211 239.963C335.115 241.011 334.628 241.103 333.763 241.202C331.348 241.477 329.727 243.36 329.773 245.789C329.822 248.48 331.15 250.503 333.382 251.884C334.13 252.347 334.413 252.802 334.469 253.667C334.649 256.425 334.932 259.18 335.861 261.814C336.775 264.413 338.219 266.581 340.96 267.52C343.382 268.35 345.865 268.654 348.421 268.107C350.84 267.588 353.157 266.74 355.519 266.034C358.69 265.087 361.928 264.36 365.089 262.905H365.099ZM312.01 185.641C311.626 186.439 311.347 187.011 311.075 187.587C309.655 190.557 308.306 193.576 306.385 196.26C305.721 197.189 305.633 197.937 306.029 198.982C308.96 206.769 310.863 214.806 311.922 223.062C312.491 227.49 312.84 231.936 313.352 236.396C314.14 232.257 315.348 228.313 317.925 224.912C322.851 218.415 330.048 215.713 337.4 213.273C337.842 213.129 338.385 213.192 338.76 212.959C343.908 209.742 349.664 208.358 355.551 207.457C368.952 205.406 379.839 209.728 388.13 220.502C388.621 221.137 388.858 221.971 389.677 222.508C391.958 218.906 394.218 215.35 396.167 211.6C397.227 209.562 397.131 207.747 395.825 205.826C392.65 201.158 389.578 196.422 386.46 191.719C386.244 191.394 386.138 190.956 385.489 190.793C385.266 191.87 385.026 192.937 384.828 194.014C384.567 195.43 384.066 196.701 382.459 196.934C380.965 197.15 380.075 196.186 379.401 194.989C377.699 191.966 375.993 188.947 374.284 185.927C373.228 184.059 372.162 182.191 371.074 180.281C370.633 180.705 370.792 181.065 370.834 181.379C371.237 184.469 371.703 187.548 372.059 190.645C372.261 192.393 372.646 194.141 372.455 195.91C372.324 197.146 371.791 198.174 370.477 198.566C369.157 198.961 368.147 198.393 367.395 197.4C366.688 196.468 366.063 195.458 365.505 194.427C362.182 188.272 358.891 182.1 355.583 175.937C355.155 175.139 354.682 174.37 353.994 173.169C353.181 178.702 352.489 183.692 351.705 188.671C351.084 192.616 350.628 196.592 349.572 200.458C349.255 201.627 348.502 202.471 347.252 202.588C346.08 202.697 345.257 202.016 344.696 201.023C340.96 194.427 337.111 187.887 334.113 180.902C333.922 180.461 333.869 179.907 333.272 179.564C331.648 185.122 330.098 190.589 328.445 196.023C327.318 199.728 326.252 203.471 324.391 206.903C323.833 207.931 323.014 208.732 321.736 208.616C320.549 208.506 319.892 207.662 319.493 206.613C318.695 204.53 317.879 202.45 317.138 200.345C315.439 195.532 313.78 190.709 312.018 185.641H312.01ZM243.437 390.74C243.437 390.666 243.437 390.595 243.437 390.521C243.674 390.521 243.907 390.521 244.143 390.521C264.794 390.408 285.448 390.298 306.099 390.171C306.816 390.168 307.635 390.447 308.119 389.529C309.464 386.972 309.811 384.299 309.129 381.499C308.991 380.93 308.786 380.51 307.939 380.549C305.298 380.665 302.649 380.619 300.001 380.633C268.403 380.803 236.809 381.015 205.211 381.11C196.683 381.135 188.148 381.304 179.627 380.746C176.919 380.57 176.375 380.997 176.23 383.755C176.213 384.108 176.216 384.461 176.234 384.814C176.432 388.632 178.625 390.743 182.361 390.74C202.718 390.74 223.076 390.74 243.437 390.74ZM323.226 77.7581C321.45 79.0929 319.832 80.2582 318.074 81.2187C312.222 84.4181 306.05 86.8158 299.658 88.6697C298.592 88.9769 297.96 89.21 298.27 90.6472C298.751 92.8789 298.864 95.1884 299.118 97.4625C299.729 102.929 300.756 108.272 303.652 113.074C304.803 114.981 306.202 116.637 308.356 117.411C314.157 119.497 323.289 120.087 329.239 113.028C331.401 110.465 333.618 107.954 335.772 105.383C336.609 104.387 337.499 103.865 338.897 103.815C342.256 103.699 345.748 100.764 346.387 97.7944C347.196 94.0478 345.331 89.4995 342.287 87.8081C341.122 87.1583 339.886 86.9076 338.551 87.1159C334.639 87.7198 332.622 90.3859 331.231 93.7582C330.444 95.6686 330.073 97.7026 329.423 99.719C326.301 92.7448 324.779 85.3644 323.222 77.7581H323.226ZM230.315 281.402C230.082 282.2 230.435 282.669 230.707 283.069C234.796 289.163 239.592 294.496 246.605 297.314C249.935 298.652 253.441 299.454 256.898 300.375C259.921 301.18 262.132 302.918 263.791 305.496C264.819 307.088 265.571 308.801 266.256 310.556C268.138 315.376 269.646 320.313 270.847 325.348C270.995 325.97 270.893 326.93 272.061 326.51C276.49 324.914 280.854 323.194 284.813 320.588C285.611 320.062 285.681 319.525 285.304 318.685C284.537 316.972 283.902 315.199 283.171 313.469C280.752 307.738 278.739 301.834 275.847 296.3C274.597 293.913 272.641 292.352 270.229 291.289C261.206 287.306 252.512 282.811 245.393 275.777C244.941 275.328 244.574 274.608 243.713 274.696C243.331 276.264 243.815 277.637 244.489 278.965C245.623 281.197 247.29 283.019 249.024 284.788C249.698 285.477 250.373 286.247 249.931 287.271C249.44 288.415 248.324 288.291 247.325 288.238C245.425 288.139 243.638 287.543 241.866 286.911C237.872 285.487 234.182 283.415 230.315 281.409V281.402ZM110.948 189.815C110.542 190.098 110.599 190.539 110.524 190.935C109.762 195.137 108.37 199.102 106.149 202.771C104.468 205.547 102.434 207.934 99.348 209.195C98.6171 209.491 98.4546 209.958 98.4652 210.689C98.5111 214.114 98.1439 217.5 97.2222 220.806C96.975 221.685 97.2116 222.225 97.9249 222.748C99.7435 224.086 101.728 225.11 103.872 225.77C114.197 228.959 124.713 229.75 135.43 228.359C137.397 228.105 138.503 227.349 138.866 225.371C139.053 224.347 139.548 223.376 139.915 222.384C140.657 220.375 140.66 220.399 138.605 220.332C133.262 220.156 128.619 218.32 124.886 214.407C122.63 212.041 121.33 209.297 121.782 205.943C121.902 205.053 121.651 204.396 121.062 203.721C117.523 199.689 114.423 195.335 111.683 190.723C111.485 190.391 111.383 189.964 110.952 189.815H110.948ZM349.036 370.188C351.232 368.938 352.977 367.861 354.802 366.936C356.423 366.113 358.153 365.156 359.492 367.458C359.612 367.663 360.011 367.706 360.276 367.826C362.843 368.991 365.399 370.174 367.977 371.314C374.577 374.235 381.089 377.374 388.123 379.2C389.394 379.528 389.963 379.5 389.892 377.893C389.751 374.722 389.712 371.537 389.885 368.369C389.984 366.576 389.497 365.912 387.689 365.509C381.159 364.054 374.736 362.091 367.97 361.95C366.618 361.921 365.735 361.014 365.039 359.937C363.757 357.952 362.836 355.791 361.956 353.612C360.551 350.131 359.485 346.514 357.751 343.163C356.84 341.401 355.565 340.126 353.58 339.664C347.796 338.308 342.227 339.682 336.298 340.829C337.658 342.093 338.982 342.69 340.31 343.283C343.269 344.601 346.447 345.275 349.477 346.384C350.413 346.726 351.352 347.009 352.073 347.793C353.234 349.057 353.188 349.435 351.536 349.82C349.043 350.399 346.73 351.363 344.611 352.786C341.874 354.622 339.826 357.013 338.936 360.332C339.547 359.969 339.897 359.358 340.377 358.874C343.047 356.183 346.408 354.877 350.053 354.184C350.932 354.018 351.896 353.969 352.313 355.021C352.687 355.968 352.03 356.547 351.38 357.098C350.706 357.666 350.021 358.224 349.392 358.842C347.747 360.456 346.211 362.158 344.816 364.57C347.485 363.189 349.689 361.96 352.129 361.286C353.012 361.042 354.032 360.551 354.682 361.614C355.342 362.695 354.438 363.327 353.764 363.98C351.991 365.7 350.427 367.578 349.032 370.195L349.036 370.188ZM317.41 340.278C315.047 343.686 312.674 347.087 310.34 350.515C310.093 350.876 310.026 351.391 309.969 351.847C309.012 359.774 307.96 367.691 307.466 375.669C307.423 376.343 307.508 376.64 308.193 376.972C312.021 378.815 313.441 381.944 312.741 386.213C312.526 387.526 311.089 389.19 312.106 389.977C313.027 390.69 314.927 390.147 316.396 390.154C316.877 390.154 317.3 390.122 317.537 389.56C318.656 386.916 320.023 384.352 320.906 381.629C322.975 375.234 323.042 368.754 321.503 362.176C319.825 355 317.304 347.955 317.41 340.275V340.278ZM242.537 129.48C244.133 132.401 246.146 134.466 248.204 136.472C249.822 138.051 250.496 139.834 250.489 142.133C250.475 146.709 250.673 151.293 251.626 155.806C251.845 156.84 251.933 157.921 251.538 159.249C250.464 157.61 249.995 156.057 249.634 154.467C249.454 153.669 249.232 153.281 248.229 153.507C246.975 153.789 245.669 153.638 244.384 153.38C241.375 152.776 238.582 151.491 235.654 150.647C235.28 150.541 234.831 150.184 234.553 150.636C234.415 150.862 234.553 151.321 234.669 151.635C235.312 153.33 236.47 154.641 237.826 155.806C239.623 157.349 241.76 158.366 243.716 159.665C245.937 161.138 247.759 162.914 248.116 165.711C248.24 166.682 248.656 167.152 249.606 167.321C251.139 167.59 251.736 168.638 251.736 170.111C251.736 170.683 251.736 171.255 251.736 172.092C255.302 169.818 258.653 167.688 261.997 165.549C262.453 165.255 262.23 164.835 262.17 164.436C260.507 153.86 257.654 143.683 252.17 134.375C251.933 133.972 251.789 133.502 251.269 133.361C248.31 132.553 245.725 130.882 242.54 129.487L242.537 129.48ZM50.5603 302.367C50.7368 302.836 51.1041 302.872 51.4254 302.985C61.1399 306.378 71.0451 309.069 81.2186 310.648C89.9973 312.007 98.7724 312.088 107.463 309.86C111.036 308.942 111.008 308.956 110.56 305.34C110.457 304.524 110.235 304.411 109.462 304.574C106.682 305.146 103.854 305.181 101.032 305.036C85.3607 304.221 69.6926 303.377 54.0209 302.54C52.8803 302.48 51.7468 302.19 50.5603 302.374V302.367ZM314.345 291.597C315.905 290.467 317.163 289.404 318.568 288.588C319.977 287.769 321.015 287.094 320.334 285.113C319.846 283.704 320.5 282.21 321.269 280.922C321.905 279.866 322.576 278.824 323.325 277.849C325.408 275.134 326.393 272.069 326.446 268.672C326.471 267.121 324.059 264.876 322.509 265.013C320.754 265.169 318.995 265.384 317.237 265.409C316.142 265.423 315.708 265.695 315.634 266.867C315.425 270.148 315.037 273.418 314.779 276.698C314.394 281.557 314.059 286.423 314.348 291.6L314.345 291.597ZM388.194 342.108C386.216 346.921 383.935 351.215 381.721 355.54C381.537 355.901 381.431 356.218 381.58 356.688C383.222 361.964 383.6 362.356 388.78 363.811C388.836 363.825 388.893 363.842 388.946 363.871C389.765 364.294 390.214 364.012 390.528 363.171C391.227 361.286 392.696 360.643 394.596 360.876C395.761 361.021 396.912 361.261 398.272 361.494C394.197 355.36 391.506 348.775 388.197 342.104L388.194 342.108ZM256.637 318.056C256.782 318.618 256.835 318.897 256.923 319.161C259.794 327.792 262.375 336.51 264.868 345.254C267.729 355.297 270.557 365.347 273.312 375.418C273.7 376.837 274.424 377.325 275.653 376.926C277.189 376.424 275.928 375.414 275.741 374.818C273.555 367.819 271.246 360.858 269.014 353.87C265.444 342.697 261.634 331.599 258.749 320.217C258.498 319.232 257.82 318.628 256.64 318.056H256.637ZM337.722 112.732C337.322 112.972 337.157 113.039 337.033 113.152C333.781 116.235 330.412 119.162 326.277 121.037C324.998 121.616 325.952 122.584 325.832 123.35C325.691 124.247 326.542 124.155 327.057 124.219C330.733 124.66 334.409 125.07 338.128 125.073C339.399 125.073 339.674 124.724 339.194 123.594C339.014 123.166 338.965 122.686 338.866 122.227C338.212 119.187 337.99 116.086 337.722 112.732ZM318.78 227.762C318.067 228.306 317.745 229.065 317.396 229.803C315.581 233.642 314.892 237.713 314.857 241.933C314.8 248.611 316.569 254.656 320.817 259.921C321.93 261.298 323.236 260.673 324.119 260.133C325.15 259.501 323.805 258.851 323.505 258.233C323.176 257.555 322.629 256.987 322.212 256.351C318.561 250.743 316.608 244.62 316.824 237.9C316.933 234.44 317.572 231.05 318.783 227.762H318.78ZM117.241 165.068C126.779 166.573 141.02 159.376 144.375 151.318C142.119 153.366 140.021 155.234 137.743 156.883C132.492 160.682 126.814 163.303 120.161 163.158C118.791 163.126 118.042 163.903 117.241 165.072V165.068ZM313.603 247.53C313.458 247.541 313.314 247.551 313.172 247.562C313.172 251.789 313.169 256.016 313.179 260.243C313.179 260.85 312.978 261.662 314.041 261.581C315.828 261.45 317.615 261.288 319.627 261.118C318.031 258.887 316.739 256.807 315.743 254.554C314.747 252.301 314.154 249.921 313.607 247.527L313.603 247.53ZM365.876 246.683C365.565 246.474 365.438 246.326 365.294 246.308C358.602 245.387 353.778 241.693 350.134 236.188C349.198 234.772 348.079 233.479 346.737 231.728C348.266 238.977 358.581 248.378 365.876 246.683ZM114.003 375.474C113.904 375.52 113.805 375.566 113.706 375.612C114.239 380.213 114.847 384.811 115.27 389.423C115.454 391.428 116.849 390.913 117.82 390.758C119.42 390.503 117.972 389.532 118.046 388.893C118.071 388.678 117.94 388.441 117.873 388.215C116.584 383.967 115.292 379.719 113.999 375.471L114.003 375.474ZM287.613 324.303C287.426 323.946 287.271 323.392 286.914 323.046C286.674 322.813 286.31 323.233 286.031 323.427C281.974 326.231 277.563 328.212 272.686 329.07C272.132 329.169 271.804 329.282 271.934 329.928C272.061 330.557 272.464 330.656 272.98 330.518C277.807 329.236 282.556 327.746 286.96 325.327C287.306 325.136 287.73 324.974 287.613 324.306V324.303ZM394.691 370.718C394.691 370.718 394.723 370.718 394.741 370.714C394.741 368.892 394.755 367.066 394.73 365.244C394.723 364.785 395.041 364.09 394.165 364.047C393.392 364.008 393.363 364.623 393.346 365.145C393.194 369.966 393.219 374.782 393.685 379.592C393.752 380.273 394.031 380.768 394.769 380.665C395.507 380.559 395.161 379.92 395.143 379.528C395.016 376.59 394.847 373.656 394.695 370.721L394.691 370.718ZM111.439 187.061C114.338 192.725 117.901 197.923 122.029 202.867C122.863 201.214 122.891 200.014 121.383 198.767C119.211 196.977 117.389 194.794 115.638 192.584C114.2 190.772 112.837 188.904 111.443 187.061H111.439ZM296.431 103.688C296.335 101.848 296.247 100.058 296.148 98.2676C296.095 97.2965 295.675 97.3636 295.05 97.8686C292.921 99.5918 293.524 102.307 296.431 103.692V103.688ZM255.902 135.978C255.613 133.63 254.388 131.002 253.18 130.148C253.056 132.57 253.356 133.213 255.902 135.978ZM394.546 256.556V260.37C395.842 259.021 396.482 257.852 394.546 256.556Z" fill="#D1C6C6"/>
<path d="M212.228 363.814C204.251 363.849 198.237 357.627 198.195 349.286C198.156 341.63 204.371 335.461 212.143 335.451C219.93 335.44 226.261 341.765 226.3 349.586C226.339 357.387 220.018 363.775 212.228 363.811V363.814Z" fill="#D1C6C6"/>
<path d="M78.9622 268.184C78.6903 266.906 78.6126 265.864 79.047 264.823C79.1812 264.501 79.3259 264.148 79.7532 264.176C80.2123 264.208 80.2864 264.625 80.2829 264.946C80.2723 266.09 80.1205 267.199 78.9622 268.184Z" fill="#D1C6C6"/>
<path d="M75.9219 265.441C76.1232 264.671 75.9537 263.696 76.8223 263.142C76.9495 263.061 77.3485 263.16 77.4368 263.294C78.0265 264.184 77.4191 264.978 77.1331 265.776C77.0024 266.137 76.8012 266.649 76.3138 266.55C75.7736 266.437 76.0066 265.879 75.9219 265.441Z" fill="#D1C6C6"/>
<path d="M123.209 266.997C123.371 266.295 123.205 265.295 124.272 265.122C124.847 265.027 125.021 265.606 124.964 266.108C124.869 266.92 124.749 267.856 123.823 268.071C123.191 268.219 123.283 267.495 123.213 267.001L123.209 266.997Z" fill="#D1C6C6"/>
<path d="M113.89 246.828C114.127 246.136 114.049 245.196 115.017 245.073C115.627 244.995 115.769 245.5 115.617 246.026C115.394 246.803 115.228 247.753 114.335 247.915C113.844 248.004 113.876 247.269 113.89 246.824V246.828Z" fill="#D1C6C6"/>
<path d="M119.981 266.797C120.197 265.946 120.162 264.985 121.21 264.823C121.729 264.741 121.885 265.26 121.797 265.688C121.631 266.5 121.366 267.386 120.493 267.616C119.844 267.785 120.197 267.03 119.985 266.797H119.981Z" fill="#D1C6C6"/>
<path d="M117.432 249.123C117.283 248.71 117.216 248.6 117.213 248.491C117.181 247.7 116.905 246.842 117.721 246.256C117.788 246.21 118.092 246.33 118.131 246.432C118.498 247.382 118.226 248.18 117.432 249.123Z" fill="#D1C6C6"/>
<path d="M346.038 263.538C343.714 263.605 342.023 262.595 340.804 260.617C340.285 259.773 340.515 259.321 341.271 258.954C344.29 257.471 347.521 256.648 350.787 255.974C351.889 255.748 352.429 256.327 352.376 257.467C352.225 260.818 349.41 263.523 346.038 263.541V263.538ZM345.575 262.506C348.036 262.489 349.576 261.348 350.162 259.297C350.272 258.915 350.54 258.445 350.162 258.163C349.965 258.015 349.502 258.159 349.184 258.251C347.493 258.732 345.801 259.215 344.127 259.749C343.492 259.95 342.383 259.819 342.348 260.515C342.302 261.433 343.276 261.934 344.127 262.227C344.675 262.415 345.271 262.453 345.575 262.51V262.506Z" fill="#D1C6C6"/>
<path d="M381.206 293.327C379.069 294.919 376.767 295.131 374.542 295.449C372.219 295.781 369.863 295.795 367.515 295.594C366.922 295.544 366.279 295.449 366.212 294.693C366.155 294.022 366.71 293.786 367.236 293.691C371.572 292.896 375.941 292.508 380.348 292.907C380.559 292.924 380.757 293.101 381.206 293.327Z" fill="#D1C6C6"/>
<path d="M355.639 295.629C354.707 296.074 354.001 295.951 353.347 295.802C350.48 295.138 347.807 293.931 345.112 292.787C344.675 292.599 344.208 292.38 344.3 291.791C344.403 291.141 345.01 291.197 345.423 291.219C349.286 291.416 352.761 292.546 355.639 295.629Z" fill="#D1C6C6"/>
<path d="M345.752 250.564C345.752 250.624 345.752 250.68 345.752 250.74C345.734 254.028 345.201 254.621 341.941 254.904C341.051 254.981 340.239 254.759 340.794 253.647C341.839 251.549 342.997 249.511 344.148 247.47C344.388 247.04 344.667 246.436 345.342 246.686C345.896 246.891 345.773 247.474 345.79 247.922C345.826 248.802 345.801 249.684 345.801 250.564C345.787 250.564 345.769 250.564 345.755 250.564H345.752ZM344.385 250.507C343.771 251.365 343.237 252.061 342.969 252.972C344.879 253.113 344.901 253.078 344.385 250.507Z" fill="#D1C6C6"/>
<path d="M337.591 243.896C338.612 244.073 339.72 244.218 340.801 244.472C341.373 244.606 341.956 244.945 341.92 245.651C341.878 246.474 341.175 246.686 340.529 246.721C339.205 246.796 337.976 246.407 336.86 245.697C336.397 245.404 335.96 245.016 336.15 244.415C336.362 243.741 337.015 244.006 337.595 243.893L337.591 243.896Z" fill="#D1C6C6"/>
<path d="M309.754 101.389C309.659 102.283 310.256 103.24 309.493 103.699C308.303 104.412 306.979 104.931 305.658 105.38C305.178 105.542 305.065 104.966 305.139 104.521C305.785 100.598 306.424 96.6786 307.081 92.7589C307.166 92.2433 307.272 91.6501 307.989 91.6748C308.698 91.703 308.766 92.3175 308.822 92.826C309.154 95.7322 309.461 98.6419 309.758 101.389H309.754ZM306.17 103.904C307.907 103.504 308.977 103.038 308.345 101.153C308.006 100.146 308.017 99.0233 307.872 97.9498C307.784 97.9463 307.696 97.9392 307.611 97.9357C307.152 99.839 306.693 101.739 306.17 103.904Z" fill="#D1C6C6"/>
<path d="M311.742 110.288C310.976 110.203 310.093 110.394 309.949 109.44C309.818 108.589 310.63 108.451 311.223 108.257C313.148 107.618 314.839 106.601 316.351 105.249C317.029 104.638 317.901 104.069 318.66 104.963C319.426 105.859 318.897 106.746 318.12 107.406C316.252 108.995 314.211 110.213 311.742 110.288Z" fill="#D1C6C6"/>
<path d="M312.858 92.9174C312.869 91.8474 313.003 90.7951 314.055 90.947C315.566 91.1624 315.74 92.5855 315.803 93.8285C315.842 94.6124 315.598 95.4952 314.564 95.3787C313.01 95.2021 313.003 93.8814 312.854 92.9174H312.858Z" fill="#D1C6C6"/>
<path d="M299.644 95.6054C299.729 94.8179 299.944 94.1046 300.873 94.2424C302.098 94.426 302.557 95.3582 302.639 96.4847C302.695 97.2722 302.384 97.9325 301.498 97.8937C300.054 97.8336 299.852 96.6718 299.644 95.6019V95.6054Z" fill="#D1C6C6"/>
<path d="M132.44 182.883C129.509 182.386 127.023 181.121 125.434 178.462C125.049 177.816 124.572 176.993 125.338 176.4C126.069 175.832 126.659 176.559 127.104 177.064C128.672 178.851 130.557 179.995 132.952 180.306C133.785 180.415 134.671 180.793 134.467 181.856C134.269 182.88 133.315 182.855 132.443 182.883H132.44Z" fill="#D1C6C6"/>
<path d="M137.913 176.527C137.14 176.036 136.045 175.651 135.445 174.882C134.83 174.098 135.816 173.406 136.342 172.837C137.814 171.252 139.343 169.712 140.858 168.165C141.148 167.869 141.497 167.586 141.939 167.858C142.377 168.126 142.32 168.504 142.119 168.924C141.003 171.241 139.905 173.564 138.799 175.884C138.644 176.209 138.489 176.52 137.91 176.524L137.913 176.527ZM139.474 171.905C139.386 171.859 139.297 171.813 139.209 171.767C138.697 172.24 138.224 172.773 137.662 173.18C136.416 174.084 136.508 174.772 137.97 175.387C138.475 174.221 138.976 173.063 139.477 171.905H139.474Z" fill="#D1C6C6"/>
<path d="M133.312 164.397C135.229 165.301 135.745 168.26 134.248 169.817C133.707 170.379 133.061 170.566 132.327 170.231C131.599 169.902 131.271 169.298 131.334 168.525C131.469 166.894 132.03 165.453 133.344 164.376C133.347 164.372 133.312 164.393 133.312 164.393V164.397Z" fill="#D1C6C6"/>
<path d="M146.215 168.928C146.063 170.012 146.158 171.202 144.968 171.823C144.453 172.092 143.905 171.993 143.51 171.594C142.549 170.63 143.044 169.542 143.323 168.483C143.584 167.49 144.167 166.625 145.209 166.777C146.31 166.939 146.137 168.073 146.211 168.928H146.215Z" fill="#D1C6C6"/>
<path d="M112.103 171.339C112.145 170.743 112.431 170.407 112.993 170.425C113.657 170.45 114.123 170.792 114.155 171.491C114.179 172.056 113.826 172.339 113.272 172.349C112.562 172.36 112.216 171.954 112.107 171.339H112.103Z" fill="#D1C6C6"/>
<path d="M88.7755 310.471C87.7444 309.224 87.868 307.988 88.0128 306.766C88.0622 306.353 88.3341 305.933 88.7861 305.919C89.2593 305.905 89.51 306.35 89.5524 306.752C89.6866 308.02 89.8526 309.316 88.772 310.471H88.7755Z" fill="#D1C6C6"/>
</svg>
