<svg width="562" height="562" viewBox="0 0 562 562" fill="none" xmlns="http://www.w3.org/2000/svg">
<path d="M77.771 287.749C74.7063 286.418 72.0851 284.983 69.6703 283.2C69.1039 282.779 68.4804 282.726 67.8218 282.647C59.585 281.646 53.4513 276.158 51.4316 268.013C51.256 267.306 51.177 266.529 50.8213 265.923C44.2573 254.608 45.8599 243.465 51.6468 232.51C55.8091 224.634 62.1974 219.8 71.3036 218.899C76.9675 218.342 82.548 218.992 88.1285 219.751C92.8484 220.397 97.4761 221.428 101.836 223.426C105.845 225.261 109.261 227.826 111.57 231.654C115.039 237.41 113.721 242.442 107.873 245.656C106.92 246.178 106.644 246.543 107.052 247.645C107.886 249.902 108.505 252.237 109.212 254.538C110.029 257.199 111.592 259.232 114.231 260.264C115.728 260.847 116.505 261.989 115.829 263.346C113.058 268.891 114.692 274.533 115.223 280.149C115.438 282.423 115.522 284.662 115.052 286.915C114.024 291.858 110.134 294.515 105.182 293.597C103.377 293.263 101.665 292.636 99.9831 291.907C99.6143 291.749 99.1709 291.292 98.8284 291.775C98.4991 292.236 98.7713 292.697 99.1401 293.127C101.006 295.327 103.425 296.293 106.249 296.328C108.808 296.359 111.381 296.513 113.928 296.311C117.888 295.994 121.041 297.483 123.842 300.087C128.316 304.244 131.789 309.254 135.644 313.935C142.853 322.685 150.063 331.431 157.232 340.212C157.816 340.928 158.313 340.985 159.09 340.704C166.317 338.131 173.64 335.87 181.038 333.855C182.123 333.561 182.334 333.122 182.285 332.041C181.306 310.115 180.986 288.166 180.354 266.23C180.099 257.449 179.897 248.681 180.463 239.909C180.555 238.46 180.463 237.801 178.654 238.218C176.793 238.648 174.887 237.942 173.048 237.498C166.189 235.843 159.687 233.252 153.571 229.74C148.965 227.097 148.003 224.954 149.119 219.769C152.583 203.633 155.397 187.353 159.814 171.432C161.575 165.092 164.099 159.016 166.378 152.851C168.411 147.35 172.09 144.215 177.754 143.166C180.626 142.634 183.471 141.967 186.347 141.449C187.796 141.185 188.827 140.882 189.749 139.337C190.865 137.462 192.884 136.114 194.566 134.599C195.352 133.888 195.738 133.317 195.132 132.198C194.627 131.267 194.294 130.095 194.324 129.045C194.399 126.723 193.319 125.322 191.466 124.115C190.509 123.491 189.763 123.298 188.665 123.535C183.655 124.62 179.585 122.89 176.398 119.039C174.154 116.33 174.075 113.555 176.029 110.587C176.459 109.933 176.494 109.568 176.086 108.884C166.94 93.4681 173.298 73.3239 189.653 65.9301C198.14 62.097 206.759 61.1311 215.544 65.0344C220.519 67.2473 225.731 68.0815 231.166 67.6292C233.585 67.4273 235.93 67.66 237.282 70.088C238.657 72.5555 238.297 75.0318 236.997 77.4116C236.035 79.1678 234.674 80.6211 233.116 81.8461C231.996 82.7242 231.671 83.6682 231.935 85.0688C232.874 90.0609 230.692 93.1036 225.7 93.9466C225.195 94.0301 224.686 94.1354 224.176 94.1486C222.613 94.1881 222.521 94.8336 222.973 96.221C225.559 104.177 227.298 112.317 227.43 120.712C227.54 127.605 223.988 131.574 217.09 132.549C215.861 132.725 214.609 132.716 213.375 132.861C212.721 132.94 211.584 132.233 211.509 133.181C211.426 134.231 211.184 135.71 212.308 136.408C213.415 137.098 214.218 137.993 214.934 138.994C215.58 139.903 216.471 139.952 217.432 140.075C221.055 140.527 224.642 141.128 228.167 142.173C232.409 143.425 235.206 146.098 237.032 150.041C239.223 154.766 240.672 159.745 242.332 164.653C244.514 171.103 247.289 177.285 250.41 183.507C251.596 182.593 252.254 181.386 252.988 180.262C258.015 172.539 262.915 164.732 268.75 157.576C269.334 156.86 269.545 156.087 269.637 155.174C271.815 133.866 273.948 112.554 276.254 91.2596C277.843 76.5773 279.112 61.8687 280.473 47.1645C280.706 44.675 280.679 42.4488 278.853 40.2316C276.35 37.1932 277.154 33.4173 280.324 30.9805C283.577 28.4779 287.463 27.7315 291.401 27.2265C302.207 25.8479 312.845 26.906 323.378 29.4877C334.069 32.1089 344.914 32.5085 355.851 31.7357C363.223 31.2176 370.612 30.8444 378.002 31.121C391.305 31.6172 404.42 30.019 417.504 27.9027C421.754 27.2134 426.005 26.3396 430.338 26.3923C435.234 26.4538 439.339 28.1486 442 32.5216C442.114 32.7104 442.215 32.9168 442.373 33.0617C448.002 38.3612 446.983 44.5828 444.84 50.9449C443.15 55.9677 440.608 60.5691 437.67 64.9553C436.92 66.0793 436.507 67.2297 436.371 68.5996C434.698 85.4025 432.959 102.201 431.251 119.004C430.365 127.733 429.412 136.457 428.674 145.194C428.507 147.183 429.175 149.233 429.363 151.266C430.562 164.021 430.676 176.828 431.168 189.618C431.589 200.656 432.108 211.69 432.731 222.715C433.087 228.976 432.722 229.538 426.496 229.709C424.889 229.753 423.269 229.81 421.671 229.7C420.393 229.613 419.845 229.955 419.726 231.321C419.37 235.364 419.318 235.395 415.217 235.32C410.681 235.241 406.146 235.118 401.615 234.956C400.394 234.912 399.951 235.202 400.091 236.55C401.013 245.353 401.342 254.196 401.764 263.034C402.91 287.147 404.03 311.261 404.78 335.392C404.846 337.438 404.864 339.488 404.947 341.534C404.995 342.702 405.47 343.084 406.611 342.425C407.748 341.771 408.947 341.213 410.159 340.713C411.897 339.989 413.882 339.769 414.08 337.135C414.172 335.936 415.638 335.26 416.736 334.68C429.012 328.195 441.034 321.223 453.608 315.309C455.856 314.251 458.188 313.421 460.664 312.995C462.513 312.674 463.821 311.423 465.266 310.255C468.379 307.744 470.051 304.763 469.924 300.732C469.876 299.173 471.259 297.228 470.227 296.223C469.564 295.577 467.377 296.57 465.863 296.706C463.461 296.921 461.059 297.246 458.64 296.837C455.005 296.227 452.809 293.76 452.682 290.071C452.581 287.178 453.424 284.425 454.148 281.681C455 278.471 455.079 275.402 453.911 272.232C452.761 269.111 453.323 267.618 455.94 265.545C458.056 263.864 460.374 262.45 462.368 260.597C463.255 259.772 463.452 259.21 462.732 258.073C456.124 247.645 457.749 235.733 466.833 227.281C467.259 226.886 467.658 226.447 467.997 225.977C472.159 220.195 477.823 216.88 484.896 216.805C501.396 216.63 515.275 222.557 525.123 236.084C531.691 245.107 533.158 255.675 532.367 266.612C531.766 274.963 529.685 283.047 527.915 291.182C527.577 292.745 527.345 294.19 529.162 295.112C539.568 300.403 542.861 310.466 545.658 320.573C548.393 330.461 546.492 339.997 541.667 348.963C541.096 350.026 540.701 350.983 540.995 352.26C545.034 369.625 538.422 383.443 522.194 391.574C518.858 393.247 515.411 394.678 511.784 395.578C510.555 395.886 510.01 396.491 509.694 397.712C508.285 403.152 507.038 408.649 504.873 413.861C502.621 419.283 498.669 423.195 493.651 426.058C491.104 427.511 488.316 428.113 485.405 427.336C484.115 426.989 483.772 427.322 483.812 428.648C484.347 446.219 478.007 461.455 468.19 475.645C452.84 497.822 432.09 513.492 408.539 525.874C385.936 537.755 361.897 545.566 337.024 550.993C318.851 554.957 300.45 557.311 281.9 558.426C263.841 559.511 245.774 559.511 227.742 557.961C196.397 555.274 165.886 548.828 136.812 536.565C117.278 528.324 98.6396 518.432 82.4558 504.47C72.7174 496.07 64.5815 486.354 58.9967 474.684C50.5579 457.069 49.9827 439.093 56.8672 420.859C57.3809 419.503 57.4863 418.756 56.0725 417.685C53.8596 416.008 53.5084 413.18 53.1396 410.572C52.0814 403.121 51.0321 395.666 50.1232 388.193C49.1265 379.996 46.0399 372.686 41.0785 366.152C37.6714 361.665 34.093 357.314 30.7254 352.8C27.5071 348.493 25.0044 343.813 23.9024 338.469C22.3525 330.961 25.3733 325.139 32.4861 322.25C34.576 321.403 36.7274 320.591 38.9271 320.134C49.2495 317.996 57.6619 312.582 65.0294 305.285C66.07 304.253 67.1017 303.217 68.1906 302.238C70.3815 300.271 72.1598 298.242 72.4056 294.976C72.6427 291.841 74.6975 289.518 77.749 287.736L77.771 287.749ZM192.533 401.071C192.406 401.896 191.716 402.226 191.102 402.116C189.223 401.787 187.22 401.589 185.552 400.764C184.116 400.052 183.133 399.626 181.298 399.758C176.916 400.07 173.012 401.216 169.544 403.723C165.9 406.357 162.093 407.09 157.742 405.923C154.199 404.97 150.655 404.623 146.866 405.101C140.495 405.905 134.028 405.887 127.605 406.291C112.426 407.249 97.2522 408.21 82.0826 409.268C79.5667 409.444 77.6524 408.557 76.0059 406.884C74.6975 405.558 73.5165 404.105 72.1861 402.603C70.2498 405.703 68.3706 408.662 66.5398 411.644C57.1789 426.866 54.4611 443.133 59.1855 460.44C63.1809 475.083 71.9007 486.784 82.7719 497.019C97.6385 511.016 115.175 520.697 133.975 528.214C169.526 542.431 206.71 548.227 244.76 549.21C270.05 549.864 295.182 547.985 320.12 543.608C348.027 538.708 375.087 531.02 400.759 518.88C420.051 509.756 438.017 498.626 453.09 483.285C463.373 472.818 471.575 461.029 475.676 446.729C477.529 440.279 478.319 433.698 477.954 426.998C477.919 426.383 478.516 425 476.8 425.32C470.758 426.462 464.998 425.079 459.417 423.011C451.132 419.942 442.948 416.605 434.711 413.413C430.36 411.727 426.167 409.479 421.495 408.842C416.275 408.131 411.436 406.599 406.866 403.929C402.089 401.141 396.921 399.789 391.297 400.68C389.273 401.001 387.183 400.834 385.255 400.03C383.297 399.218 383.135 397.826 384.601 396.298C385.962 394.88 387.213 393.357 388.526 391.868C387.06 390.907 384.917 390.586 385.325 388.531C385.703 386.648 387.714 386.678 389.255 386.336C389.325 386.318 389.4 386.318 389.475 386.31C392.293 385.914 395.191 385.813 397.909 385.054C401.395 384.079 404.245 384.786 406.813 387.131C408.706 388.856 410.466 390.731 412.424 392.369C416.095 395.442 419.967 398.327 424.973 398.603C437.095 399.271 449.227 399.767 461.354 400.351C462.175 400.39 462.666 400.333 462.829 399.293C463.136 397.352 463.531 395.403 464.159 393.545C464.668 392.035 464.365 390.981 463.417 389.756C452.537 375.733 438.492 365.63 423.173 357.081C422.47 356.69 421.926 356.572 421.206 357.134C414.115 362.701 406.054 366.46 397.716 369.713C397.176 369.924 396.223 369.933 396.535 370.925C398.102 375.93 395.196 379.118 391.955 382.112C390.897 383.091 389.58 384.123 388.03 383.271C386.335 382.341 386.818 380.646 387.007 379.135C387.082 378.556 387.2 377.981 387.332 377.41C387.573 376.343 387.872 375.285 388.087 374.213C388.386 372.712 387.433 371.768 386.3 371.263C385.049 370.705 385.141 372.216 384.667 372.791C383.596 374.082 382.744 375.557 381.646 376.817C380.68 377.924 379.662 379.662 377.962 378.938C376.07 378.134 376.856 376.176 377.014 374.635C377.313 371.79 378.327 369.085 379.082 366.051C374.841 369.116 376.096 373.353 375.934 377.269C373.256 374.841 373.51 371.75 373.752 368.598C371.236 371.087 371.267 373.375 373.752 376.036C374.217 376.532 375.231 376.988 374.647 377.77C374.042 378.578 373.027 378.222 372.233 377.801C371.728 377.528 371.258 377.151 370.854 376.738C367.328 373.142 368.615 367.022 373.616 365.309C376.057 364.475 378.23 363.25 380.483 362.148C383.543 360.651 386.643 359.268 388.965 356.431C391.832 352.928 395.345 349.995 398.972 347.251C399.292 347.009 399.797 346.86 399.7 346.162C394.282 343.958 388.711 342.013 383.073 340.252C350.776 330.167 317.604 325.947 283.871 325.539C259.67 325.245 235.667 327.409 211.847 331.58C194.992 334.531 178.43 338.693 162.207 344.177C160.798 344.651 160.446 344.981 161.118 346.544C165.724 357.274 170.554 367.922 174.259 379.017C174.417 379.491 174.36 380.145 175.045 380.158C177.666 380.211 179.647 382.09 181.675 383.17C184.612 384.733 187.703 386.538 190.123 389.063C190.729 389.69 191.348 390.204 192.182 390.595C194.939 391.899 197.503 396.821 197.148 399.806C196.998 401.062 196.471 402.046 195.159 402.401C193.885 402.744 193.06 402.173 192.542 401.045C193.881 401.475 195.023 401.154 195.655 399.899C196.318 398.577 195.045 395.837 193.24 394.511C193.359 396.772 193.907 399.034 192.546 401.067L192.533 401.071ZM296.74 130.073C297.333 130.986 298.163 130.643 298.826 130.824C300.661 131.324 301.636 133.361 300.297 134.49C298.29 136.18 298.83 138.595 298.294 140.544C297.21 144.483 296.099 146.384 291.871 146.898C289.944 147.13 288.525 148.254 286.804 148.759C286.111 148.961 286.128 149.352 286.233 149.918C286.681 152.25 285.966 154.414 285.158 156.539C281.764 165.461 277.066 173.716 272.034 181.781C270.818 183.735 270.269 185.715 270.067 187.919C269 199.712 267.964 211.51 266.761 223.294C266.559 225.253 266.884 225.749 268.877 225.819C289.483 226.57 310.083 227.514 330.689 228.234C358.613 229.213 386.542 230.038 414.44 231.672C415.713 231.746 416.218 231.501 416.358 230.109C417.425 219.268 418.584 208.441 419.704 197.609C421.381 181.395 423.028 165.18 424.727 148.97C426.54 131.667 428.411 114.372 430.242 97.0728C431.945 81.0075 433.605 64.9422 435.365 48.8857C435.559 47.1382 434.935 46.6289 433.407 46.6113C430.773 46.585 428.138 46.5542 425.508 46.5103C379.359 45.7771 333.191 45.7947 287.072 43.507C283.911 43.3489 283.964 43.3665 283.639 46.5103C282.738 55.2345 281.733 63.9455 280.872 72.6741C279.7 84.5288 278.62 96.3922 277.509 108.251C276.535 118.657 275.569 129.067 274.603 139.477C274.256 143.196 273.918 146.92 273.54 151.042C275.437 149.383 276.183 147.249 278.076 146.344C279.086 145.861 279.226 145.181 279.257 144.263C279.327 142.085 278.51 140.105 277.856 138.099C277.206 136.114 277.202 134.217 278.278 132.395C280.543 128.558 282.818 124.725 285.109 120.901C285.531 120.198 286.097 119.54 287.037 119.742C288.06 119.961 288.367 120.835 288.446 121.739C288.56 123.074 288.578 124.418 288.64 125.757C296.758 105.85 304.437 85.8064 314.478 66.7818C312.138 76.6959 308.38 86.0918 304.674 95.5009C300.99 104.857 297.113 114.135 293.184 123.785C296.595 121.722 298.835 121.432 299.915 123.083C302.378 126.85 298.821 128.237 296.736 130.073H296.74ZM233.603 170.3C234.494 171.156 234.393 172.06 234.472 172.925C235.271 181.597 235.706 190.29 235.803 198.992C235.838 202.246 236.264 205.051 239.306 207.119C241.278 208.459 242.806 208.823 244.825 207.457C248.061 205.28 251.069 202.839 253.708 199.989C265.953 186.764 275.068 171.503 282.594 155.227C283.107 154.116 283.397 152.873 283.595 151.657C283.862 150.041 282.58 149.58 281.399 149.11C280.35 148.693 279.507 148.707 278.747 149.778C272.03 159.262 264.491 168.153 258.546 178.19C256.873 181.017 255.064 183.788 252.803 186.202C250.634 188.521 248.729 188.178 247.455 185.245C246.147 182.233 244.988 179.151 243.653 176.152C240.097 168.148 237.664 159.679 233.401 151.956C231.447 148.417 228.852 145.945 225.054 144.672C222.517 143.82 219.992 142.928 217.406 142.033C217.261 142.99 217.902 143.486 218.223 144.096C219.452 146.419 220.756 148.702 221.994 151.025C222.416 151.811 222.701 152.698 222.025 153.488C221.296 154.344 220.313 154.265 219.399 153.896C217.99 153.33 216.62 152.658 215.026 151.942C214.943 154.897 214.153 157.72 214.864 160.544C218.521 175.002 220.73 189.759 223.913 204.301C225.84 213.099 224.137 221.235 222.372 229.556C221.775 232.379 219.505 233.059 217.2 231.325C215.918 230.359 214.855 229.099 213.551 228.172C209.797 225.503 208.533 221.933 208.656 217.376C209.156 198.948 209.389 180.512 209.85 162.08C209.916 159.398 208.866 157.391 207.404 155.174C207.101 156.087 206.904 156.79 206.64 157.466C205.727 159.793 204.454 160.065 202.772 158.278C202.32 157.8 201.929 157.268 201.512 156.759C198.228 152.737 194.944 148.715 191.651 144.698C191.111 144.039 190.68 143.346 189.508 143.67C185.148 144.874 180.766 146.006 176.367 147.06C173.276 147.798 171.247 149.602 169.939 152.474C167.818 157.132 165.829 161.843 164.222 166.699C158.414 184.244 155.827 202.5 152.289 220.55C151.652 223.799 152.925 225.595 155.568 227.119C162.743 231.255 170.47 233.762 178.527 235.474C180.134 235.817 180.301 235.193 180.332 234.082C180.402 231.667 180.389 229.253 180.419 226.842C180.424 226.306 180.327 225.903 179.756 225.608C176.788 224.089 174.466 221.714 171.989 219.562C171.081 218.772 170.668 218.904 169.983 219.76C169.03 220.959 168.161 222.298 166.422 223.145C166.624 222.447 166.703 222.03 166.866 221.652C170.883 212.287 176.85 203.989 181.535 194.984C181.925 194.237 182.206 193.631 182.171 192.819C181.833 185.074 179.849 177.689 177.227 170.449C175.735 166.33 174.185 162.234 172.696 158.116C172.49 157.545 172.156 156.719 172.885 156.373C173.526 156.065 173.838 156.877 174.185 157.299C174.554 157.747 174.848 158.261 175.133 158.77C177.385 162.8 179.093 167.059 180.485 171.463C183.005 179.437 182.997 187.752 183.901 195.941C185.161 207.295 185.635 218.693 184.898 230.113C184.792 231.764 185.381 232.537 186.953 233.138C198.882 237.7 211.277 238.569 223.86 237.942C226.762 237.797 229.458 236.91 231.539 234.666C232.066 234.095 232.391 233.542 232.396 232.743C232.4 230.917 232.598 229.081 232.501 227.259C231.596 210.145 231.816 193.03 232.734 175.924C232.83 174.084 232.892 172.183 233.585 170.286L233.603 170.3ZM354.999 258.648C354.824 253.761 354.648 244.47 354.754 235.18C354.767 233.867 354.547 233.222 353.002 233.169C336.629 232.598 320.256 231.975 303.888 231.303C302.422 231.241 302.11 231.698 301.996 233.094C301.385 240.449 300.635 247.794 299.941 255.144C297.939 276.469 295.66 297.764 293.144 319.032C292.951 320.648 293.412 320.872 294.786 320.907C315.08 321.425 335.167 323.787 355.052 327.818C356.681 328.147 356.953 327.633 356.874 326.224C356.716 323.304 356.62 320.38 356.545 317.456C356.062 299.323 355.588 281.189 354.999 258.661V258.648ZM236.308 209.35C236.308 210.395 236.281 211.198 236.308 212.002C236.589 219.088 237.164 226.17 236.685 233.274C236.567 235.026 236.114 236.458 233.994 236.598C233.054 236.66 232.738 237.129 233.124 238.073C233.695 239.461 233.616 240.945 233.607 242.407C233.528 255.434 232.721 268.435 232.343 281.448C231.952 294.98 232.167 308.517 232.277 322.053C232.29 323.651 232.94 323.686 234.117 323.497C240.114 322.549 246.182 322.307 252.224 321.807C259.736 321.183 267.266 320.92 274.791 320.674C276.192 320.63 276.605 320.2 276.719 318.795C277.048 314.716 277.575 310.655 278.049 306.593C279.604 293.242 281.127 279.885 282.747 266.542C284.113 255.302 285.575 244.071 287.054 232.844C287.27 231.224 287.094 230.535 285.175 230.508C278.594 230.42 272.012 230.157 265.435 229.885C262.932 229.779 262.05 228.871 262.265 226.71C262.989 219.365 263.789 212.024 264.544 204.683C264.974 200.516 265.374 196.345 265.786 192.178C264.772 192.766 264.201 193.487 263.635 194.207C259.24 199.813 254.406 204.99 248.645 209.227C243.135 213.279 241.888 213.284 236.299 209.363L236.308 209.35ZM71.8919 302.137C66.8164 308.683 60.6783 313.346 55.0319 318.527C51.1857 322.057 48.9246 326.505 47.8664 331.567C46.2726 339.207 47.7918 346.526 50.2637 353.731C53.8596 364.229 59.5938 373.7 64.5771 383.53C67.7516 389.796 71.3694 395.789 75.3386 401.589C78.131 405.677 81.5996 407.49 86.64 406.717C93.1338 405.725 99.6714 404.9 106.222 404.408C119.491 403.415 132.785 402.717 146.063 401.866C150.089 401.607 150.054 401.558 149.65 397.488C149.527 396.254 149.198 395.504 147.806 395.28C141.387 394.252 134.99 393.115 128.509 392.487C120.36 391.701 112.172 391.429 104.044 390.345C95.5881 389.216 88.8661 385.669 84.4667 378.003C80.1244 370.446 76.3791 362.618 72.814 354.688C70.4474 349.428 67.993 344.204 66.2368 338.693C66.0173 338.008 65.5738 337.179 66.5485 336.814C67.3257 336.524 67.6945 337.328 68.015 337.868C68.5726 338.807 69.0644 339.791 69.5386 340.779C72.3793 346.706 75.1981 352.647 78.0476 358.57C81.0859 364.888 84.0583 371.245 87.8738 377.16C88.4051 377.985 88.7695 378.793 89.9769 377.779C95.351 373.248 101.116 369.239 107.026 365.441C107.755 364.976 107.952 364.699 107.539 363.764C102.06 351.303 97.6254 338.491 94.8812 325.126C94.7803 324.639 94.9339 324.024 94.4641 323.704C91.8561 321.912 90.0647 319.331 88.067 316.929C84.774 321.131 81.9596 321.28 78.5086 317.517C77.9159 316.872 77.3758 316.174 76.8797 315.454C74.2102 311.594 72.7832 307.248 71.9051 302.124L71.8919 302.137ZM231.43 238.574C230.262 239.158 229.384 239.667 228.453 240.045C227.439 240.449 226.398 240.848 225.331 241.041C212.186 243.474 199.422 242.231 187.159 236.818C185.192 235.948 185.06 236.545 185.047 238.267C184.964 248.655 184.92 259.039 185.104 269.427C185.464 289.826 185.275 310.242 186.957 330.601C187.036 331.559 186.913 332.318 188.344 331.941C195.549 330.057 202.842 328.538 210.157 327.146C210.956 326.992 211.325 326.76 211.136 325.873C210.399 322.408 210.517 318.887 210.587 315.383C210.903 300.464 211.202 285.545 211.711 270.634C211.883 265.704 212.032 260.729 213.252 255.307C213.397 256.36 213.507 256.852 213.525 257.344C213.749 263.407 214.065 269.471 214.157 275.539C214.363 289.145 214.456 302.752 214.6 316.354C214.631 319.208 214.706 322.057 214.728 324.911C214.732 325.763 214.851 326.329 215.935 326.154C219.9 325.508 223.869 324.894 227.843 324.296C228.8 324.152 229.129 323.743 229.116 322.707C229.041 315.322 229.006 307.933 229.032 300.548C229.098 284.671 229.546 268.808 230.372 252.953C230.617 248.233 230.898 243.518 231.425 238.565L231.43 238.574ZM466.513 385.26C467.092 383.263 467.566 381.669 468.014 380.066C469.38 375.223 470.714 370.372 472.119 365.538C472.304 364.91 472.471 363.878 473.401 364.018C474.341 364.163 474.187 365.156 474.135 365.832C473.985 367.799 473.827 369.766 473.516 371.711C472.062 380.821 469.23 389.581 466.574 398.384C466.24 399.486 465.95 400.531 466.376 401.773C468.076 406.678 470.622 411.077 474.341 414.664C477.094 417.321 480.584 418.124 484.312 417.048C487.346 416.175 489.085 413.773 490.45 411.125C494.046 404.136 495.987 396.549 498.292 389.093C498.446 388.593 498.419 388.092 498.195 387.596C497.453 385.932 497.515 384.22 497.752 382.441C498.222 378.885 499.034 375.408 499.842 371.922C500.852 367.57 501.594 363.184 501.409 358.688C501.216 353.955 499.192 351.905 494.468 351.799C491.372 351.729 488.378 352.445 485.401 353.204C479.592 354.688 473.805 356.186 467.702 355.685C461.073 355.141 455.887 351.136 454.021 344.831C452.945 341.196 452.849 337.481 453.336 333.749C453.608 331.651 454.043 329.578 454.482 327.036C450.86 330.733 447.383 333.855 443.747 336.783C437.846 341.538 434.839 347.804 433.684 355.163C433.464 356.554 433.763 357.261 434.944 357.981C439.067 360.493 443.001 363.285 446.816 366.244C453.947 371.768 460.44 377.95 466.504 385.265L466.513 385.26ZM144.592 351.4C145.848 352.664 146.493 353.801 147.02 354.974C148.1 357.371 149.07 359.812 150.107 362.227C153.43 369.972 157.342 377.388 162.321 384.215C163.028 385.181 163.454 385.783 164.438 384.347C165.983 382.099 168.051 380.69 170.993 381.726C171.397 381.866 171.761 381.822 171.902 381.436C171.976 381.238 171.805 380.914 171.678 380.685C167.133 372.734 163.603 364.321 160.565 355.711C157.852 348.028 153.869 341.165 148.543 334.992C142.287 327.739 136.245 320.301 130.103 312.947C127.06 309.298 124.263 305.443 120.869 302.093C118.964 300.209 116.812 299.068 114.059 299.094C110.49 299.129 106.912 299.156 103.092 298.045C103.908 299.485 104.563 300.591 105.168 301.724C106.692 304.569 108.058 307.467 108.079 310.804C108.11 314.865 106.011 316.38 102.161 315.054C100.349 314.431 99.3948 315.055 99.2982 316.929C99.2455 317.952 99.3158 319.006 99.0787 319.985C98.8416 320.955 99.0787 321.649 99.6099 322.413C102.877 327.102 105.529 332.142 108.101 337.231C111.394 343.751 114.626 350.302 118.235 356.664C119.008 358.025 119.618 358.144 120.9 357.384C122.907 356.194 124.97 355.053 127.126 354.175C128.913 353.446 128.974 352.62 128.408 350.899C124.395 338.755 121.054 326.435 119.245 313.741C119.091 312.661 118.709 311.515 120.048 309.965C122.863 329.135 129.971 345.512 145.65 357.13C145.483 355.325 144.241 353.749 144.596 351.395L144.592 351.4ZM374.827 234.447C374.827 234.245 374.827 234.047 374.827 233.845C372.268 233.845 369.708 233.893 367.153 233.823C366.064 233.792 365.862 234.047 365.941 235.184C367.139 253.138 367.622 271.126 368.356 289.106C368.905 302.554 369.322 316.007 369.765 329.46C369.805 330.641 370.112 331.251 371.385 331.598C376.461 332.972 381.51 334.448 386.528 336.011C387.925 336.445 388.149 336.081 388.092 334.794C387.74 327.269 387.442 319.743 387.126 312.213C386.458 296.284 385.751 280.355 385.137 264.421C384.768 254.92 384.518 245.414 384.28 235.913C384.25 234.714 383.815 234.416 382.731 234.433C380.101 234.477 377.471 234.447 374.836 234.447H374.827ZM152.556 392.689C155.121 392.654 157.219 391.776 159.375 391.087C161.794 390.314 162.343 388.378 160.618 386.525C159.722 385.563 158.835 384.575 158.067 383.517C153.404 377.076 149.865 370.064 147.428 362.49C147.152 361.626 147.077 360.62 145.988 360.181C143.156 359.035 140.917 357.015 138.691 355.009C137.808 354.214 137.123 354.052 135.999 354.579C121.436 361.362 107.592 369.314 95.013 379.372C91.3687 382.288 91.4302 382.674 95.8999 384.58C101.353 386.907 107.179 387.517 112.993 388.114C121.642 389.001 130.344 389.405 138.954 390.674C143.573 391.354 148.24 391.693 152.548 392.689H152.556ZM360.062 42.3039C363.355 42.3039 366.643 42.2381 369.936 42.3171C390.19 42.8045 410.44 43.305 430.689 43.8626C432.336 43.9067 432.696 43.4279 432.406 41.8912C431.862 38.9934 432.845 36.4468 434.404 34.032C434.909 33.2505 436.441 32.7412 435.857 31.762C435.357 30.9278 433.943 30.8225 432.845 30.7215C431.756 30.6205 430.659 30.559 429.565 30.6029C425.315 30.7698 421.149 31.5952 416.977 32.3065C405.07 34.335 393.132 35.9375 381.005 35.3975C374.713 35.1165 368.422 35.3668 362.147 35.797C348.962 36.7015 335.848 36.6225 322.873 33.7378C312.647 31.4635 302.329 30.919 291.924 32.0562C289.079 32.368 286.291 32.9607 283.766 34.392C282.449 35.1428 281.5 36.2361 282.273 37.8079C283.068 39.4193 283.094 41.8341 285.917 41.6322C288.539 41.4434 291.173 41.3248 293.803 41.3117C315.892 41.2063 337.977 41.7463 360.062 42.3039ZM188.279 93.8852C189.684 95.8346 191.392 96.2473 192.788 97.1035C195.861 98.9959 196.972 101.406 195.611 104.699C194.452 107.509 194.513 110.21 195.071 113.046C195.492 115.188 195.721 117.357 193.398 118.644C191.585 119.645 189.201 118.697 187.335 116.387C187.15 116.159 186.953 115.935 186.817 115.68C185.811 113.779 183.941 113.296 182.083 112.897C180.894 112.638 179.708 112.857 178.984 114.003C178.299 115.088 178.698 116.159 179.313 117.09C181.179 119.895 183.822 121.094 187.194 120.804C189.258 120.628 190.944 120.286 193.179 121.937C196.731 124.562 201.055 126.354 205.398 127.697C209.635 129.01 213.92 129.774 218.293 128.198C221.279 127.122 222.96 125.16 223.105 121.875C223.448 114.06 222.06 106.456 220.343 98.8993C219.439 94.917 219.347 94.9433 215.18 94.7018C214.741 94.6755 214.306 94.614 213.867 94.5921C205.503 94.175 197.152 93.3627 188.274 93.8852H188.279ZM390.322 234.666C389.51 234.618 388.772 234.635 388.052 234.521C386.34 234.253 385.606 234.811 385.949 236.633C386.177 237.849 386.252 239.096 386.318 240.339C387.2 257.344 388.105 274.344 388.935 291.349C389.646 305.952 390.3 320.556 390.906 335.163C390.976 336.84 391.349 337.872 393.158 338.263C394.642 338.584 396.047 339.277 397.492 339.795C399.595 340.551 399.599 340.493 399.415 338.193C398.699 329.161 397.931 320.13 397.369 311.085C396.601 298.682 395.898 286.274 395.358 273.861C394.858 262.393 394.396 250.92 394.436 239.439C394.44 237.994 395.314 236.22 394.436 235.202C393.545 234.174 391.661 234.991 390.326 234.675L390.322 234.666ZM386.401 397.976C388.193 398.652 389.593 398.63 390.963 398.432C397.953 397.431 404.284 399.271 410.225 402.805C412.776 404.32 415.507 405.29 418.435 405.668C422.36 406.173 426.215 407.016 429.895 408.465C439.466 412.236 449.314 415.266 458.741 419.424C463.32 421.443 468.146 422.629 473.169 422.725C475.794 422.774 478.231 422.054 480.238 419.933C475.074 418.295 473.142 417 469.915 412.904C467.79 410.203 465.749 407.429 464.098 404.417C463.312 402.981 462.403 402.573 460.822 402.63C449.639 403.02 438.461 403.042 427.273 402.774C421.711 402.643 417.07 400.851 412.842 397.392C409.711 394.832 407.077 391.794 404.179 389.014C401.746 386.683 399.494 386.696 396.868 389.014C397.804 388.887 398.59 388.716 399.38 388.698C400.096 388.681 401.04 388.698 401.233 389.506C401.505 390.639 400.315 390.432 399.744 390.626C398.067 391.196 396.328 391.596 394.607 392.755C396.829 392.733 398.844 391.873 401.105 393.55C395.828 394.292 391.266 395.833 386.414 397.976H386.401ZM93.608 248.044C94.1436 248.826 94.4246 249.23 94.7012 249.638C97.3927 253.585 97.1073 257.309 93.8319 260.746C93.0284 261.59 91.6761 262.261 91.4478 263.214C91.1624 264.426 92.8352 265.054 93.485 266.077C94.7627 268.092 94.2007 270.336 91.8737 272.149C89.955 273.646 88.6202 273.449 86.8288 271.389C85.8717 270.287 84.9935 269.106 83.7422 268.298C79.4614 265.545 74.838 267.293 74.4165 271.833C73.9775 276.531 79.1365 280.834 83.5929 279.31C85.1297 278.783 85.8541 279.139 86.482 280.417C87.2108 281.901 88.3216 282.774 90.0472 282.924C90.7277 282.981 91.3731 283.477 92.0273 283.784C95.8516 285.593 99.5836 287.622 103.632 288.921C109.019 290.647 111.539 288.904 111.939 283.24C111.974 282.739 111.943 282.23 111.943 281.628C111.552 281.747 111.263 281.795 111.017 281.918C109.998 282.432 108.817 282.607 108.33 281.497C107.746 280.162 109.282 280.368 109.928 280.056C111.838 279.13 112.571 277.808 111.772 275.609C109.77 277.146 107.926 278.695 105.546 279.363C104.268 279.718 102.978 279.868 102.13 278.726C101.191 277.462 101.854 276.201 102.705 275.13C104.365 273.04 106.31 270.933 108.813 270.296C112.189 269.44 112.9 267.201 113.287 264.408C113.296 264.338 113.3 264.259 113.331 264.193C113.805 263.214 113.682 262.678 112.461 262.34C109.37 261.484 107.645 259.21 106.679 256.268C105.836 253.691 105.353 251.03 104.984 248.356C104.835 247.267 104.396 246.969 103.408 247.232C100.343 248.053 97.2083 248.137 93.6124 248.044H93.608ZM282.651 320.573C283.529 320.573 284.407 320.525 285.281 320.586C286.312 320.657 286.633 320.239 286.721 319.216C287.23 313.394 287.792 307.577 288.389 301.764C290.615 280.035 293.026 258.327 295.95 236.681C296.2 234.837 297.618 232.335 296.468 231.342C295.291 230.324 292.714 230.952 290.76 230.785C289.737 230.697 289.36 231 289.285 232.076C289.105 234.622 288.78 237.16 288.49 239.698C287.107 251.816 285.772 263.938 284.315 276.048C282.673 289.676 280.899 303.287 279.226 316.916C278.778 320.564 278.862 320.573 282.646 320.582L282.651 320.573ZM472.321 303.876C473.27 303.217 474.06 302.734 474.78 302.163C481.3 297 481.05 293.672 477.287 288.71C477.111 288.478 476.98 288.214 476.813 287.973C474.903 285.229 474.345 282.19 475.18 279.003C475.513 277.725 475.144 276.983 474.367 276.105C472.203 273.668 470.451 270.898 469.884 267.697C469.463 265.308 468.172 263.824 466.455 262.402C465.735 261.805 465.358 261.717 464.712 262.45C462.574 264.891 459.988 266.81 457.261 268.531C455.799 269.458 455.352 270.661 455.786 272.254C456.559 275.099 456.792 278.01 456.739 280.935C456.708 282.52 457.283 282.432 458.399 281.848C459.725 281.15 461.029 280.245 462.877 280.719C462.052 283.143 460.142 284.285 458.109 285.294C457.608 285.54 456.976 285.488 456.708 286.177C455.435 289.426 457.718 293.158 461.195 293.211C464.041 293.255 466.89 292.969 469.735 292.89C471.75 292.833 473.753 292.943 475.755 293.615C475.263 294.589 474.376 294.629 473.687 294.945C473.177 295.178 472.844 295.371 472.809 296.008C472.677 298.541 472.497 301.07 472.312 303.88L472.321 303.876ZM361.656 259.385C361.366 251.425 360.808 243.465 361.085 235.5C361.173 232.892 359.566 233.709 358.292 233.498C356.593 233.217 356.431 234.047 356.501 235.483C356.958 245.041 357.445 254.604 357.717 264.167C358.288 284.184 358.74 304.201 359.214 324.222C359.32 328.775 359.267 328.779 363.653 329.684C363.868 329.728 364.092 329.728 364.303 329.793C365.247 330.083 365.664 329.842 365.559 328.766C365.392 327.093 365.335 325.416 365.216 323.739C363.75 302.304 362.67 280.847 361.66 259.385H361.656ZM422.843 352.857C419.853 349.85 417.935 346.298 415.774 342.926C414.852 341.486 414.062 341.407 412.613 342.118C403.424 346.61 395.665 352.95 388.711 360.357C387.53 361.617 387.718 362.605 389.04 363.623C390.427 364.69 391.797 365.801 393.04 367.026C394.036 368.005 394.963 368.089 396.179 367.535C399.165 366.179 402.243 365.011 405.193 363.588C411.384 360.603 417.184 356.963 422.843 352.857ZM456.95 317.118C455.747 317.096 455.084 317.583 454.399 317.948C442.478 324.318 430.566 330.711 418.655 337.099C418.334 337.271 418.027 337.477 417.706 337.653C416.754 338.18 416.556 338.812 417.201 339.778C419.111 342.632 420.999 345.503 422.83 348.41C424.472 351.018 426.9 351.176 429.574 350.789C430.378 350.675 430.659 350.219 430.79 349.494C432.34 341.192 437.275 335.172 443.646 329.987C448.348 326.158 452.673 321.886 456.945 317.118H456.95ZM162.73 403.569C164.574 403.732 166.426 402.511 168.271 401.33C170.87 399.657 173.561 398.204 176.67 397.8C178.084 397.615 177.798 397.049 177.197 396.276C175.625 394.257 174.141 392.175 172.903 389.936C172.226 388.716 171.59 388.896 170.707 389.726C169.324 391.021 167.968 392.364 166.308 393.317C164.337 394.45 162.334 395.262 160.205 393.673C159.74 393.326 159.252 393.361 158.756 393.559C157.241 394.16 155.656 394.397 154.041 394.388C153.013 394.388 152.842 394.885 152.921 395.776C153.097 397.738 153.228 399.705 153.312 401.668C153.338 402.318 153.549 402.621 154.199 402.581C156.93 402.41 159.52 403.459 162.734 403.569H162.73ZM393.944 529.777C338.346 551.915 280.543 558.575 221.186 554.343C280.82 560.534 338.574 553.526 393.944 529.777ZM81.7445 292.219C81.143 294.664 82.1967 296.574 83.9442 298.225C85.6434 299.832 87.2899 301.5 89.0768 303.002C91.1404 304.727 91.7946 304.525 93.0503 302.203C95.0569 298.493 95.2061 294.37 95.6759 290.322C95.7067 290.076 95.5837 289.681 95.3993 289.558C94.1217 288.71 92.8528 287.832 91.4917 287.134C90.5126 286.634 89.7574 287.63 88.8792 287.881C87.0396 288.412 85.178 288.829 83.2724 288.702C82.0518 288.623 81.705 289.114 81.7401 290.19C81.7621 290.849 81.7401 291.507 81.7401 292.223L81.7445 292.219ZM78.2539 291.692C76.7962 292.64 76.0367 294.093 75.7688 295.626C74.399 303.445 76.4143 310.391 81.6479 316.332C83.1407 318.027 84.2603 317.776 85.4414 315.814C86.8991 313.394 87.3689 310.65 87.9967 307.946C88.2426 306.888 87.9836 306.356 87.1713 305.764C84.7433 303.985 82.649 301.852 80.6161 299.639C78.9828 297.86 78.21 295.854 78.4559 293.444C78.5086 292.908 78.772 292.315 78.2539 291.692ZM204.348 156.759C205.376 153.347 205.665 150.151 206.82 147.187C207.145 146.358 206.434 146.028 205.964 145.616C203.497 143.438 201.323 140.992 199.33 138.38C197.855 136.442 196.281 136.4 194.61 138.252C194.267 138.63 193.956 139.056 193.552 139.354C192.292 140.277 192.498 141.229 193.35 142.296C195.163 144.575 196.976 146.858 198.737 149.181C200.572 151.596 202.346 154.05 204.348 156.768V156.759ZM511.319 392.193C522.41 388.808 532.28 384.189 537.338 373.01C539.766 367.649 540.437 357.31 538.567 354.495C538.29 362.368 537.917 364.558 535.252 369.862C530.506 379.302 523.933 386.744 513.088 389.194C511.371 389.581 511.499 390.74 511.323 392.189L511.319 392.193ZM389.123 381.001C392.746 379.39 394.98 375.175 394.291 371.5C394.181 370.916 393.878 370.71 393.461 370.385C390.643 368.194 387.789 366.025 385.137 363.645C384.228 362.829 383.74 363.052 383.244 363.707C380.215 367.698 379.13 372.361 378.287 377.607C379.622 376.892 380.206 376.163 380.786 375.434C382.116 373.774 383.214 371.965 384.074 370.02C384.474 369.116 384.996 368.563 386.085 368.822C388.763 369.463 390.502 372.246 390.037 375.008C389.703 376.984 388.851 378.894 389.128 381.006L389.123 381.001ZM98.1391 296.728C96.8878 300.192 96.2423 303.45 94.1085 306.071C93.5377 306.773 94.2885 307.094 94.6968 307.441C96.8087 309.245 99.1138 310.782 101.625 311.963C102.67 312.455 103.9 313.618 105.006 312.609C106.073 311.634 105.458 310.137 105.151 308.885C104.927 307.976 104.567 307.085 104.181 306.229C102.675 302.892 100.356 300.082 98.1435 296.728H98.1391ZM180.459 222.93C180.244 214.641 181.535 206.988 181.802 199.229C179.322 205.622 175.678 211.33 171.972 217.174C175.181 218.324 177.592 220.449 180.459 222.93ZM286.611 123.39C284.864 126.494 283.441 129.247 281.799 131.868C280.482 133.972 279.867 136.013 280.785 138.454C281.184 139.517 281.527 140.86 281.224 141.879C280.293 145.01 281.364 146.678 284.403 147.512C285.092 147.701 285.566 148.351 286.194 147.446C287.002 146.279 285.825 146.336 285.338 146.028C282.624 144.307 282.484 142.318 284.991 140.338C285.448 139.978 286.036 139.807 285.737 139.016C284.973 136.97 286.058 135.649 287.63 134.635C288.38 134.152 288.622 133.642 288.279 132.843C287.314 132.874 286.475 134.296 285.496 133.335C284.613 132.47 285.474 131.421 285.685 130.472C286.172 128.303 286.87 126.161 286.611 123.386V123.39ZM196.871 128.352C196.616 128.922 196.779 129.348 196.976 129.73C199.699 135.034 203.141 139.82 207.488 143.912C208.765 145.111 209.261 144.004 209.485 142.889C209.88 140.931 209.674 138.964 209.468 136.997C209.389 136.22 209.081 135.855 208.282 135.723C206.061 135.35 204.199 134.187 202.46 132.826C200.59 131.359 198.75 129.862 196.871 128.356V128.352ZM539.498 347.229C543.937 338.812 545.254 330.096 542.901 320.898C542.69 321.508 542.624 322.141 542.589 322.773C542.189 329.508 541.074 336.112 538.607 342.403C537.873 344.278 538.036 345.709 539.502 347.229H539.498ZM180.433 396.562C180.942 391.069 178.676 387.144 176.024 383.368C175.476 382.586 174.619 382.362 173.684 382.621C173.342 382.714 172.846 382.876 173.083 383.306C173.833 384.672 173.377 386.354 174.268 387.658C176.196 390.468 178.145 393.26 180.433 396.562ZM186.878 399.06C188.072 394.902 185.056 388.022 181.201 386.182C182.119 388.654 183.344 391.052 183.054 393.585C182.685 396.777 184.678 397.857 186.882 399.064L186.878 399.06ZM161.948 392.215C163.208 392.544 163.998 392.162 164.771 391.811C167.344 390.634 168.784 388.053 171.151 386.608C171.48 386.406 171.405 385.993 171.362 385.616C171.265 384.834 170.966 384.215 170.202 383.926C169.056 383.495 168.205 384.132 167.485 384.843C165.364 386.946 164.042 389.647 161.952 392.215H161.948ZM212.172 138.841C212.006 141.256 212.203 143.073 211.676 144.812C211.602 145.058 211.646 145.532 211.804 145.624C214.223 147.086 216.036 149.471 219.167 150.581C217.125 146.437 215.057 142.766 212.177 138.841H212.172ZM292.086 139.657C293.412 139.811 294.523 139.35 295.52 138.525C295.906 138.204 296.885 138.397 296.6 137.519C296.42 136.975 295.809 136.703 295.195 136.628C293.899 136.47 292.604 136.18 291.309 136.184C290.115 136.184 288.758 136.711 288.578 137.91C288.38 139.21 289.904 139.161 290.795 139.499C291.19 139.649 291.656 139.614 292.091 139.662L292.086 139.657ZM187.247 389.256C188.428 392.47 188.981 395.231 189.065 398.063C189.095 399.104 189.605 399.534 190.518 399.561C191.681 399.591 191.405 398.612 191.475 397.971C191.857 394.489 190.535 391.758 187.247 389.256ZM295.454 141.567C294.343 141.682 293.346 141.831 292.345 141.87C291.256 141.914 290.15 141.98 289.096 141.607C288.301 141.33 287.674 141.734 287.046 142.085C285.996 142.678 285.847 143.297 287.041 143.938C288.521 144.737 293.425 144.272 294.703 143.166C295.142 142.788 295.612 142.41 295.458 141.563L295.454 141.567ZM475.878 275.218C476.352 271.1 474.078 269.115 471.702 267.183C472.242 270.107 473.717 272.527 475.878 275.218ZM291.48 133.322C293.75 134.187 295.906 134.788 298.479 133.212C295.91 132.865 293.755 130.292 291.48 133.322ZM293.219 128.409C294.826 127.364 296.407 127.118 297.557 126.038C297.996 125.625 298.404 125.076 298.04 124.501C297.741 124.031 297.087 124.123 296.613 124.295C294.896 124.918 293.553 125.906 293.219 128.413V128.409ZM130.292 345.275C130.16 345.336 130.028 345.393 129.892 345.455C130.494 347.216 131.148 348.963 131.666 350.75C131.951 351.729 132.425 351.575 133.097 351.264C133.791 350.939 134.186 350.649 133.558 349.837C132.417 348.357 131.372 346.803 130.287 345.279L130.292 345.275ZM393.071 387.697C391.349 387.996 390.261 388.123 389.211 388.391C388.693 388.522 387.78 388.413 387.78 389.098C387.78 389.651 388.298 390.292 388.741 390.735C389.444 391.425 389.712 390.468 390.098 390.187C390.963 389.55 391.758 388.812 393.066 387.697H393.071Z" fill="#C5C1C1"/>
<path d="M363.882 434.826C363.491 445.499 363.1 456.168 362.709 466.842C362.595 470.012 362.095 470.517 359.03 470.723C347.795 471.465 336.563 472.269 325.323 472.923C323.093 473.055 321.754 473.775 320.867 475.909C319.049 480.291 316.977 484.567 315.023 488.896C313.728 491.759 313.012 492.207 309.934 491.649C301.021 490.038 292.113 488.396 283.208 486.732C276.75 485.524 270.291 484.286 263.846 483.004C261.317 482.503 260.79 481.502 261.664 479.114C268.689 459.922 275.727 440.735 282.225 421.355C282.875 419.414 283.986 418.637 285.966 418.866C293.364 419.722 300.815 420.284 308.055 422.154C309.539 422.536 309.442 421.851 309.587 420.947C310.698 414.097 311.813 407.248 312.951 400.403C313.438 397.461 313.908 397.15 316.801 397.308C331.268 398.107 345.63 399.898 359.987 401.782C364.281 402.344 364.936 403.147 364.769 407.41C364.413 416.547 364.088 425.684 363.746 434.821C363.79 434.821 363.838 434.821 363.882 434.826ZM358.92 436.775H359.535C359.535 427.493 359.491 418.211 359.575 408.93C359.588 407.244 358.806 407.116 357.48 406.976C344.765 405.65 332.08 404.096 319.484 401.9C317.978 401.637 317.297 401.777 316.968 403.485C312.841 425.065 309.478 446.777 305.675 468.414C305.421 469.85 306 469.964 307.177 469.889C312.709 469.533 318.25 469.288 323.782 468.919C334.645 468.194 345.498 467.382 356.361 466.697C358.051 466.592 358.323 465.902 358.345 464.392C358.477 455.185 358.714 445.973 358.916 436.766L358.92 436.775ZM309.003 424.578C307.734 424.578 306.795 424.587 305.851 424.578C299.849 424.516 293.886 423.915 287.933 423.243C286.313 423.059 285.623 423.599 285.096 425.087C282.392 432.718 279.538 440.301 276.816 447.927C273.308 457.753 269.905 467.619 266.384 477.441C265.87 478.877 266.072 479.368 267.63 479.518C269.734 479.724 271.815 480.163 273.9 480.523C285.773 482.582 297.64 484.646 309.508 486.718C310.158 486.833 310.821 487.114 311.225 486.301C313.258 482.209 315.282 478.113 317.477 473.678C315.769 473.792 314.54 473.867 313.315 473.955C310.11 474.183 306.905 474.482 303.695 474.622C301.311 474.728 300.428 473.814 300.736 471.43C301.144 468.247 301.763 465.09 302.325 461.929C304.538 449.499 306.769 437.074 309.003 424.582V424.578Z" fill="#C5C1C1"/>
<path d="M153.795 434.733C159.239 436.011 165.307 436.231 171.313 436.986C176.894 437.688 182.47 438.431 188.059 438.992C190.237 439.212 191.453 440.015 192.063 442.228C196.239 457.42 200.528 472.581 204.752 487.763C205.648 490.986 205.121 491.803 201.824 492.417C192.213 494.2 182.584 495.917 172.973 497.712C170.677 498.143 170.053 496.729 169.496 495.012C165.702 483.364 161.891 471.716 158.075 460.076C155.691 452.801 153.272 445.534 150.892 438.255C150.085 435.783 150.875 434.667 153.795 434.729V434.733ZM155.836 438.645C154.87 438.593 155.208 439.594 155.516 440.533C161.193 457.859 166.883 475.18 172.529 492.514C172.903 493.664 173.342 493.906 174.558 493.656C182.487 492.022 190.434 490.446 198.395 488.975C200.265 488.628 200.445 487.974 199.962 486.24C196.155 472.537 192.428 458.807 188.775 445.06C188.318 443.343 187.48 442.768 185.815 442.579C180.375 441.969 174.949 441.218 169.522 440.503C165.18 439.932 160.842 439.326 155.841 438.65L155.836 438.645Z" fill="#C5C1C1"/>
<path d="M256.974 363.109C256.825 363.522 256.614 364.216 256.325 364.883C250.525 378.27 244.716 391.653 238.903 405.035C237.875 407.397 237.199 407.7 234.859 406.686C227.096 403.314 219.342 399.929 211.602 396.504C209.09 395.393 208.796 394.594 209.78 392.043C214.535 379.728 219.32 367.429 223.689 354.969C224.44 352.826 225.199 352.791 227.316 353.441C230.854 354.525 234.525 355.18 238.121 356.093C243.631 357.498 249.128 358.964 254.625 360.418C255.872 360.747 257.049 361.173 256.97 363.109H256.974ZM235.381 402.976C236.29 402.963 236.325 402.142 236.558 401.606C241.73 389.615 246.858 377.603 252.044 365.616C252.601 364.334 252.632 363.816 251.021 363.394C243.684 361.476 236.343 359.535 229.19 357.002C227.452 356.387 226.951 356.949 226.407 358.416C222.367 369.366 218.297 380.298 214.157 391.209C213.617 392.636 213.867 393.224 215.246 393.835C221.586 396.64 227.873 399.556 234.183 402.432C234.582 402.612 234.977 402.792 235.386 402.976H235.381Z" fill="#C5C1C1"/>
<path d="M397.953 181.983C397.874 198.32 384.469 211.567 368.062 211.532C351.456 211.496 338.017 198.026 338.104 181.504C338.192 165.399 351.9 151.973 368.193 152.039C384.693 152.104 398.036 165.527 397.953 181.978V181.983ZM394.634 181.895C394.695 168.056 383.846 156.179 370.165 155.033C368.417 154.888 367.667 155.2 367.908 157.202C368.523 162.343 368.843 167.524 369.475 172.666C369.805 175.326 369.313 178.132 370.56 180.643C374.266 188.094 377.418 195.787 380.707 203.422C381.392 205.007 381.989 204.915 383.192 204.019C390.621 198.5 394.326 191.084 394.634 181.899V181.895ZM354.157 181.091C354.157 181.157 354.157 181.227 354.157 181.293C350.433 181.293 346.701 181.421 342.982 181.236C341.279 181.153 341.033 181.732 341.13 183.177C341.45 188.011 342.842 192.481 345.459 196.56C352.321 207.273 365.656 211.716 377.291 207.141C378.129 206.812 379.429 206.746 378.683 205.108C375.297 197.679 372.316 190.066 368.47 182.843C367.746 181.482 366.828 181.021 365.331 181.056C361.607 181.144 357.884 181.087 354.157 181.087V181.091ZM364.848 178.677C359.798 173.039 355.206 167.95 350.67 162.809C349.845 161.874 349.384 162.308 348.774 162.936C344.954 166.87 342.622 171.555 341.551 176.925C341.195 178.712 341.454 179.318 343.483 179.151C347.478 178.826 351.505 178.777 355.518 178.69C358.407 178.624 361.3 178.677 364.848 178.677ZM366.863 176.389C366.525 169.61 366.182 162.923 365.871 156.232C365.827 155.244 365.471 155.042 364.505 155.178C360.08 155.81 356.053 157.395 352.361 159.898C351.412 160.543 351.294 160.965 352.233 161.808C356.76 165.865 360.843 170.365 364.936 174.848C365.445 175.405 365.827 176.183 366.859 176.385L366.863 176.389Z" fill="#C5C1C1"/>
<path d="M389.405 138.212C387.798 138.212 386.186 138.256 384.579 138.199C383.051 138.147 382.318 137.312 382.511 135.763C383.653 126.555 384.399 117.313 385.198 108.071C385.984 98.9735 386.924 89.8937 387.688 80.7963C388.127 75.567 389.04 70.3729 388.86 65.091C388.816 63.7343 389.901 63.4621 391.034 63.6114C394.357 64.0504 397.672 64.5641 400.996 64.9812C403.016 65.2359 403.705 66.2589 403.441 68.2698C401.092 86.2977 399.222 104.383 397.286 122.459C396.82 126.814 396.329 131.17 395.977 135.534C395.802 137.708 394.985 138.722 392.684 138.34C391.617 138.164 390.498 138.309 389.4 138.309C389.4 138.278 389.4 138.243 389.4 138.212H389.405ZM385.414 133.831C384.865 135.258 385.945 135.675 387.666 135.692C389.194 135.705 390.731 135.868 392.25 136.044C393.387 136.175 393.764 135.749 393.87 134.621C394.217 130.836 394.713 127.069 395.077 123.289C396.755 105.902 398.331 88.5106 400.14 71.1369C400.39 68.7265 399.854 68.0503 397.584 67.6859C391.6 66.7287 391.732 66.6365 391.187 72.7746C390.164 84.3483 388.983 95.9132 387.881 107.478C387.064 116.062 386.27 124.645 385.409 133.826L385.414 133.831Z" fill="#C5C1C1"/>
<path d="M328.195 100.51C328.248 88.6906 328.682 77.5033 328.226 66.3204C328.199 65.6311 328.287 64.9593 328.998 64.652C329.714 64.3446 330.316 64.6256 330.614 65.3281C331.027 66.294 331.822 65.9691 332.502 65.9384C336.006 65.7628 339.51 65.6003 343.005 65.3369C344.972 65.1876 345.604 66.013 345.494 67.901C344.423 86.4338 343.536 104.971 342.855 123.521C342.715 127.394 342.526 131.262 342.447 135.135C342.416 136.698 341.766 137.378 340.216 137.44C336.563 137.585 332.915 137.782 329.271 138.011C327.809 138.103 327.089 137.655 327.181 136.044C327.791 125.532 327.932 115.008 328.028 104.484C328.041 102.951 328.16 101.415 328.199 100.519L328.195 100.51ZM329.214 110.165C329.214 112.431 329.222 115.939 329.214 119.447C329.196 124.417 329.187 129.387 329.13 134.358C329.117 135.521 329.306 136.035 330.724 135.846C333.398 135.486 336.111 135.367 338.811 135.24C339.826 135.192 340.23 134.84 340.265 133.822C340.366 131.047 340.563 128.277 340.686 125.506C341.112 116.018 341.551 106.53 341.929 97.0372C342.298 87.8345 342.574 78.6317 342.952 69.4333C343.005 68.0942 342.614 67.6288 341.253 67.6595C338.403 67.721 335.54 67.7825 332.704 67.5585C330.891 67.418 330.487 68.0854 330.443 69.6968C330.079 82.7721 329.653 95.8473 329.209 110.165H329.214Z" fill="#C5C1C1"/>
<path d="M366.758 112.242C366.758 104.567 366.758 96.8919 366.758 89.2215C366.758 87.7813 367.012 87.0744 368.817 87.575C371.684 88.3697 374.577 87.1227 377.484 87.2325C377.989 87.2501 378.498 87.1008 379.007 87.0657C381.765 86.8944 382.261 87.3642 382.068 90.1347C381.211 102.6 380.325 115.06 379.477 127.521C379.288 130.291 379.17 133.066 379.095 135.845C379.06 137.136 378.463 137.72 377.229 137.729C374.085 137.747 370.942 137.76 367.798 137.769C366.095 137.773 365.59 136.912 365.655 135.253C365.963 127.587 366.169 119.912 366.411 112.242C366.525 112.242 366.643 112.242 366.758 112.242ZM368.11 117.194C368.066 117.194 368.022 117.194 367.978 117.194C367.978 119.091 367.987 120.992 367.978 122.889C367.965 124.86 367.886 126.836 367.921 128.807C367.961 130.84 367.056 133.488 368.255 134.739C369.568 136.109 372.268 135.055 374.353 135.222C374.573 135.24 374.797 135.196 375.008 135.235C376.672 135.565 377.093 134.818 377.172 133.22C377.501 126.221 378.011 119.231 378.375 112.233C378.731 105.379 378.959 98.5164 379.306 91.6626C379.367 90.4333 379.06 89.9591 377.769 90.0074C375.363 90.0996 372.944 90.1303 370.538 90.0162C369.107 89.9459 368.869 90.5299 368.839 91.79C368.637 100.259 368.36 108.725 368.11 117.19V117.194Z" fill="#C5C1C1"/>
<path d="M347.206 121.866C347.206 117.555 347.224 113.247 347.193 108.936C347.184 107.926 347.36 106.903 346.925 105.906C346.539 105.019 347.127 104.308 347.707 103.812C348.295 103.311 348.936 103.606 349.367 104.251C349.915 105.076 350.794 104.844 351.562 104.888C354.767 105.081 357.977 105.274 361.186 105.401C362.978 105.472 363.825 106.095 363.619 108.084C362.653 117.449 361.775 126.828 360.888 136.202C360.778 137.361 360.211 137.87 359.061 137.918C355.707 138.059 352.348 138.221 348.998 138.423C347.303 138.524 346.693 137.866 346.732 136.118C346.838 131.372 346.767 126.621 346.767 121.871C346.912 121.871 347.057 121.871 347.206 121.871V121.866ZM348.985 121.348C348.985 123.978 349.029 126.608 348.976 129.238C348.822 136.649 348.796 136.522 356.238 135.982C358.486 135.82 358.973 134.902 359.127 132.992C359.75 125.137 360.444 117.282 361.177 109.436C361.278 108.33 361.05 107.79 359.904 107.671C356.927 107.364 353.95 107.065 350.987 106.648C349.608 106.455 349.424 107.057 349.424 108.203C349.424 112.584 348.884 116.953 348.985 121.344V121.348Z" fill="#C5C1C1"/>
<path d="M305.574 179.089C300.96 179.23 296.363 179.037 291.801 178.299C291.155 178.194 290.519 178.022 289.895 177.838C289.118 177.605 288.622 177.017 288.6 176.24C288.574 175.441 289.114 174.901 289.865 174.62C290.203 174.492 290.549 174.352 290.905 174.295C298.093 173.184 305.298 172.907 312.525 173.834C313.767 173.992 314.944 174.396 316.002 175.081C316.674 175.515 317.477 175.954 317.438 176.872C317.389 177.943 316.384 178.268 315.598 178.505C314.492 178.839 313.31 179.019 312.156 179.063C309.965 179.146 307.77 179.085 305.574 179.085V179.089Z" fill="#C5C1C1"/>
<path d="M304.793 195.497C299.994 195.519 295.818 195.414 291.735 194.456C290.181 194.092 287.942 193.978 288.06 191.774C288.183 189.491 290.427 189.824 292.016 189.649C296.907 189.109 301.803 189.205 306.694 189.64C308.977 189.842 311.181 190.373 313.131 191.611C313.969 192.143 315.023 192.806 314.764 193.978C314.531 195.023 313.385 195.181 312.476 195.4C309.719 196.068 306.935 195.339 304.788 195.493L304.793 195.497Z" fill="#C5C1C1"/>
<path d="M300.284 202.092C304.104 202.043 307.607 202.057 310.9 203.47C311.875 203.887 313.241 204.41 313.205 205.551C313.166 206.869 311.647 207.167 310.597 207.497C307.155 208.577 303.656 207.808 300.192 207.532C298.317 207.382 296.429 207.123 294.624 206.504C293.61 206.157 292.618 205.701 292.631 204.498C292.644 203.246 293.694 202.816 294.743 202.676C296.688 202.417 298.646 202.263 300.293 202.096L300.284 202.092Z" fill="#C5C1C1"/>
<path d="M310.378 162.967C306.435 162.831 302.51 162.537 298.628 161.813C297.746 161.646 296.525 161.628 296.464 160.381C296.402 159.178 297.548 158.866 298.435 158.678C303.783 157.54 309.135 157.387 314.435 158.945C315.752 159.332 317.526 159.947 317.328 161.448C317.122 163.024 315.251 162.915 313.877 162.958C312.709 162.998 311.541 162.967 310.373 162.967H310.378Z" fill="#C5C1C1"/>
<path d="M405.242 131.728C407.024 131.714 408.745 131.978 410.247 133.005C410.993 133.515 411.555 134.217 411.389 135.214C411.226 136.188 410.515 136.68 409.659 137.005C407.661 137.765 403.345 136.711 401.883 135.113C400.847 133.98 401.079 132.794 402.454 132.118C403.345 131.684 404.298 131.723 405.246 131.723L405.242 131.728Z" fill="#C5C1C1"/>
<path d="M412.46 94.8507C410.756 94.8814 409.118 94.5345 407.524 93.9638C406.87 93.7311 406.335 93.3183 406.269 92.5895C406.19 91.7377 406.743 91.1713 407.459 90.9386C410.365 89.9902 413.219 90.1483 415.915 91.6631C416.473 91.9792 417.1 92.4358 417.039 93.1691C416.969 94.034 416.139 94.1965 415.48 94.5082C414.501 94.9692 413.469 94.7936 412.455 94.8507H412.46Z" fill="#C5C1C1"/>
<path d="M412.007 117.199C410.444 116.945 408.675 116.896 407.042 116.212C406.128 115.83 405.334 115.202 405.426 114.113C405.518 113.024 406.357 112.559 407.371 112.352C409.452 111.931 411.437 112.194 413.285 113.23C414.334 113.819 415.362 114.609 414.931 115.974C414.528 117.239 413.294 117.226 412.012 117.204L412.007 117.199Z" fill="#C5C1C1"/>
<path d="M409.75 105.81C408.802 105.858 407.634 105.827 406.558 105.309C405.061 104.585 404.921 103.07 406.4 102.31C408.903 101.024 411.59 100.879 414.181 102.021C415.77 102.723 415.709 104.014 414.194 104.967C413.333 105.507 411.854 105.801 409.75 105.81Z" fill="#C5C1C1"/>
<path d="M411.296 77.2048C413.057 77.3979 414.914 77.4462 416.477 78.5439C417.952 79.5801 417.9 80.6163 416.271 81.2397C413.553 82.2803 410.923 81.7447 408.535 80.2562C407.31 79.4923 407.555 78.1531 408.873 77.5165C409.628 77.1521 410.445 77.2487 411.296 77.2048Z" fill="#C5C1C1"/>
<path d="M409.228 127.323C408.117 127.411 407.046 127.218 406.045 126.766C405.281 126.423 404.75 125.852 404.758 124.922C404.767 123.991 405.307 123.429 406.08 123.104C407.92 122.327 409.764 122.393 411.542 123.297C412.468 123.767 413.333 124.368 413.224 125.593C413.101 126.963 411.924 126.981 410.962 127.192C410.4 127.315 409.808 127.288 409.228 127.328V127.323Z" fill="#C5C1C1"/>
<path d="M414.396 68.8143C415.678 68.9372 418.071 68.4762 418.224 70.2368C418.391 72.1204 415.976 72.195 414.383 72.5595C412.991 72.88 411.634 72.7 410.299 72.3443C409.658 72.1731 409.088 71.8087 409.061 71.014C409.035 70.2588 409.483 69.8153 410.102 69.5036C411.375 68.8626 412.762 68.8582 414.396 68.8143Z" fill="#C5C1C1"/>
<path d="M210.416 102.573C211.066 102.793 211.637 103.149 211.957 103.737C212.932 105.519 213.933 107.298 214.781 109.146C215.479 110.665 214.636 112.29 213.033 112.72C211.435 113.146 211.053 111.987 210.697 110.815C210.039 108.637 209.863 106.389 209.652 104.145C209.591 103.517 209.529 102.788 210.421 102.578L210.416 102.573ZM211.606 107.21C211.808 108.488 211.931 109.414 212.107 110.323C212.194 110.788 212.238 111.46 213.002 111.139C213.468 110.942 213.898 110.556 213.617 109.945C213.2 109.041 212.8 108.106 211.606 107.21Z" fill="#C5C1C1"/>
<path d="M212.282 120.43C209.841 120.452 207.949 120.026 206.258 118.906C205.771 118.582 205.244 118.182 205.529 117.497C205.793 116.869 206.399 117.076 206.873 117.185C209.828 117.897 212.774 117.888 215.738 117.229C216.321 117.102 217.244 116.874 217.516 117.541C217.841 118.34 216.976 118.792 216.409 119.187C215.048 120.131 213.485 120.439 212.287 120.43H212.282Z" fill="#C5C1C1"/>
<path d="M206.316 104.335C206.228 105.27 205.885 106.179 204.595 106.284C203.299 106.39 201.973 104.879 202.074 103.299C202.145 102.183 202.469 101.077 203.879 100.989C205.029 100.919 206.285 102.623 206.316 104.335Z" fill="#C5C1C1"/>
<path d="M215.496 98.7934C216.915 99.2106 217.564 100.352 217.727 101.797C217.815 102.583 217.463 103.307 216.533 103.246C214.842 103.131 214.236 101.889 214.056 100.44C213.951 99.5794 214.368 98.89 215.501 98.7934H215.496Z" fill="#C5C1C1"/>
<path d="M105.406 262.335C105.357 263.073 105.208 263.929 104.014 263.969C102.697 264.013 101.054 261.971 101.151 260.347C101.213 259.328 101.63 258.472 102.798 258.371C104.044 258.265 105.441 260.325 105.41 262.34L105.406 262.335Z" fill="#C5C1C1"/>
<path d="M467.211 267.815C467.031 269.295 466.723 270.832 464.835 270.911C462.961 270.99 462.57 269.484 462.587 268.039C462.605 266.525 463.027 264.909 464.893 264.86C466.662 264.812 467.048 266.301 467.215 267.82L467.211 267.815Z" fill="#C5C1C1"/>
<path d="M331.501 417.873C335.483 417.922 339.004 417.852 342.403 418.901C343.61 419.274 345.468 419.661 345.226 421.07C345.024 422.26 343.145 422.071 341.937 422.027C336.827 421.852 331.729 421.509 326.684 420.613C325.824 420.459 324.959 420.271 324.142 419.968C323.58 419.761 322.658 419.643 322.825 418.787C322.957 418.097 323.804 418.339 324.327 418.238C326.856 417.746 329.424 417.974 331.501 417.869V417.873Z" fill="#C5C1C1"/>
<path d="M340.326 440.915C338.17 442.448 335.883 442.65 333.666 442.904C330.456 443.273 327.242 443.04 324.063 442.478C323.435 442.369 322.597 442.184 322.509 441.469C322.43 440.823 323.198 440.503 323.752 440.459C328.911 440.05 334.074 439.352 339.237 440.415C339.505 440.472 339.751 440.647 340.326 440.915Z" fill="#C5C1C1"/>
<path d="M341.516 428.951C340.884 429.764 339.896 429.9 339.009 430.018C334.421 430.633 329.832 430.519 325.253 429.865C324.66 429.781 324.024 429.627 323.997 428.89C323.975 428.244 324.559 428.086 325.068 428.02C330.223 427.358 335.378 426.835 340.502 428.209C340.862 428.306 341.375 428.367 341.511 428.951H341.516Z" fill="#C5C1C1"/>
<path d="M295.169 448.937C291.112 448.397 287.581 448.309 284.227 447.159C283.217 446.812 281.847 446.544 282.181 445.082C282.462 443.839 283.744 443.923 284.75 443.967C289.289 444.178 293.785 444.661 297.992 446.562C298.606 446.838 299.585 447.093 299.34 447.997C299.168 448.63 298.286 448.66 297.645 448.735C296.631 448.849 295.612 449.06 295.169 448.937Z" fill="#C5C1C1"/>
<path d="M294.817 434.487C298.035 434.681 301.034 435.181 303.475 437.297C304.068 437.807 304.841 438.483 304.534 439.3C304.2 440.173 303.155 440.028 302.391 439.927C299.216 439.502 296.178 438.487 293.118 437.587C292.363 437.363 291.498 437.091 291.559 436.046C291.625 434.909 292.521 434.716 293.421 434.606C293.926 434.545 294.435 434.523 294.817 434.492V434.487Z" fill="#C5C1C1"/>
<path d="M296.231 458.034C294.137 459.167 292.481 459.382 290.8 459.286C288.183 459.136 285.566 458.926 282.958 458.662C282.352 458.601 281.58 458.408 281.522 457.569C281.474 456.88 282.032 456.476 282.581 456.331C287.2 455.101 291.586 455.694 296.235 458.039L296.231 458.034Z" fill="#C5C1C1"/>
<path d="M172.964 455.756C171.375 455.738 170.203 455.848 169.074 455.404C168.569 455.207 168.135 454.983 168.135 454.351C168.135 453.71 168.618 453.411 169.096 453.306C172.692 452.502 176.323 452.283 179.972 452.884C180.279 452.937 180.723 453.196 180.793 453.446C180.951 453.999 180.358 454.131 180.007 454.32C177.671 455.571 175.098 455.606 172.964 455.756Z" fill="#C5C1C1"/>
<path d="M175.27 463.69C173.983 463.294 172.051 464.414 171.827 462.596C171.63 461.011 173.588 460.981 174.773 460.616C176.389 460.124 178.058 460.006 179.713 460.533C180.455 460.77 181.522 460.919 181.509 461.784C181.491 462.64 180.407 462.904 179.669 463.057C178.185 463.373 176.661 463.496 175.274 463.685L175.27 463.69Z" fill="#C5C1C1"/>
<path d="M176.666 470.442C175.564 470.284 173.645 471.053 173.456 469.367C173.272 467.703 175.291 467.865 176.464 467.65C177.583 467.444 178.786 467.571 179.941 467.681C180.573 467.742 181.421 467.984 181.517 468.651C181.623 469.38 180.788 469.599 180.205 469.893C179.111 470.442 177.913 470.232 176.661 470.447L176.666 470.442Z" fill="#C5C1C1"/>
<path d="M234.947 368.742C237.01 369.041 239.263 369.348 240.857 371.219C241.427 371.89 241.831 372.707 240.422 372.856C237.467 373.172 234.89 371.917 232.365 370.665C231.597 370.283 232.005 369.541 232.633 369.102C233.283 368.65 234.038 368.826 234.942 368.738L234.947 368.742Z" fill="#C5C1C1"/>
<path d="M230.78 376.241C232.721 376.417 234.74 377.155 236.431 378.656C237.287 379.416 237.489 380.088 236.036 380.373C233.349 380.9 231.052 379.763 228.773 378.648C228.203 378.371 228.146 377.651 228.4 377.08C228.804 376.171 229.678 376.263 230.78 376.246V376.241Z" fill="#C5C1C1"/>
</svg>
