<svg width="489" height="489" viewBox="0 0 489 489" fill="none" xmlns="http://www.w3.org/2000/svg">
<path d="M218.167 300.307C218.136 303.772 218.113 307.122 218.457 310.473C218.522 311.099 218.808 311.237 219.385 311.401C222.033 312.15 223.072 313.689 222.587 316.341C222.403 317.334 222.617 317.38 223.461 317.322C228.237 317.005 232.447 318.427 236.256 321.341C243.381 326.793 250.601 332.119 257.749 337.54C260.392 339.545 260.423 339.74 259.464 342.766C259.254 343.43 259.33 343.748 259.942 344.133C263.017 346.082 263.044 346.124 264.862 343.041C268.01 337.704 270.554 332.141 271.727 325.979C272.285 323.057 273.347 320.447 276.403 318.763C278.252 317.743 279.36 315.363 280.781 313.582C281.737 312.39 282.638 311.156 283.608 309.98C284.044 309.453 284.567 308.773 285.358 309.212C286.126 309.644 285.801 310.461 285.671 311.118C285.564 311.665 285.301 312.18 285.106 312.708L285.469 313.078C286.092 312.356 286.68 311.6 287.345 310.92C287.903 310.347 288.491 309.468 289.412 309.957C290.351 310.457 289.931 311.382 289.702 312.176C289.618 312.471 289.587 312.78 289.534 313.082C289.687 313.212 289.839 313.346 289.992 313.475C290.424 312.899 290.821 312.295 291.295 311.756C291.696 311.302 292.246 311.061 292.831 311.382C293.442 311.718 293.411 312.329 293.282 312.902C292.594 315.947 291.28 318.656 288.934 320.791C288.697 321.005 288.472 321.242 288.2 321.399C282.703 324.593 280.247 329.647 279.211 335.687C278.654 338.934 277.729 342.12 276.996 345.337C276.762 346.357 276.705 347.037 278.283 347.01C294.775 346.727 311.245 347.572 327.725 347.954C329.471 347.996 329.659 348.958 329.632 350.322C329.403 361.268 329.192 372.213 328.982 383.162C328.933 385.771 329.013 388.392 328.799 390.986C328.665 392.594 329.234 392.889 330.675 392.889C340.99 392.9 351.301 392.969 361.612 393.053C380.453 393.202 399.295 393.397 418.141 393.496C419.841 393.504 420.395 393.951 420.215 395.643C420.017 397.538 419.971 399.46 420.013 401.366C420.043 402.68 419.627 403.127 418.278 403.093C414.905 403.009 411.532 403.07 408.158 403.07C367.862 403.051 327.565 402.42 287.272 402.122C286.21 402.115 285.148 402.122 283.677 402.122C285.973 404.265 288.071 406.05 289.985 408.032C293.507 411.688 295.757 415.937 296.17 421.021C296.303 422.645 296.945 422.779 298.32 422.519C301.19 421.976 304.005 421.09 306.935 420.937C310.553 420.75 312.104 422.572 311.447 426.122C310.828 429.472 309.35 432.505 307 434.847C295.333 446.472 282.512 456.52 267.013 462.602C260.366 465.211 253.313 465.402 246.299 464.779C237.367 463.981 228.443 463.098 219.485 462.648C215.236 462.434 211.252 461.211 207.558 459.037C197.418 453.074 190.523 444.325 185.621 433.8C180.945 423.761 177.27 413.335 173.591 402.909C173.045 401.358 172.33 400.938 170.776 400.919C147.414 400.644 124.053 400.315 100.692 399.975C97.0664 399.922 93.441 399.693 89.8117 399.651C88.5471 399.635 88.1422 399.192 88.188 397.977C88.2377 396.709 88.2492 395.41 88.0314 394.168C87.7563 392.602 88.4211 392.358 89.7773 392.35C97.288 392.319 104.799 392.147 112.313 392.147C131.285 392.147 150.257 392.201 169.224 392.274C170.741 392.281 171.444 391.926 172.338 390.424C173.725 388.094 172.919 387.269 171.104 386.062C168.334 384.224 167.162 381.274 166.623 378.138C164.743 367.208 163.609 356.217 164.235 345.108C164.273 344.416 164.403 343.721 164.564 343.045C165.355 339.732 167.074 338.407 170.451 338.712C173.362 338.976 176.258 339.423 179.157 339.778C179.979 339.878 180.808 339.92 181.621 340.053C183.524 340.363 184.506 339.923 184.819 337.673C185.377 333.628 186.863 329.819 188.903 326.251C190.305 323.794 192.33 322.243 195.115 321.609C197.716 321.017 200.28 320.276 202.862 319.599C203.749 319.366 204.257 319.145 203.783 317.934C203.099 316.184 203.97 314.61 205.346 313.563C207.374 312.016 205.964 310.205 205.697 308.681C205.475 307.428 203.653 307.321 202.587 307.63C196.074 309.518 192.356 306.068 189.38 301.002C187.092 297.109 185.285 293.079 185.671 288.41C185.759 287.322 185.346 287.337 184.468 287.547C181.453 288.258 178.424 288.498 175.486 287.184C170.676 285.037 167.937 280.376 168.556 274.951C169.16 269.645 171.146 264.854 174.825 260.904C180.196 255.139 189.17 254.127 195.951 258.524C196.906 259.143 197.678 259.242 198.736 258.948C203.519 257.626 208.043 258.318 212.677 260.14C216.211 261.531 217.995 263.972 219.343 267.169C220.008 268.747 220.825 270.268 221.643 271.773C222.77 273.855 224.061 275.807 226.166 277.083C227.339 277.794 227.79 278.947 227.362 280.22C226.021 284.185 226.93 288.158 227.236 292.124C227.404 294.332 227.339 296.41 226.013 298.332C224.344 300.742 223.06 301.323 220.195 300.712C219.58 300.582 218.969 300.456 218.178 300.291L218.167 300.307ZM185.201 339.927C185.824 339.958 186.133 339.992 186.446 339.985C201.991 339.648 217.464 341.264 232.974 341.845C237.845 342.028 238.628 342.999 238.884 347.839C238.915 348.393 238.72 349.062 239.358 349.383C243.151 351.281 246.276 354.116 249.592 356.683C250.238 357.184 250.612 357.187 250.983 356.328C252.992 351.663 255.025 347.006 257.126 342.376C257.634 341.253 257.321 340.649 256.389 340.03C254.696 338.9 253.031 337.727 251.403 336.504C245.249 331.882 239.255 327.026 232.917 322.671C228.47 319.611 223.603 317.938 218.04 320.616C214.606 322.27 210.82 321.609 207.198 320.604C206.545 320.421 205.953 320.149 205.216 320.581C202.446 322.19 199.401 323.156 196.318 323.912C193.56 324.589 191.761 326.205 190.446 328.634C188.509 332.21 187.432 336.168 185.205 339.935L185.201 339.927ZM238.93 384.946C239.327 385.133 239.488 385.256 239.667 385.29C245.776 386.455 251.862 387.731 257.86 389.378C258.864 389.653 259.013 389.362 259.086 388.461C259.751 380.17 259.854 371.838 260.782 363.567C260.859 362.872 260.499 362.689 260.022 362.463C257.355 361.191 254.822 359.701 252.649 357.657C251.231 359.663 250.628 359.797 248.698 358.486C247.598 357.738 246.559 356.893 245.486 356.102C243.316 354.506 241.142 352.92 238.8 351.205C238.8 351.808 238.758 352.129 238.808 352.431C240 359.652 240.592 366.925 240.794 374.23C240.897 377.871 241.619 381.653 238.93 384.95V384.946ZM253.879 402.287C258.933 407.341 262.188 413.862 267.158 419.062C269.298 421.3 271.964 422.557 274.94 423.222C280.865 424.544 286.802 424.284 292.754 423.379C293.797 423.218 293.954 422.79 293.858 421.87C293.473 418.179 292.349 414.79 289.92 411.933C286.852 408.326 283.223 405.343 279.383 402.596C278.726 402.126 278.019 401.985 277.232 401.981C269.855 401.939 262.478 401.882 255.101 401.843C254.75 401.843 254.341 401.691 253.886 402.283L253.879 402.287ZM291.597 313.582C291.345 313.861 291.104 314.155 290.84 314.423C289.499 315.779 288.166 317.147 286.798 318.476C286.447 318.82 285.962 319.263 285.458 318.885C284.789 318.381 285.381 317.873 285.645 317.406C285.897 316.967 286.199 316.555 286.47 316.123C287.757 314.075 287.887 313.762 287.902 312.497C285.209 315.955 282.325 319.145 278.027 320.375C275.41 321.124 274.348 322.885 273.924 325.295C273.561 327.358 273.397 329.467 272.904 331.496C271.517 337.226 268.572 342.17 264.824 346.716C266.192 347.873 267.789 348.714 268.946 350.181C268.087 350.464 267.491 349.986 266.879 349.742C264.335 348.722 261.928 347.411 259.693 345.83C258.7 345.127 258.265 345.245 257.756 346.357C256.599 348.901 255.296 351.377 254.081 353.894C253.669 354.75 253.004 355.697 253.115 356.507C253.184 357 254.555 357.268 255.292 357.715C256.27 358.307 257.21 358.964 258.158 359.609C259.743 360.694 261.443 361.554 263.273 362.123C267.067 363.308 269.206 362.456 271.238 358.994C272.698 356.511 273.714 353.841 274.314 351.029C275.399 345.937 276.48 340.852 277.683 335.782C279.177 329.483 281.87 324.165 287.406 320.451C289.721 318.896 291.031 316.448 291.597 313.586V313.582ZM294.47 385.829V385.466C286.386 385.466 278.302 385.47 270.218 385.462C269.011 385.462 267.8 385.435 266.593 385.351C265.351 385.267 264.587 384.744 264.706 383.3C264.847 381.588 264.839 379.865 264.931 378.149C265.164 373.833 265.286 369.508 265.817 365.21C266.046 363.361 264.419 364.205 263.686 363.8C262.914 363.376 262.807 364.06 262.769 364.698C262.287 372.251 261.806 379.807 261.275 387.357C261.187 388.587 261.512 388.98 262.822 388.927C283.318 388.117 303.81 388.969 324.306 389.053C325.903 389.061 326.339 388.705 326.369 387.105C326.579 376.858 326.916 366.62 327.172 356.374C327.221 354.364 328.165 351.633 326.908 350.54C325.697 349.489 323.03 350.021 321.006 350.013C308.91 349.971 296.815 349.875 284.728 349.505C282.248 349.428 279.769 349.287 277.294 349.104C275.933 349 276.086 350.093 276.014 350.769C275.891 351.85 276.766 351.216 277.198 351.22C281.27 351.243 285.347 351.098 289.415 351.258C300.349 351.69 311.283 352.145 322.194 352.97C324.86 353.172 325.04 353.226 325.089 355.984C325.238 364.454 324.833 372.912 324.616 381.374C324.505 385.703 324.44 385.779 320.066 385.81C311.535 385.867 303.004 385.825 294.477 385.825L294.47 385.829ZM225.097 284.892C225.196 283.474 225.284 282.283 225.356 281.091C225.406 280.307 225.36 279.501 224.726 278.978C223.691 278.13 222.648 277.305 221.865 276.201C221.574 275.792 221.349 275.849 220.963 276.147C219.637 277.171 218.713 276.525 218.079 275.28C217.513 274.164 217.318 273.045 218.847 272.487C219.248 272.342 219.561 272.292 219.313 271.758C218.426 269.832 217.555 267.903 216.577 265.748C216.218 266.501 216.096 267.039 215.771 267.387C213.72 269.591 213.796 272.117 214.277 274.871C215.053 279.349 214.923 283.853 213.953 288.311C213.433 290.691 213.567 293.113 213.506 295.524C213.487 296.33 213.609 296.857 214.61 296.853C216.405 296.846 218.105 297.43 219.836 297.816C222.487 298.412 223.538 297.858 224.577 295.34C224.921 294.508 224.978 293.621 225.055 292.731C225.119 291.929 224.967 291.768 224.054 291.753C221.074 291.707 218.235 287.436 219.187 284.632C219.634 283.318 220.459 282.76 221.819 283.364C222.854 283.822 223.874 284.315 225.097 284.884V284.892ZM214.69 312.589C210.511 312.581 207.97 313.452 206.453 315.328C205.33 316.719 205.51 317.552 207.168 318.224C209.265 319.076 211.496 319.202 213.716 319.16C215.84 319.122 217.888 318.656 219.504 317.112C220.925 315.752 220.764 314.518 219.011 313.674C217.586 312.986 216.126 312.299 214.69 312.585V312.589ZM316.322 361.088C316.295 358.723 314.484 357.046 311.978 357.061C309.132 357.08 306.977 359.193 306.996 361.94C307.016 364.469 308.975 366.559 311.332 366.562C313.93 366.562 316.352 363.907 316.322 361.092V361.088ZM265.561 391.555C266.986 392.69 268.251 392.659 269.512 392.663C287.578 392.717 305.648 392.785 323.714 392.782C324.535 392.782 326.155 393.618 326.144 392.056C326.136 390.841 324.593 391.425 323.768 391.433C305.319 391.681 286.871 391.708 268.423 391.552C267.601 391.544 266.78 391.552 265.565 391.552L265.561 391.555ZM214.037 298.84C213.517 302.901 211.676 305.953 208.104 307.898C206.633 308.7 208.012 309.777 207.966 310.717C207.943 311.237 208.199 311.84 209.063 311.554C211.015 310.908 213.051 310.889 215.084 310.912C216.287 310.923 216.7 310.431 216.65 309.189C216.562 306.912 216.474 304.605 216.757 302.354C217.036 300.135 216.333 299.031 214.033 298.844L214.037 298.84ZM232.882 387.831C236.267 388.702 238.934 390.092 241.577 391.548C242.185 391.88 242.83 392.388 243.465 392.4C248.297 392.472 253.134 392.438 257.97 392.438C257.325 391.983 256.618 391.758 255.904 391.571C250.437 390.146 244.928 388.87 239.522 387.246C237.287 386.574 235.389 386.929 232.882 387.831ZM297.564 370.952C299.917 370.952 302.267 370.975 304.62 370.941C305.64 370.925 306.863 370.914 306.813 369.47C306.771 368.156 305.598 368.14 304.655 368.182C299.134 368.411 293.591 367.949 288.082 368.645C287.356 368.736 286.271 368.603 286.256 369.558C286.244 370.471 287.31 370.455 288.044 370.57C291.199 371.055 294.386 370.918 297.56 370.952H297.564ZM299.902 372.369C299.902 372.396 299.902 372.423 299.902 372.45C298.569 372.45 297.232 372.434 295.898 372.457C295.287 372.469 294.451 372.316 294.332 373.141C294.198 374.054 295.058 374.222 295.73 374.367C298.745 375.021 301.801 374.822 304.846 374.707C305.491 374.684 306.198 374.444 306.232 373.668C306.267 372.82 305.591 372.415 304.849 372.388C303.203 372.323 301.552 372.369 299.902 372.369ZM225.372 288.242C225.383 285.835 224.753 285.366 221.891 285.354C221.207 285.354 220.997 285.618 220.997 286.244C220.994 287.956 223.003 290.248 224.554 290.145C226.109 290.045 224.948 288.724 225.375 288.238L225.372 288.242ZM284.208 311.493C282.562 313.647 281.19 315.435 279.666 317.433C282.394 316.371 283.757 314.545 284.208 311.493Z" fill="#C2BABA"/>
<path d="M257.405 246.391C215.366 246.391 168.632 246.383 121.899 246.402C116.963 246.402 115.641 246.207 115.694 240.267C115.901 216.138 115.186 192.016 114.728 167.891C114.048 132.053 113.276 96.218 112.971 60.3758C112.894 51.272 112.631 42.172 112.405 33.0722C112.375 31.8344 112.573 31.2843 114.01 31.2422C126.983 30.8602 139.961 30.9863 152.935 31.1658C184.384 31.6014 215.832 32.0292 247.277 32.5144C300.242 33.332 353.207 34.1037 406.176 34.5163C409.041 34.5392 411.902 34.6652 414.768 34.7722C417.09 34.8601 418.026 35.8075 417.916 38.1035C417.354 49.9922 416.739 61.8772 416.177 73.766C415.6 85.9758 415.092 98.1855 414.508 110.391C413.801 125.142 413.048 139.888 412.315 154.638C411.769 165.572 411.226 176.506 410.672 187.439C409.962 201.552 409.236 215.664 408.533 229.776C408.319 234.036 408.135 238.295 407.99 242.559C407.864 246.28 407.268 246.914 403.635 246.899C356.458 246.681 309.277 246.941 257.409 246.391H257.405ZM265.29 36.9574C265.29 36.9574 265.29 36.9765 265.29 36.988C252.175 36.7817 239.064 36.5563 225.949 36.3729C190.301 35.8839 154.643 35.8113 119.014 34.3367C117.284 34.2641 117.093 34.8792 117.119 36.3729C117.826 74.3123 118.552 112.248 119.133 150.191C119.587 179.73 119.828 209.269 120.688 238.8C120.73 240.286 121.112 240.718 122.624 240.725C136.951 240.805 151.273 240.966 165.599 241.103C167.127 241.119 168.655 241.119 170.184 241.122C170.848 241.122 171.353 241.138 171.429 240.16C171.964 233.413 174.214 227.136 176.923 221.016C179.696 214.747 182.962 208.787 188.628 204.558C195.451 199.462 203.096 196.123 211.317 194.045C217.124 192.578 222.831 190.843 228.13 187.99C228.604 187.734 229.662 187.642 229.173 186.756C227.836 184.334 229.345 182.973 230.884 181.545C233.589 179.035 236.26 176.483 238.968 173.973C239.66 173.331 239.958 172.628 240.015 171.654C240.271 167.402 240.611 163.154 240.982 158.906C241.058 158.046 240.707 157.45 240.267 156.816C237.99 153.546 236.393 149.955 235.339 146.127C233.612 139.85 232.741 133.42 232.076 126.968C231.916 125.428 231.496 124.584 229.876 124.293C228.764 124.095 227.759 123.388 226.953 122.559C222.281 117.784 220.451 112.175 222.254 105.624C222.992 102.942 224.363 100.695 227.355 99.9925C228.168 99.8015 228.149 99.4232 227.786 98.7662C226.017 95.5571 225.066 92.0692 224.394 88.4933C223.11 81.6512 223.221 74.9694 227.61 69.1473C230.487 65.3308 233.112 61.3538 235.843 57.4457C242.311 48.189 251.17 42.726 262.482 42.0727C276.048 41.2934 290.776 50.2749 296.865 62.477C297.748 64.242 298.603 66.0223 300.319 67.1951C302.714 68.834 303.975 71.1988 304.513 73.9914C305.938 81.3799 305.117 88.6996 303.669 95.9659C303.341 97.6239 303.241 98.5331 305.293 98.4987C306.393 98.4796 307.367 99.0718 308.234 99.7403C311.077 101.933 312.483 104.955 312.865 108.416C313.762 116.576 305.102 125.791 296.3 126.032C295.089 126.066 294.699 126.345 294.497 127.537C293.335 134.329 291.543 140.939 288.418 147.12C288.052 147.846 288.063 148.533 288.124 149.32C288.651 156.224 289.473 163.135 287.983 170.019C287.842 170.676 288.067 171.108 288.35 171.604C291.719 177.514 294.306 183.841 297.946 189.609C298.699 190.801 298.729 192.07 297.56 193.051C296.743 193.739 296.976 194.049 297.744 194.549C300.173 196.127 302.813 197.177 305.598 197.903C312.849 199.794 320.203 201.223 327.347 203.592C345.547 209.628 356.848 221.711 360.492 240.66C360.748 241.993 361.207 242.238 362.418 242.242C375.472 242.276 388.522 242.341 401.572 242.479C403.077 242.494 403.501 242.028 403.57 240.572C404.235 226.395 404.999 212.222 405.671 198.041C406.26 185.644 406.737 173.239 407.326 160.839C408.155 143.353 409.022 125.871 409.904 108.39C410.596 94.6593 411.341 80.9291 412.051 67.2027C412.498 58.5574 412.903 49.912 413.377 41.2666C413.453 39.8569 413.178 39.3106 411.57 39.2915C399.666 39.1464 387.766 38.8446 375.862 38.6574C339.003 38.073 302.145 37.5114 265.283 36.9422L265.29 36.9574ZM261.218 79.6226C260.431 79.4392 259.884 79.8403 259.311 80.0237C252.114 82.335 244.878 84.2528 237.249 82.3159C236.435 82.1096 236.225 82.4611 236.137 83.1373C235.396 88.7149 234.082 94.1436 234.407 99.939C235.144 113.108 236.141 126.207 238.773 139.155C239.984 145.11 241.329 150.971 245.257 155.865C247.675 158.875 250.666 160.793 254.544 161.32C260.931 162.187 267.07 160.808 273.21 159.379C275.762 158.787 277.821 157.347 279.67 155.509C283.674 151.528 286.432 146.772 288.415 141.55C290.29 136.614 291.475 131.464 292.995 126.418C293.423 124.996 293.763 123.522 294.89 122.093C294.947 122.93 294.989 123.48 295.031 124.099C296.166 123.648 297.209 123.197 298.279 122.815C301.778 121.562 304.766 119.591 306.981 116.565C309.732 112.806 309.583 107.369 306.679 103.748C306.198 103.148 305.656 102.621 304.945 102.285C303.188 101.456 302.271 101.876 301.797 103.763C301.025 106.846 300.284 109.933 299.493 113.012C299.218 114.082 298.848 115.228 297.404 115.002C296.078 114.796 296.101 113.654 296.025 112.619C295.723 108.489 295.685 104.351 295.704 100.21C295.704 99.45 295.792 98.7356 294.882 98.2924C293.037 97.3908 292.166 95.6908 291.52 93.8494C289.912 89.265 289.469 84.547 290.027 79.7372C290.206 78.1861 289.809 77.8079 288.308 78.4115C284.59 79.9129 280.747 81.0514 276.854 81.9912C272.472 83.0494 268.163 84.4744 263.655 84.9022C261.302 85.1276 260.396 83.9663 260.828 81.6473C260.95 80.9826 261.084 80.3179 261.218 79.6264V79.6226ZM255.862 194.098C255.411 195.176 255.113 195.863 254.834 196.562C253.795 199.156 252.855 201.792 251.698 204.333C250.693 206.53 249.321 206.743 247.468 205.215C247.125 204.933 246.815 204.612 246.487 204.31C241.436 199.645 236.554 194.809 231.87 189.777C231.4 189.273 231.053 188.479 230.052 189.285C225.211 193.181 219.546 195.405 213.666 197.151C209.219 198.473 204.811 199.886 200.544 201.727C192.807 205.07 186.332 209.769 182.325 217.486C178.749 224.37 176.17 231.537 174.898 239.201C174.627 240.84 174.936 241.191 176.59 241.199C203.89 241.325 231.19 241.501 258.49 241.73C260.102 241.741 260.507 241.249 260.526 239.698C260.668 227.862 260.893 216.031 261.084 204.195C261.092 203.821 261.118 203.385 260.95 203.084C259.35 200.207 257.711 197.349 255.858 194.098H255.862ZM269.565 188.318C269.363 188.49 269.175 188.582 269.091 188.731C266.494 193.304 265.76 198.572 263.674 203.34C263.537 203.653 263.69 204.092 263.716 204.474C263.915 207.328 264.255 210.178 264.293 213.036C264.419 221.753 264.408 230.471 264.496 239.189C264.522 241.738 264.591 241.738 267.132 241.753C296.407 241.902 325.682 242.047 354.953 242.196C355.4 242.196 355.847 242.177 356.29 242.204C357.054 242.249 357.337 241.963 357.111 241.191C355.446 235.51 353.662 229.887 350.281 224.921C344.539 216.485 336.508 211.251 327.049 207.783C320.051 205.215 312.796 203.592 305.709 201.384C301.916 200.203 298.263 198.709 295.635 195.531C294.928 194.675 294.474 195.195 293.901 195.565C290.416 197.819 287.33 200.577 284.174 203.252C280.388 206.461 279.097 206.178 276.957 201.662C274.78 197.067 272.4 192.593 269.561 188.322L269.565 188.318ZM285.641 152.774C285.355 152.774 285.267 152.747 285.244 152.774C284.801 153.305 284.334 153.821 283.933 154.386C280.827 158.737 276.843 161.809 271.54 162.989C268.133 163.75 264.748 164.64 261.317 165.27C258.952 165.706 256.542 165.904 254.101 165.622C250.211 165.171 246.773 163.734 243.556 161.194C243.32 164.735 243.32 168.2 243.323 171.669C243.323 172.342 243.877 172.643 244.294 173.006C246.273 174.737 247.946 176.735 249.413 178.897C253.585 185.056 257.841 191.16 261.428 197.689C261.581 197.964 261.607 198.48 262.238 198.385C262.681 196.96 263.17 195.531 263.571 194.071C265.13 188.398 268.136 183.871 273.21 180.632C277.355 177.984 280.682 174.324 283.872 170.584C284.411 169.954 284.923 169.308 285.076 168.452C286.004 163.238 285.714 158 285.649 152.766L285.641 152.774ZM286.867 172.284C286.05 172.54 285.759 173.155 285.339 173.61C281.844 177.403 278.18 181.002 273.932 183.978C271.468 185.705 271.536 185.732 273.095 188.257C275.67 192.433 277.496 196.975 279.464 201.449C280.316 203.385 280.529 203.447 282.123 202.083C286.229 198.572 290.206 194.904 294.657 191.818C295.52 191.218 295.348 190.652 294.924 189.896C292.46 185.518 290.554 180.872 288.541 176.284C287.96 174.958 287.425 173.618 286.871 172.284H286.867ZM249.157 203.852C250.402 200.215 251.228 197.147 252.496 194.274C253.654 191.649 253.298 189.663 251.552 187.405C248.565 183.539 246.093 179.275 242.479 175.894C241.749 175.211 241.322 174.993 240.558 175.944C238.281 178.771 235.713 181.342 233.02 183.772C231.977 184.712 231.95 185.376 232.89 186.385C235.625 189.311 238.254 192.337 240.982 195.275C243.564 198.056 246.219 200.776 249.161 203.855L249.157 203.852ZM231.576 115.369C231.538 115.369 231.5 115.369 231.458 115.369C231.595 112.267 231.752 109.165 231.866 106.059C231.966 103.373 230.571 102.35 228.035 103.228C227.087 103.557 226.483 104.283 226.014 105.146C225.238 106.567 224.864 108.118 224.829 109.704C224.734 114.456 226.109 118.574 230.182 121.436C231.072 122.062 231.649 122.104 231.587 120.699C231.511 118.926 231.568 117.149 231.568 115.373L231.576 115.369Z" fill="#C2BABA"/>
<path d="M89.8845 336.328C71.1649 336.676 52.4492 336.596 33.7296 336.928C30.9141 336.978 30.1538 336.229 30.2455 333.459C31.0172 310.931 30.49 288.391 30.7001 265.859C30.7269 262.803 30.8033 259.746 30.83 256.694C30.8529 254.161 31.9799 252.92 34.5395 252.87C40.4573 252.752 46.3749 252.633 52.2926 252.622C82.5991 252.564 112.906 252.538 143.212 252.503C143.911 252.503 144.614 252.503 145.313 252.515C148.736 252.583 149.317 253.145 149.317 256.53C149.317 281.171 149.332 305.808 149.279 330.449C149.264 337.562 149.306 336.264 143.552 336.294C125.662 336.39 107.771 336.328 89.8807 336.328H89.8845ZM90.0258 255.907V255.884C81.0481 255.884 72.0742 255.857 63.0964 255.892C54.1837 255.926 45.2747 255.834 36.3656 255.559C33.5806 255.472 33.5959 255.529 33.5997 258.302C33.6265 273.389 33.6036 288.479 33.68 303.565C33.7258 312.86 33.9168 322.151 34.0314 331.446C34.0429 332.424 34.1155 333.131 35.4411 333.127C43.716 333.119 51.9946 333.173 60.2694 333.234C61.2245 333.242 61.4384 333.001 61.1863 332.031C60.1281 327.916 60.0631 323.699 60.4146 319.511C60.8081 314.801 61.7364 310.19 64.4909 306.167C66.2253 303.634 68.613 302.278 71.6883 302.133C75.1954 301.965 78.6757 302.335 82.1713 302.53C85.5637 302.717 85.728 302.4 85.1473 299.046C85.0059 298.236 84.8111 298.037 84.0852 298.519C82.9048 299.298 81.6211 299.829 80.1885 299.94C73.8888 300.429 69.3388 293.296 71.9405 286.985C72.7466 285.029 73.9423 283.295 75.1839 281.606C76.2307 280.181 77.052 278.863 75.8754 277.037C75.4361 276.357 75.5048 275.318 75.4322 274.432C74.9471 268.617 78.6184 263.521 83.9133 263.261C87.2103 263.101 90.0946 262.234 92.9331 260.679C96.146 258.921 99.4811 258.94 102.839 260.472C108.249 262.94 109.234 268.098 104.982 272.269C104.333 272.907 104.172 273.465 104.36 274.271C105.231 278.023 105.418 281.832 105.047 285.652C104.665 289.587 103.439 293.121 99.8517 295.359C99.3283 295.684 99.015 296.017 99.0494 296.716C99.1869 299.573 99.2595 302.438 99.355 305.3C99.3703 305.793 99.3092 306.159 99.9892 306.446C108.142 309.877 113.36 315.676 114.648 324.673C114.866 326.189 114.938 327.458 113.937 328.791C113.013 330.021 113.761 331.53 114.101 332.806C114.346 333.723 115.565 333.291 116.336 333.299C124.546 333.394 132.76 333.467 140.974 333.482C142.666 333.482 144.866 334.254 145.917 333.135C146.96 332.027 146.119 329.857 146.116 328.157C146.093 304.731 146.032 281.301 146.043 257.875C146.043 256.323 145.711 255.857 144.076 255.865C126.059 255.93 108.042 255.907 90.0258 255.907ZM85.5637 305.709C82.5113 308.673 79.1074 310.45 75.9442 312.566C71.9214 315.259 68.9644 318.835 66.9817 323.229C66.592 324.088 66.1527 324.975 66.9015 325.907C69.2013 328.768 72.0665 330.995 75.0884 332.997C76.3147 333.811 78.1256 333.158 78.2707 332.149C79.0424 326.797 80.6966 321.643 81.8656 316.379C81.9573 315.959 81.9764 315.164 82.6564 315.301C83.3517 315.439 83.0003 316.157 82.9544 316.593C82.4158 321.716 81.6364 326.797 80.349 331.79C80.1503 332.565 79.86 333.23 81.1933 333.226C89.5903 333.196 97.9912 333.207 106.388 333.257C107.546 333.265 107.546 332.802 107.378 331.893C106.816 328.879 106.709 325.83 106.931 322.774C106.969 322.258 106.724 321.464 107.523 321.364C108.272 321.269 108.321 322.033 108.501 322.552C109.238 324.703 109.211 327.007 109.807 329.467C110.904 328.176 112.329 327.435 111.905 325.528C110.579 319.573 108.065 314.377 102.885 310.778C101.624 309.903 100.585 308.715 99.1105 307.959C98.6062 310.923 98.1746 313.685 97.655 316.428C97.4984 317.261 97.4831 318.342 96.3981 318.595C95.294 318.851 94.8547 317.869 94.3657 317.166C92.36 314.285 90.1748 311.561 87.6343 309.139C86.706 308.257 85.7738 307.401 85.5637 305.716V305.709ZM102.663 278.447C101.643 279.15 100.597 279.543 100.249 278.069C99.9625 276.85 100.425 276.155 101.922 276.338C102.919 276.46 102.308 275.513 102.365 275.085C102.434 274.569 102.453 273.805 101.517 274.015C97.3379 274.963 93.1661 274.436 88.9943 273.97C88.1692 273.878 87.8979 274.172 87.7642 274.963C87.535 276.338 87.237 277.706 86.5799 278.966C85.2313 281.564 83.8216 282.156 81.0634 281.278C80.2726 281.026 79.5582 281.087 79.031 281.836C78.5229 282.558 78.8743 283.173 79.2869 283.753C79.9364 284.659 80.9182 284.903 81.9573 285.003C83.2295 285.125 84.3832 285.545 84.8608 286.825C85.9687 289.789 87.279 292.697 87.4891 295.933C87.684 298.977 87.9629 302.018 88.215 305.059C88.257 305.56 88.215 306.075 88.555 306.519C90.8625 309.518 93.3533 312.371 95.6149 315.833C96.9444 309.8 97.1087 304.131 97.0972 298.427C97.0972 296.804 96.7267 296.234 95.1298 296.059C93.3151 295.856 91.5387 295.317 90.0105 293.736C91.8749 293.56 93.3724 293.881 94.8471 294.198C97.2615 294.721 99.08 293.896 100.482 291.963C101.238 290.92 101.708 289.74 101.991 288.494C102.728 285.255 102.847 281.973 102.652 278.443L102.663 278.447ZM81.3575 304.803C79.073 304.803 76.7923 304.822 74.5077 304.803C68.7734 304.75 66.7105 306.03 64.4565 311.386C61.7632 317.785 61.4346 324.432 62.7488 331.183C62.8901 331.908 62.6227 333.135 63.9789 333.211C65.5491 333.299 65.0257 331.947 65.3466 331.179C65.5414 330.713 65.6064 330.182 65.8509 329.746C66.2444 329.047 66.0343 328.554 65.4994 328.08C63.4365 326.254 63.6122 324.172 64.6475 321.865C67.3217 315.92 71.5584 311.439 77.1246 308.135C78.6222 307.244 80.2076 306.461 81.3537 304.807L81.3575 304.803ZM71.4477 333.158C70.6683 332.516 70.2557 332.168 69.8355 331.828C68.2741 330.585 67.1166 330.892 66.3628 332.749C66.3246 332.841 66.4048 332.974 66.443 333.154H71.4515L71.4477 333.158ZM112.138 330.51C111.148 331.16 109.406 331.106 109.8 332.741C110.037 333.723 111.313 333.417 111.92 333.196C113.513 332.611 111.802 331.435 112.142 330.514L112.138 330.51Z" fill="#C2BABA"/>
<path d="M401.041 267.143C415.936 267.143 430.832 267.143 445.727 267.143C448.757 267.143 449.184 267.541 448.898 270.608C447.683 283.655 446.426 296.697 445.181 309.74C444.123 320.819 443.064 331.901 442.006 342.98C441.807 345.07 441.574 347.156 441.425 349.25C441.299 351.041 440.39 351.809 438.606 351.882C433.479 352.088 428.356 351.882 423.229 351.874C400.185 351.817 377.141 351.985 354.101 351.45C349.646 351.347 349.574 351.267 349.776 346.736C350.372 333.514 350.869 320.284 351.514 307.066C352.145 294.229 352.626 281.385 353.73 268.576C353.871 266.929 354.502 266.647 355.969 266.651C370.99 266.696 386.012 266.677 401.037 266.677C401.037 266.834 401.037 266.987 401.037 267.143H401.041ZM400.552 270.444C400.552 270.406 400.552 270.368 400.552 270.33C386.291 270.33 372.033 270.364 357.772 270.287C355.889 270.276 355.518 270.864 355.495 272.645C355.304 286.138 354.819 299.624 354.25 313.106C353.78 324.234 353.413 335.367 352.939 346.491C352.882 347.851 353.26 348.21 354.609 348.172C359.189 348.046 363.774 348.016 368.358 348.042C369.611 348.05 369.959 347.653 370.001 346.419C370.161 341.773 370.769 337.174 371.739 332.624C372.839 327.439 375.204 323.344 380.755 321.9C383.544 321.174 386.356 320.586 389.225 321.262C390.604 321.587 391.051 321.063 391.991 320.009C393.805 317.969 393.037 317.407 391.223 316.177C389.171 314.786 388.675 312.326 388.518 309.908C388.403 308.162 388.503 306.443 386.436 305.469C385.252 304.911 384.808 303.536 385.083 302.149C385.355 300.766 386.245 299.803 387.605 299.608C388.778 299.44 388.881 298.772 388.866 297.905C388.85 296.907 389.412 295.803 387.876 295.219C386.149 294.562 384.591 293.526 383.448 292.006C382.146 290.268 382.13 288.938 383.658 287.464C384.308 286.837 383.937 286.554 383.704 286.054C382.551 283.575 383.082 281.981 385.534 280.717C388.953 278.96 392.438 278.627 395.96 280.427C399.196 282.081 402.554 283.353 406.099 284.243C414.618 286.379 418.343 293.099 415.795 301.595C415.379 302.982 415.333 304.292 415.478 305.706C415.684 307.776 416.28 309.843 415.684 311.956C415.031 314.282 413.17 315.176 411.172 313.831C409.835 312.93 408.108 314.294 406.962 312.83C406.836 312.67 406.561 313.186 406.458 313.484C405.931 315.046 405.071 316.341 403.49 317.018C403.115 317.178 402.81 317.358 402.894 317.843C402.974 318.32 403.199 318.813 403.7 318.748C405.209 318.557 406.489 319.531 407.99 319.455C410.851 319.306 413.709 319.539 416.567 319.764C423.096 320.272 425.965 322.366 427.73 328.28C429.514 334.255 430.228 340.352 429.155 346.556C428.979 347.584 429.044 348.081 430.278 348.042C432.44 347.974 434.606 348.016 436.768 348.084C437.708 348.115 438.121 347.855 438.213 346.847C438.809 340.321 439.466 333.804 440.096 327.287C440.936 318.614 441.769 309.939 442.617 301.266C443.549 291.773 444.516 282.279 445.429 272.782C445.651 270.471 445.586 270.448 443.152 270.448C428.956 270.444 414.76 270.448 400.563 270.448L400.552 270.444ZM387.376 332.455C387.884 332.845 387.746 333.33 387.7 333.731C387.208 337.957 386.818 342.205 386.092 346.392C385.813 347.996 386.298 348.023 387.525 348.016C394.203 347.985 400.884 347.974 407.562 348.046C408.907 348.061 409.216 347.71 409.186 346.354C409.09 341.903 409.155 337.452 409.239 333.002C409.255 332.253 409.151 330.988 410.129 330.939C411.18 330.889 411.012 332.108 411.107 332.879C411.665 337.365 412.093 341.861 411.512 346.377C411.36 347.561 411.608 348.1 412.964 348.061C415.761 347.981 418.561 348.023 421.361 348.107C422.587 348.145 422.855 347.76 422.675 346.56C422.251 343.767 421.189 341.177 420.181 338.591C417.51 331.737 413.598 325.965 406.126 323.539C404.972 323.164 403.837 322.526 403.157 321.533C402.103 319.994 400.854 319.535 399.108 320.081C398.447 320.288 397.736 320.353 397.041 320.425C395.448 320.586 393.507 320.013 393.064 322.469C393.034 322.649 392.51 322.71 392.25 322.878C389.859 324.44 387.318 325.778 385.129 327.646C379.173 332.73 377.114 339.649 375.983 347.011C375.831 348.008 376.48 347.996 377.152 347.993C378.872 347.989 380.591 347.92 382.302 348.016C383.563 348.084 383.891 347.614 383.956 346.396C384.186 342.258 385.007 338.213 386.256 334.262C386.466 333.594 386.531 332.757 387.364 332.452L387.376 332.455ZM402.615 299.868C401.889 299.429 403.765 297.633 401.721 297.664C398.206 297.717 394.741 297.587 391.356 296.556C390.722 296.361 390.39 296.522 390.417 297.24C390.604 301.992 390.035 306.783 390.94 311.501C391.536 314.611 392.957 315.764 396.136 316.074C397.973 316.253 399.807 316.338 401.644 316.04C403.883 315.68 406.34 313.396 405.996 311.302C405.748 309.79 406.515 309.74 407.321 309.411C408.552 308.915 409.877 308.624 410.905 307.704C411.91 306.802 412.261 305.698 411.745 304.441C411.222 303.161 410.194 302.699 408.823 302.856C407.088 303.054 405.713 303.746 404.823 305.327C404.487 305.923 404.028 306.6 403.188 306.37C402.229 306.111 402.298 305.22 402.321 304.479C402.367 303.02 402.5 301.564 402.611 299.864L402.615 299.868ZM404.487 320.467C404.452 320.654 404.422 320.838 404.387 321.025C405.205 321.277 406.023 321.537 406.844 321.774C411.314 323.065 415.05 325.334 417.781 329.258C421.499 334.591 423.485 340.57 424.776 346.827C424.975 347.794 425.223 348.08 426.182 348.077C427.141 348.073 427.508 347.779 427.584 346.801C428.112 340.134 427.615 333.602 425.323 327.26C424.326 324.498 422.435 322.87 419.592 322.24C414.607 321.14 409.472 321.514 404.487 320.467ZM387.949 322.71C387.463 322.603 387.337 322.542 387.219 322.553C386.398 322.641 385.572 322.702 384.763 322.851C379.647 323.795 375.525 325.904 374.138 331.504C372.878 336.581 372.293 341.731 372.01 346.931C371.98 347.481 371.972 347.947 372.713 347.993C373.389 348.035 373.798 347.84 373.886 347.103C374.027 345.907 374.157 344.707 374.398 343.527C375.846 336.345 378.371 329.739 384.487 325.113C385.53 324.326 386.631 323.615 387.949 322.702V322.71ZM388.457 300.754C387.341 301.263 386.6 301.893 386.715 302.928C386.814 303.822 387.334 304.621 388.457 304.961V300.754ZM401.186 317.908H395.647C395.654 318.076 395.662 318.248 395.67 318.416C397.549 318.943 399.36 318.148 401.186 317.908Z" fill="#C2BABA"/>
<path d="M430.11 212.78C443.279 212.822 454.43 223.27 455.312 236.076C455.358 236.767 455.355 237.486 455.209 238.158C454.866 239.74 453.914 240.828 452.23 240.897C450.457 240.97 449.387 239.919 448.944 238.28C448.646 237.18 448.581 236.019 448.291 234.914C445.907 225.868 439.58 221.096 430.87 218.949C429.392 218.586 427.871 218.384 426.408 217.971C425.346 217.673 424.379 217.097 424.322 215.786C424.261 214.388 425.212 213.754 426.339 213.337C427.665 212.845 429.059 212.718 430.114 212.776L430.11 212.78Z" fill="#C2BABA"/>
<path d="M81.3228 171.1C83.6417 171.123 85.911 171.333 88.0657 172.212C90.014 173.006 90.9385 174.576 90.4763 176.2C90.0255 177.778 88.5546 178.66 86.5184 178.374C74.515 176.697 65.4914 181.839 58.0877 190.721C57.8011 191.061 57.5452 191.432 57.2357 191.745C56.5366 192.448 55.8795 193.51 54.7105 192.975C53.4651 192.402 53.5033 191.115 53.6752 189.984C54.1298 186.928 55.6923 184.376 57.6789 182.106C63.9366 174.966 71.963 171.578 81.3228 171.104V171.1Z" fill="#C2BABA"/>
<path d="M64.4334 198.557C64.4143 195.982 65.3885 194.145 66.7217 192.472C70.8133 187.329 78.6984 184.823 85.0058 186.634C86.9809 187.2 88.0467 188.506 87.8557 190.13C87.638 191.983 86.0067 192.941 83.8329 192.494C77.6593 191.222 71.7111 193.893 68.5593 199.31C67.9825 200.303 67.5966 201.858 66.0761 201.499C64.483 201.121 64.4945 199.551 64.4334 198.553V198.557Z" fill="#C2BABA"/>
<path d="M426.557 224.921C433.796 225.036 439.703 229.811 441.009 236.309C441.235 237.432 441.154 238.468 440.52 239.404C439.267 241.253 436.906 240.928 435.829 238.72C435.111 237.245 434.61 235.679 433.693 234.277C432.207 231.996 430.03 230.854 427.539 230.113C426.446 229.788 425.346 229.471 424.299 229.032C423.378 228.646 422.691 227.958 422.84 226.827C423 225.601 423.902 225.177 424.975 225.028C425.602 224.94 426.24 224.944 426.561 224.921H426.557Z" fill="#C2BABA"/>
<path d="M75.5695 204.199C75.8064 201.193 77.8464 199.214 80.5245 199.405C83.2751 199.599 85.4068 202.09 85.2082 204.883C85.0172 207.611 82.66 209.601 79.8636 209.402C77.09 209.204 75.3441 207.087 75.5734 204.199H75.5695ZM82.469 204.612C82.2933 203.714 81.8807 202.931 80.7957 202.938C79.7604 202.946 78.8283 203.466 78.7519 204.543C78.6793 205.594 79.3898 206.308 80.5283 206.365C81.6935 206.423 82.2398 205.735 82.469 204.612Z" fill="#C2BABA"/>
<path d="M429.953 240.836C429.804 242.662 428.895 244.076 427.096 244.855C425.25 245.654 423.589 245.184 422.186 243.912C420.865 242.716 420.418 241.142 421.006 239.419C421.518 237.918 422.511 236.951 424.238 237.07C424.544 237.092 424.811 237.165 425.143 237.043C427.841 236.057 430.014 237.734 429.957 240.836H429.953ZM425.059 239.53C424.544 239.801 424.437 240.279 424.467 240.779C424.505 241.417 424.819 241.879 425.525 241.734C426.06 241.623 426.419 241.215 426.217 240.638C426.034 240.111 425.659 239.683 425.059 239.534V239.53Z" fill="#C2BABA"/>
<path d="M264.048 135.464C259.602 135.377 255.552 134.051 251.915 131.499C251.193 130.991 250.494 130.41 249.909 129.753C249.18 128.932 247.892 127.873 248.836 126.869C249.741 125.906 250.54 127.415 251.235 127.969C259.284 134.414 270.432 133.738 276.743 127.022C277.557 126.158 278.676 125.364 279.696 126.479C280.678 127.549 279.853 128.588 278.993 129.44C274.833 133.57 269.878 135.571 264.045 135.457L264.048 135.464Z" fill="#C2BABA"/>
<path d="M266.031 120.504C266.138 121.627 265.676 122.2 264.542 122.257C262.7 122.349 260.885 122.62 259.071 122.949C257.321 123.266 256.045 122.055 256.385 120.282C257.44 114.8 258.624 109.341 259.743 103.874C259.9 103.114 260.255 102.491 261.065 102.491C262.161 102.491 262.543 103.366 262.731 104.271C263.548 108.183 264.339 112.103 265.134 116.019C265.435 117.512 265.73 119.006 266.028 120.496L266.031 120.504ZM261.348 109.249C261.241 109.253 261.138 109.257 261.031 109.264C260.194 112.493 259.357 115.721 258.521 118.953C258.433 119.289 258.127 119.782 258.681 119.896C260.179 120.202 261.707 120.336 263.231 120.179C263.713 120.129 263.674 119.614 263.59 119.243C262.849 115.912 262.097 112.58 261.344 109.253L261.348 109.249Z" fill="#C2BABA"/>
<path d="M278.879 109.895C278.906 110.865 278.734 111.79 278.134 112.58C277.519 113.386 276.72 113.883 275.681 113.7C274.593 113.505 273.809 112.825 273.584 111.744C273.175 109.792 273.557 107.943 274.776 106.353C275.723 105.119 277.003 105.211 277.943 106.46C278.474 107.167 278.875 108.63 278.883 109.891L278.879 109.895Z" fill="#C2BABA"/>
<path d="M245.375 110.514C245.532 109.188 245.627 107.92 246.246 106.766C246.62 106.067 247.06 105.441 247.954 105.464C248.836 105.486 249.287 106.102 249.627 106.82C250.318 108.291 250.582 109.834 250.387 111.45C250.208 112.936 249.478 114.097 247.904 114.086C246.319 114.075 245.658 112.86 245.459 111.4C245.417 111.087 245.398 110.77 245.375 110.518V110.514Z" fill="#C2BABA"/>
<path d="M248.847 101.509C246.555 101.131 244.389 101.288 242.231 101.23C241.383 101.207 240.458 101.173 240.347 100.084C240.248 99.0718 241.165 98.8082 241.879 98.7088C244.385 98.3574 246.93 97.8531 249.359 99.0527C249.986 99.3621 250.612 99.8893 250.414 100.684C250.204 101.517 249.428 101.555 248.844 101.513L248.847 101.509Z" fill="#C2BABA"/>
<path d="M275.444 101.001C274.497 101.001 273.549 101.02 272.606 100.993C272.239 100.982 271.811 100.955 271.662 100.516C271.494 100.023 271.777 99.6869 272.124 99.3698C273.893 97.7614 280.22 97.8417 281.843 99.515C282.241 99.9237 282.661 100.401 282.382 101.009C282.084 101.658 281.461 101.578 280.892 101.417C279.104 100.913 277.282 100.837 275.444 101.001Z" fill="#C2BABA"/>
<path d="M237.971 236.179C232.294 236.133 227.866 231.747 227.905 226.2C227.939 220.638 232.451 216.099 237.921 216.118C243.713 216.141 248.244 220.565 248.171 226.124C248.099 231.877 243.69 236.225 237.971 236.179ZM230.262 226.391C230.296 230.819 233.929 234.49 238.238 234.445C242.525 234.403 246.112 230.792 246.135 226.506C246.158 222.006 242.666 218.457 238.238 218.476C233.639 218.495 230.231 221.876 230.265 226.388L230.262 226.391Z" fill="#C2BABA"/>
<path d="M289.213 237.242C283.738 237.288 279.246 232.837 279.211 227.336C279.177 221.632 283.524 217.395 289.484 217.323C294.225 217.265 298.932 222.201 298.993 227.294C299.058 232.638 294.573 237.2 289.213 237.246V237.242ZM289.171 235.355C293.499 235.366 297.266 231.79 297.086 227.553C296.899 223.172 294.427 219.684 288.109 219.638C284.987 219.615 281.496 223.871 281.461 227.615C281.423 231.89 284.865 235.347 289.171 235.358V235.355Z" fill="#C2BABA"/>
<path d="M95.3894 285.029C96.6921 285.293 97.8649 284.575 99.1256 284.575C99.4733 284.575 99.9699 284.468 100.031 284.98C100.062 285.239 99.8782 285.579 99.691 285.805C98.7321 286.97 95.4467 287.39 94.1936 286.542C93.8078 286.282 93.4066 285.939 93.5785 285.476C93.9376 284.514 94.7972 285.258 95.3894 285.025V285.029Z" fill="#C2BABA"/>
<path d="M98.9306 280.453C98.9268 281.202 98.6938 281.832 97.9526 282.146C97.5324 282.325 97.0243 282.425 96.6728 282.15C96.0157 281.638 96.52 280.977 96.627 280.392C96.7951 279.46 97.0014 278.536 97.2382 277.615C97.3108 277.328 97.4713 276.996 97.8762 277.03C98.243 277.057 98.4378 277.317 98.4951 277.645C98.6556 278.578 98.7893 279.517 98.9306 280.457V280.453Z" fill="#C2BABA"/>
<path d="M90.8086 278.657C90.8697 277.729 91.2059 276.961 92.2412 277.038C93.2039 277.11 93.6394 277.836 93.5592 278.776C93.4828 279.651 93.139 280.441 92.1037 280.403C91.034 280.365 90.8812 279.498 90.8086 278.657Z" fill="#C2BABA"/>
<path d="M416.116 340.421C416.365 339.649 416.216 338.549 417.201 338.243C417.847 338.045 417.931 338.793 417.87 339.282C417.755 340.161 417.511 341.128 416.624 341.429C416.055 341.62 416.238 340.837 416.116 340.421Z" fill="#C2BABA"/>
<path d="M392.258 341.147C391.299 339.974 391.765 339.023 392.369 338.125C392.56 337.842 392.984 337.903 393.148 338.232C393.729 339.389 393.095 340.211 392.258 341.147Z" fill="#C2BABA"/>
<path d="M396.193 340.478C396.22 339.695 396.327 338.927 397.114 338.77C397.779 338.64 397.882 339.309 397.832 339.805C397.76 340.539 397.687 341.456 396.786 341.559C396.159 341.631 396.274 340.867 396.193 340.478Z" fill="#C2BABA"/>
<path d="M401.4 334.212C401.152 333.559 401.16 332.998 401.362 332.463C401.587 331.874 401.568 330.766 402.428 331.049C403.119 331.278 402.722 332.272 402.501 332.891C402.325 333.383 402.203 333.987 401.4 334.212Z" fill="#C2BABA"/>
<path d="M398.447 331.92C398.65 331.175 398.478 330.231 399.467 330.094C400.09 330.006 400.029 330.632 400.006 331.053C399.964 331.809 399.907 332.73 399.104 332.944C398.413 333.127 398.627 332.283 398.447 331.924V331.92Z" fill="#C2BABA"/>
<path d="M396.858 310.591C395.448 310.507 394.104 310.213 392.977 309.285C392.633 309.002 392.247 308.651 392.499 308.166C392.698 307.78 393.164 307.829 393.519 307.936C395.093 308.425 396.644 308.979 398.333 308.418C398.631 308.318 398.959 308.513 399.123 308.819C399.326 309.201 399.207 309.564 398.936 309.862C398.378 310.477 397.653 310.626 396.858 310.591Z" fill="#C2BABA"/>
<path d="M391.597 302.473C391.781 301.675 391.804 300.552 393.129 300.617C394.214 300.67 394.306 301.614 394.325 302.45C394.352 303.444 393.924 304.299 392.881 304.326C391.872 304.353 391.567 303.516 391.597 302.473Z" fill="#C2BABA"/>
<path d="M397.553 303.23C397.66 302.374 397.656 301.377 398.89 301.343C399.887 301.316 400.166 302.084 400.147 302.886C400.12 303.837 400.014 304.903 398.703 304.903C397.672 304.903 397.653 304.009 397.553 303.234V303.23Z" fill="#C2BABA"/>
<path d="M234.468 229.937C235.263 227.584 235.694 224.78 237.234 222.392C237.914 221.341 239.056 221.2 240.126 221.716C241.127 222.201 241.601 223.144 241.383 224.264C241.165 225.395 240.447 225.929 239.232 226.002C237.708 226.09 236.76 228.122 237.601 229.436C238.082 230.189 238.151 230.858 237.562 231.515C237.058 232.073 236.42 232.283 235.668 232C234.854 231.694 234.457 231.117 234.468 229.941V229.937Z" fill="#C2BABA"/>
<path d="M286.76 229.528C287.334 228.504 287.081 227.346 286.688 226.189C286.669 226.132 286.665 226.063 286.673 225.998C286.772 225.234 287.276 224.619 287.914 225.15C288.946 226.009 291.616 222.403 291.276 226.391C291.192 227.358 291.081 228.164 291.574 229.092C292.243 230.353 291.502 231.308 290.138 230.991C289.53 230.85 289.099 230.922 288.537 231.102C287.356 231.484 286.73 230.926 286.76 229.528Z" fill="#C2BABA"/>
</svg>
